<?xml version="1.0" encoding="utf-8"?>
<!-- Generator: Adobe Illustrator 24.0.2, SVG Export Plug-In . SVG Version: 6.00 Build 0)  -->
<svg version="1.1" id="Layer_1" xmlns="http://www.w3.org/2000/svg" xmlns:xlink="http://www.w3.org/1999/xlink" x="0px" y="0px"
	 viewBox="0 0 235.26 235.26" style="enable-background:new 0 0 235.26 235.26;" xml:space="preserve">
<style type="text/css">
	.st0{fill:#FFFFFF;}
	.st1{fill:none;stroke:#CCCCCC;stroke-width:0.7113;stroke-linejoin:round;stroke-miterlimit:10;stroke-dasharray:4,4;}
	.st2{fill:none;stroke:#404040;stroke-width:1.4226;stroke-linejoin:round;stroke-miterlimit:10;}
	.st3{fill:#7F7F7F;}
	.st4{fill:none;stroke:#7F7F7F;stroke-width:0.9449;stroke-linecap:round;stroke-linejoin:round;stroke-miterlimit:10;}
	.st5{fill:#BEBEBE;}
	.st6{fill:#4D4D4D;}
</style>
<rect class="st0" width="235.26" height="235.26"/>
<path class="st1" d="M51.18,137.29h170.64 M51.18,137.29h170.64 M51.18,137.29h170.64 M51.18,137.29h170.64 M51.18,137.29h170.64
	 M51.18,137.29h170.64"/>
<polyline class="st2" points="52.75,186.27 54.89,184.09 57.03,181.9 59.17,179.71 61.31,177.53 63.45,175.34 65.59,173.16 
	67.73,170.97 69.87,168.79 72.01,166.6 74.15,164.42 76.29,162.23 78.43,160.05 80.57,157.86 82.71,155.68 84.85,153.49 
	86.99,151.3 89.13,149.12 91.27,146.93 93.41,144.75 95.55,142.56 97.69,140.38 99.84,138.19 101.98,136 104.11,133.82 
	106.25,131.63 108.39,129.45 110.53,127.26 112.68,125.08 114.82,122.89 116.96,120.71 119.1,118.52 121.24,116.34 123.38,114.15 
	125.52,111.96 127.66,109.78 129.8,107.59 131.94,105.41 134.08,103.22 136.22,101.04 138.36,98.85 140.5,96.66 142.64,94.48 
	144.78,92.29 146.92,90.11 149.06,87.92 151.2,85.74 153.34,83.55 155.48,81.37 157.62,79.18 159.76,77 161.9,74.81 164.04,72.63 
	166.18,70.44 168.32,68.25 170.46,66.07 172.6,63.88 174.74,61.69 176.88,59.51 179.02,57.32 181.16,55.14 183.3,52.95 
	185.44,50.77 187.58,48.58 189.72,46.4 191.86,44.21 194,42.03 196.14,39.84 198.28,37.66 200.42,35.47 202.56,33.28 204.7,31.1 
	206.84,28.91 208.98,26.73 211.12,24.54 213.27,22.35 215.41,20.17 217.54,17.98 219.68,15.8 221.82,13.61 "/>
<path class="st3" d="M102.93,137.54c0,3.27-4.91,3.27-4.91,0C98.02,134.27,102.93,134.27,102.93,137.54"/>
<path class="st4" d="M102.93,137.54c0,3.27-4.91,3.27-4.91,0C98.02,134.27,102.93,134.27,102.93,137.54"/>
<path class="st3" d="M224.28,13.61c0,3.27-4.91,3.27-4.91,0C219.37,10.34,224.28,10.34,224.28,13.61"/>
<path class="st4" d="M224.28,13.61c0,3.27-4.91,3.27-4.91,0C219.37,10.34,224.28,10.34,224.28,13.61"/>
<path class="st3" d="M81.12,159.8c0,3.27-4.91,3.27-4.91,0C76.21,156.53,81.12,156.53,81.12,159.8"/>
<path class="st4" d="M81.12,159.8c0,3.27-4.91,3.27-4.91,0C76.21,156.53,81.12,156.53,81.12,159.8"/>
<path class="st3" d="M67.17,174.05c0,3.27-4.91,3.27-4.91,0C62.26,170.78,67.17,170.78,67.17,174.05"/>
<path class="st4" d="M67.17,174.05c0,3.27-4.91,3.27-4.91,0C62.26,170.78,67.17,170.78,67.17,174.05"/>
<path class="st3" d="M55.21,186.27c0,3.27-4.91,3.27-4.91,0C50.3,183,55.21,183,55.21,186.27"/>
<path class="st4" d="M55.21,186.27c0,3.27-4.91,3.27-4.91,0C50.3,183,55.21,183,55.21,186.27"/>
<path class="st3" d="M77.67,163.33c0,3.27-4.91,3.27-4.91,0C72.77,160.05,77.67,160.05,77.67,163.33"/>
<path class="st4" d="M77.67,163.33c0,3.27-4.91,3.27-4.91,0C72.77,160.05,77.67,160.05,77.67,163.33"/>
<path class="st5" d="M85.1,131.84l0.45-1.25h1.73l0.48,1.25h0.62l-1.69-4.13H86.1l-1.58,4.13H85.1L85.1,131.84z M86.16,128.93
	c0.1-0.26,0.17-0.52,0.22-0.79c0.06,0.22,0.16,0.51,0.29,0.86l0.43,1.14h-1.4L86.16,128.93L86.16,128.93z M89.38,131.84v-2.59h0.58
	v-0.39h-0.58v-0.28c0-0.18,0.03-0.3,0.1-0.37c0.06-0.07,0.17-0.1,0.33-0.1c0.09,0,0.19,0.01,0.3,0.03l0.08-0.44
	c-0.17-0.03-0.33-0.05-0.47-0.05c-0.22,0-0.39,0.04-0.52,0.12c-0.12,0.08-0.21,0.19-0.26,0.32c-0.04,0.1-0.05,0.25-0.05,0.45v0.32
	h-0.45v0.39h0.45v2.59H89.38L89.38,131.84z M90.85,131.84v-1.56c0-0.21,0.03-0.41,0.08-0.59c0.04-0.12,0.1-0.21,0.19-0.28
	c0.09-0.07,0.19-0.1,0.3-0.1c0.12,0,0.25,0.04,0.37,0.11l0.17-0.47c-0.18-0.11-0.35-0.16-0.52-0.16c-0.12,0-0.23,0.03-0.33,0.1
	c-0.1,0.07-0.21,0.21-0.32,0.42v-0.45h-0.46v2.99H90.85L90.85,131.84z M92.78,128.29v-0.58h-0.51v0.58H92.78L92.78,128.29z
	 M92.78,131.84v-2.99h-0.51v2.99H92.78L92.78,131.84z M95.25,131.31c-0.13,0.12-0.3,0.18-0.5,0.18c-0.25,0-0.45-0.09-0.6-0.27
	c-0.15-0.18-0.23-0.47-0.23-0.88c0-0.4,0.08-0.69,0.24-0.87c0.16-0.18,0.37-0.27,0.62-0.27c0.17,0,0.31,0.05,0.43,0.15
	c0.12,0.1,0.2,0.25,0.25,0.45l0.49-0.08c-0.06-0.3-0.19-0.54-0.4-0.7c-0.21-0.16-0.47-0.25-0.8-0.25c-0.26,0-0.49,0.06-0.71,0.18
	c-0.22,0.12-0.38,0.3-0.49,0.54s-0.16,0.52-0.16,0.85c0,0.5,0.12,0.88,0.37,1.15c0.25,0.27,0.58,0.4,0.99,0.4
	c0.33,0,0.6-0.1,0.83-0.29c0.22-0.19,0.36-0.46,0.42-0.81l-0.5-0.06C95.47,131,95.38,131.18,95.25,131.31L95.25,131.31z
	 M98.49,131.84h0.53c-0.06-0.11-0.11-0.23-0.13-0.36c-0.02-0.12-0.03-0.42-0.03-0.89v-0.68c0-0.23-0.01-0.38-0.03-0.47
	c-0.03-0.14-0.08-0.25-0.16-0.34c-0.08-0.09-0.19-0.17-0.35-0.23c-0.16-0.06-0.37-0.09-0.62-0.09c-0.26,0-0.48,0.04-0.68,0.11
	c-0.2,0.07-0.34,0.17-0.45,0.3c-0.1,0.13-0.18,0.3-0.22,0.51l0.5,0.07c0.05-0.21,0.14-0.36,0.25-0.44c0.11-0.08,0.29-0.13,0.53-0.13
	c0.26,0,0.45,0.06,0.58,0.17c0.1,0.08,0.14,0.23,0.14,0.44c0,0.02,0,0.06,0,0.13c-0.19,0.07-0.49,0.13-0.9,0.17
	c-0.2,0.02-0.35,0.05-0.45,0.08c-0.14,0.04-0.26,0.09-0.36,0.17c-0.11,0.07-0.2,0.17-0.26,0.29c-0.07,0.12-0.1,0.25-0.1,0.4
	c0,0.25,0.09,0.45,0.26,0.61c0.18,0.16,0.43,0.24,0.76,0.24c0.2,0,0.39-0.03,0.56-0.1c0.17-0.07,0.35-0.18,0.54-0.34
	C98.4,131.61,98.43,131.73,98.49,131.84L98.49,131.84L98.49,131.84z M98.34,130.52c0,0.22-0.03,0.39-0.08,0.51
	c-0.07,0.15-0.18,0.27-0.33,0.35c-0.15,0.09-0.33,0.13-0.52,0.13c-0.2,0-0.35-0.05-0.45-0.14c-0.1-0.09-0.15-0.2-0.15-0.34
	c0-0.09,0.02-0.17,0.07-0.24c0.05-0.07,0.11-0.13,0.2-0.16c0.09-0.04,0.23-0.07,0.44-0.1c0.37-0.05,0.64-0.12,0.83-0.19V130.52
	L98.34,130.52z"/>
<path class="st5" d="M205.64,12.74l0.45-1.25h1.73l0.48,1.25h0.62l-1.69-4.13h-0.59l-1.58,4.13H205.64L205.64,12.74z M206.7,9.84
	c0.1-0.26,0.17-0.52,0.22-0.79c0.06,0.22,0.16,0.51,0.29,0.86l0.43,1.14h-1.4L206.7,9.84L206.7,9.84z M209.48,12.57
	c0.2,0.16,0.5,0.24,0.89,0.24c0.23,0,0.44-0.04,0.63-0.12c0.19-0.08,0.33-0.2,0.43-0.35c0.1-0.15,0.15-0.31,0.15-0.48
	c0-0.17-0.04-0.32-0.12-0.43c-0.08-0.12-0.19-0.2-0.33-0.27c-0.14-0.06-0.39-0.14-0.75-0.24c-0.25-0.07-0.4-0.11-0.45-0.13
	c-0.09-0.04-0.15-0.08-0.19-0.14c-0.04-0.05-0.06-0.11-0.06-0.18c0-0.1,0.05-0.19,0.15-0.27c0.1-0.08,0.27-0.12,0.5-0.12
	c0.2,0,0.35,0.04,0.46,0.13c0.11,0.09,0.17,0.21,0.2,0.36l0.5-0.07c-0.03-0.19-0.09-0.35-0.17-0.46c-0.08-0.12-0.22-0.21-0.39-0.27
	c-0.18-0.07-0.38-0.1-0.62-0.1c-0.16,0-0.3,0.02-0.44,0.06c-0.14,0.04-0.24,0.09-0.32,0.15c-0.11,0.08-0.19,0.17-0.25,0.28
	c-0.06,0.11-0.09,0.24-0.09,0.37c0,0.15,0.04,0.28,0.11,0.4c0.07,0.12,0.18,0.22,0.33,0.28c0.14,0.07,0.4,0.15,0.77,0.24
	c0.28,0.07,0.45,0.13,0.52,0.17c0.1,0.07,0.15,0.16,0.15,0.27c0,0.13-0.06,0.24-0.17,0.33c-0.11,0.09-0.29,0.14-0.52,0.14
	c-0.23,0-0.41-0.05-0.54-0.16c-0.13-0.11-0.21-0.26-0.23-0.46l-0.5,0.08C209.14,12.17,209.27,12.4,209.48,12.57L209.48,12.57z
	 M212.68,9.2V8.61h-0.51V9.2H212.68L212.68,9.2z M212.68,12.74V9.75h-0.51v2.99H212.68L212.68,12.74z M215.5,12.74h0.53
	c-0.06-0.11-0.11-0.23-0.13-0.36c-0.02-0.12-0.03-0.42-0.03-0.89v-0.68c0-0.23-0.01-0.38-0.03-0.47c-0.03-0.14-0.08-0.25-0.16-0.34
	c-0.08-0.09-0.19-0.17-0.35-0.23c-0.16-0.06-0.37-0.09-0.62-0.09c-0.26,0-0.48,0.04-0.68,0.11c-0.2,0.07-0.34,0.17-0.45,0.3
	c-0.1,0.13-0.18,0.3-0.22,0.51l0.5,0.07c0.05-0.21,0.14-0.36,0.25-0.44c0.11-0.08,0.29-0.13,0.53-0.13c0.26,0,0.45,0.06,0.58,0.17
	c0.1,0.08,0.14,0.23,0.14,0.44c0,0.02,0,0.06,0,0.13c-0.19,0.07-0.49,0.13-0.9,0.17c-0.2,0.02-0.35,0.05-0.45,0.08
	c-0.14,0.04-0.26,0.09-0.36,0.17c-0.11,0.07-0.2,0.17-0.26,0.29c-0.07,0.12-0.1,0.25-0.1,0.4c0,0.25,0.09,0.45,0.26,0.61
	c0.18,0.16,0.43,0.24,0.76,0.24c0.2,0,0.39-0.03,0.56-0.1c0.17-0.07,0.35-0.18,0.54-0.34C215.42,12.51,215.45,12.64,215.5,12.74
	L215.5,12.74L215.5,12.74z M215.36,11.43c0,0.22-0.03,0.39-0.08,0.51c-0.07,0.15-0.18,0.27-0.33,0.35
	c-0.15,0.09-0.33,0.13-0.52,0.13c-0.2,0-0.35-0.05-0.45-0.14c-0.1-0.09-0.15-0.2-0.15-0.34c0-0.09,0.02-0.17,0.07-0.24
	c0.05-0.07,0.11-0.13,0.2-0.16c0.09-0.04,0.23-0.07,0.44-0.1c0.37-0.05,0.64-0.12,0.83-0.19V11.43L215.36,11.43z"/>
<path class="st5" d="M88.88,160.45v-0.49h-2.53v-1.4h2.28v-0.48h-2.28v-1.26h2.44v-0.49h-2.98v4.13H88.88L88.88,160.45z
	 M91.99,160.45v-2.99h-0.51v1.6c0,0.26-0.03,0.45-0.08,0.58c-0.06,0.13-0.15,0.24-0.28,0.32c-0.13,0.08-0.28,0.12-0.43,0.12
	s-0.28-0.04-0.38-0.11c-0.1-0.08-0.17-0.18-0.2-0.31c-0.02-0.09-0.03-0.27-0.03-0.53v-1.66h-0.51v1.85c0,0.22,0.01,0.37,0.03,0.47
	c0.03,0.15,0.08,0.27,0.16,0.38c0.07,0.1,0.19,0.19,0.34,0.25c0.15,0.07,0.32,0.1,0.49,0.1c0.4,0,0.72-0.17,0.95-0.51v0.44H91.99
	L91.99,160.45z M93.28,160.45v-1.56c0-0.21,0.03-0.41,0.08-0.59c0.04-0.12,0.1-0.21,0.19-0.28c0.09-0.07,0.19-0.1,0.3-0.1
	c0.12,0,0.25,0.04,0.37,0.11l0.17-0.47c-0.18-0.11-0.35-0.16-0.52-0.16c-0.12,0-0.23,0.03-0.33,0.1c-0.1,0.07-0.21,0.21-0.32,0.42
	v-0.45h-0.46v2.99H93.28L93.28,160.45z M94.9,160.12c0.26,0.27,0.6,0.4,1.01,0.4c0.26,0,0.5-0.06,0.72-0.18
	c0.22-0.12,0.39-0.29,0.5-0.51c0.12-0.22,0.17-0.52,0.17-0.91c0-0.47-0.13-0.85-0.39-1.12c-0.26-0.27-0.6-0.4-1.01-0.4
	c-0.37,0-0.68,0.11-0.94,0.33c-0.31,0.27-0.46,0.68-0.46,1.23C94.51,159.46,94.64,159.85,94.9,160.12L94.9,160.12z M95.28,158.1
	c0.17-0.19,0.38-0.28,0.63-0.28c0.25,0,0.46,0.1,0.63,0.29c0.17,0.19,0.25,0.47,0.25,0.84c0,0.39-0.08,0.68-0.25,0.88
	c-0.17,0.19-0.38,0.29-0.63,0.29c-0.25,0-0.46-0.1-0.63-0.29c-0.17-0.19-0.25-0.48-0.25-0.86S95.11,158.29,95.28,158.1L95.28,158.1z
	 M98.41,161.6v-1.46c0.09,0.11,0.2,0.2,0.33,0.27c0.13,0.07,0.29,0.11,0.45,0.11c0.23,0,0.45-0.07,0.66-0.2
	c0.21-0.13,0.37-0.32,0.48-0.56c0.11-0.24,0.16-0.52,0.16-0.83c0-0.29-0.05-0.55-0.15-0.79c-0.1-0.24-0.25-0.42-0.44-0.56
	c-0.2-0.13-0.42-0.2-0.68-0.2c-0.2,0-0.36,0.04-0.5,0.11c-0.14,0.08-0.26,0.19-0.37,0.34v-0.39H97.9v4.13H98.41L98.41,161.6z
	 M98.61,158.1c0.17-0.2,0.36-0.3,0.57-0.3c0.22,0,0.4,0.09,0.56,0.28c0.16,0.19,0.24,0.47,0.24,0.86c0,0.4-0.08,0.69-0.24,0.89
	c-0.16,0.19-0.35,0.29-0.58,0.29c-0.22,0-0.41-0.09-0.57-0.28c-0.16-0.18-0.23-0.47-0.23-0.85C98.36,158.59,98.45,158.3,98.61,158.1
	L98.61,158.1z M102.84,159.96c-0.13,0.1-0.29,0.15-0.48,0.15c-0.25,0-0.46-0.09-0.62-0.26c-0.17-0.17-0.26-0.43-0.28-0.75h2.23
	c0-0.06,0-0.11,0-0.14c0-0.49-0.13-0.88-0.38-1.15c-0.25-0.27-0.58-0.41-0.98-0.41c-0.41,0-0.75,0.14-1.01,0.42
	c-0.26,0.28-0.39,0.67-0.39,1.17c0,0.49,0.13,0.86,0.38,1.13c0.26,0.27,0.6,0.4,1.04,0.4c0.35,0,0.63-0.08,0.86-0.25
	c0.22-0.17,0.38-0.41,0.46-0.71l-0.52-0.06C103.08,159.71,102.97,159.86,102.84,159.96L102.84,159.96z M101.76,158.05
	c0.16-0.16,0.35-0.23,0.59-0.23c0.26,0,0.47,0.1,0.63,0.29c0.11,0.13,0.17,0.31,0.19,0.57h-1.67
	C101.51,158.41,101.6,158.2,101.76,158.05L101.76,158.05z"/>
<path class="st5" d="M70.67,180.11v-3.24l2.17,3.24h0.56v-4.13h-0.52v3.24l-2.17-3.24h-0.56v4.13H70.67L70.67,180.11z M74.45,179.78
	c0.26,0.27,0.6,0.4,1.01,0.4c0.26,0,0.5-0.06,0.72-0.18c0.22-0.12,0.39-0.29,0.5-0.51c0.12-0.22,0.17-0.52,0.17-0.91
	c0-0.47-0.13-0.85-0.39-1.12c-0.26-0.27-0.6-0.4-1.01-0.4c-0.37,0-0.68,0.11-0.94,0.33c-0.31,0.27-0.46,0.68-0.46,1.23
	C74.06,179.12,74.19,179.51,74.45,179.78L74.45,179.78z M74.83,177.76c0.17-0.19,0.38-0.28,0.63-0.28c0.25,0,0.46,0.1,0.63,0.29
	c0.17,0.19,0.25,0.47,0.25,0.84c0,0.39-0.08,0.68-0.25,0.88c-0.17,0.19-0.38,0.29-0.63,0.29c-0.25,0-0.46-0.1-0.63-0.29
	c-0.17-0.19-0.25-0.48-0.25-0.86S74.66,177.95,74.83,177.76L74.83,177.76z M77.96,180.11v-1.56c0-0.21,0.03-0.41,0.08-0.59
	c0.04-0.12,0.1-0.21,0.19-0.28c0.09-0.07,0.19-0.1,0.3-0.1c0.12,0,0.25,0.04,0.37,0.11l0.17-0.47c-0.18-0.11-0.35-0.16-0.52-0.16
	c-0.12,0-0.23,0.03-0.33,0.1c-0.1,0.07-0.21,0.21-0.32,0.42v-0.45h-0.46v2.99H77.96L77.96,180.11z M80.26,179.68
	c-0.08,0-0.13-0.01-0.17-0.04c-0.04-0.02-0.07-0.06-0.09-0.1c-0.02-0.04-0.03-0.13-0.03-0.28v-1.75h0.51v-0.39h-0.51v-1.04l-0.5,0.3
	v0.74H79.1v0.39h0.37v1.72c0,0.3,0.02,0.5,0.06,0.6c0.04,0.09,0.11,0.17,0.21,0.23c0.1,0.06,0.24,0.09,0.43,0.09
	c0.11,0,0.24-0.02,0.38-0.05l-0.07-0.45C80.39,179.67,80.31,179.68,80.26,179.68L80.26,179.68L80.26,179.68z M81.48,180.11v-1.64
	c0-0.23,0.03-0.42,0.08-0.55c0.06-0.13,0.15-0.24,0.28-0.32c0.13-0.08,0.27-0.12,0.42-0.12c0.2,0,0.36,0.06,0.47,0.17
	s0.16,0.3,0.16,0.55v1.89h0.51v-1.89c0-0.29-0.04-0.52-0.11-0.67c-0.07-0.15-0.19-0.27-0.35-0.36c-0.16-0.09-0.36-0.13-0.58-0.13
	c-0.36,0-0.66,0.14-0.89,0.41v-1.48h-0.51v4.13H81.48L81.48,180.11z M85.97,180.11l0.45-1.25h1.73l0.48,1.25h0.62l-1.69-4.13h-0.59
	l-1.58,4.13H85.97L85.97,180.11z M87.04,177.21c0.1-0.26,0.17-0.52,0.22-0.79c0.06,0.22,0.16,0.51,0.29,0.86l0.43,1.14h-1.4
	L87.04,177.21L87.04,177.21z M90.13,180.11v-1.55c0-0.27,0.03-0.48,0.08-0.62c0.05-0.14,0.14-0.25,0.26-0.33
	c0.12-0.08,0.25-0.11,0.4-0.11c0.19,0,0.32,0.06,0.41,0.17c0.08,0.11,0.12,0.28,0.12,0.51v1.94h0.51v-1.74
	c0-0.31,0.07-0.53,0.21-0.67c0.14-0.14,0.31-0.21,0.52-0.21c0.12,0,0.22,0.03,0.3,0.08c0.09,0.05,0.15,0.13,0.18,0.22
	c0.03,0.09,0.05,0.24,0.05,0.44v1.88h0.5v-2.05c0-0.34-0.08-0.59-0.24-0.76c-0.16-0.16-0.39-0.25-0.68-0.25
	c-0.38,0-0.69,0.17-0.92,0.52c-0.06-0.17-0.16-0.29-0.3-0.39c-0.14-0.09-0.32-0.14-0.54-0.14c-0.2,0-0.38,0.04-0.53,0.13
	c-0.16,0.09-0.28,0.21-0.37,0.35v-0.42h-0.45v2.99H90.13L90.13,180.11z M96.16,179.62c-0.13,0.1-0.29,0.15-0.48,0.15
	c-0.25,0-0.46-0.09-0.62-0.26c-0.17-0.17-0.26-0.43-0.28-0.75h2.23c0-0.06,0-0.11,0-0.14c0-0.49-0.13-0.88-0.38-1.15
	c-0.25-0.27-0.58-0.41-0.98-0.41c-0.41,0-0.75,0.14-1.01,0.42c-0.26,0.28-0.39,0.67-0.39,1.17c0,0.49,0.13,0.86,0.38,1.13
	c0.26,0.27,0.6,0.4,1.04,0.4c0.35,0,0.63-0.08,0.86-0.25c0.22-0.17,0.38-0.41,0.46-0.71l-0.52-0.06
	C96.4,179.36,96.29,179.52,96.16,179.62L96.16,179.62z M95.07,177.7c0.16-0.16,0.35-0.23,0.59-0.23c0.26,0,0.47,0.1,0.63,0.29
	c0.11,0.13,0.17,0.31,0.19,0.57h-1.67C94.83,178.07,94.92,177.86,95.07,177.7L95.07,177.7z M98.13,180.11v-1.56
	c0-0.21,0.03-0.41,0.08-0.59c0.04-0.12,0.1-0.21,0.19-0.28c0.09-0.07,0.19-0.1,0.3-0.1c0.12,0,0.25,0.04,0.37,0.11l0.17-0.47
	c-0.18-0.11-0.35-0.16-0.52-0.16c-0.12,0-0.23,0.03-0.33,0.1c-0.1,0.07-0.21,0.21-0.32,0.42v-0.45h-0.46v2.99H98.13L98.13,180.11z
	 M100.06,176.57v-0.58h-0.51v0.58H100.06L100.06,176.57z M100.06,180.11v-2.99h-0.51v2.99H100.06L100.06,180.11z M102.53,179.58
	c-0.13,0.12-0.3,0.18-0.5,0.18c-0.25,0-0.45-0.09-0.6-0.27c-0.15-0.18-0.23-0.47-0.23-0.88c0-0.4,0.08-0.69,0.24-0.87
	c0.16-0.18,0.37-0.27,0.62-0.27c0.17,0,0.31,0.05,0.43,0.15c0.12,0.1,0.2,0.25,0.25,0.45l0.49-0.08c-0.06-0.3-0.19-0.54-0.4-0.7
	c-0.21-0.16-0.47-0.25-0.8-0.25c-0.26,0-0.49,0.06-0.71,0.18c-0.22,0.12-0.38,0.3-0.49,0.54s-0.16,0.52-0.16,0.85
	c0,0.5,0.12,0.88,0.37,1.15c0.25,0.27,0.58,0.4,0.99,0.4c0.33,0,0.6-0.1,0.83-0.29c0.22-0.19,0.36-0.46,0.42-0.81l-0.5-0.06
	C102.75,179.27,102.66,179.46,102.53,179.58L102.53,179.58z M105.77,180.11h0.53c-0.06-0.11-0.11-0.23-0.13-0.36
	c-0.02-0.12-0.03-0.42-0.03-0.89v-0.68c0-0.23-0.01-0.38-0.03-0.47c-0.03-0.14-0.08-0.25-0.16-0.34c-0.08-0.09-0.19-0.17-0.35-0.23
	c-0.16-0.06-0.37-0.09-0.62-0.09c-0.26,0-0.48,0.04-0.68,0.11c-0.2,0.07-0.34,0.17-0.45,0.3c-0.1,0.13-0.18,0.3-0.22,0.51l0.5,0.07
	c0.05-0.21,0.14-0.36,0.25-0.44c0.11-0.08,0.29-0.13,0.53-0.13c0.26,0,0.45,0.06,0.58,0.17c0.1,0.08,0.14,0.23,0.14,0.44
	c0,0.02,0,0.06,0,0.13c-0.19,0.07-0.49,0.13-0.9,0.17c-0.2,0.02-0.35,0.05-0.45,0.08c-0.14,0.04-0.26,0.09-0.36,0.17
	c-0.11,0.07-0.2,0.17-0.26,0.29c-0.07,0.12-0.1,0.25-0.1,0.4c0,0.25,0.09,0.45,0.26,0.61c0.18,0.16,0.43,0.24,0.76,0.24
	c0.2,0,0.39-0.03,0.56-0.1c0.17-0.07,0.35-0.18,0.54-0.34C105.68,179.88,105.71,180.01,105.77,180.11L105.77,180.11L105.77,180.11z
	 M105.62,178.8c0,0.22-0.03,0.39-0.08,0.51c-0.07,0.15-0.18,0.27-0.33,0.35c-0.15,0.09-0.33,0.13-0.52,0.13
	c-0.2,0-0.35-0.05-0.45-0.14c-0.1-0.09-0.15-0.2-0.15-0.34c0-0.09,0.02-0.17,0.07-0.24c0.05-0.07,0.11-0.13,0.2-0.16
	c0.09-0.04,0.23-0.07,0.44-0.1c0.37-0.05,0.64-0.12,0.83-0.19V178.8L105.62,178.8z"/>
<path class="st5" d="M58.35,190.03c0.16,0.32,0.39,0.58,0.7,0.77c0.31,0.19,0.65,0.28,1.04,0.28c0.36,0,0.69-0.08,1-0.25
	c0.31-0.17,0.55-0.42,0.72-0.75c0.17-0.33,0.25-0.7,0.25-1.12c0-0.41-0.08-0.78-0.24-1.11c-0.16-0.33-0.39-0.58-0.7-0.76
	c-0.31-0.18-0.65-0.27-1.03-0.27c-0.58,0-1.06,0.19-1.42,0.58c-0.37,0.39-0.55,0.92-0.55,1.61
	C58.12,189.36,58.19,189.7,58.35,190.03L58.35,190.03z M59.1,187.68c0.28-0.27,0.61-0.4,1-0.4c0.27,0,0.52,0.07,0.74,0.21
	c0.22,0.14,0.38,0.33,0.5,0.58c0.11,0.25,0.17,0.54,0.17,0.88c0,0.53-0.13,0.94-0.4,1.23c-0.27,0.29-0.6,0.43-1.01,0.43
	c-0.4,0-0.74-0.14-1.01-0.43c-0.27-0.29-0.4-0.68-0.4-1.17C58.68,188.39,58.82,187.94,59.1,187.68L59.1,187.68z M64.4,190.48
	c-0.13,0.12-0.3,0.18-0.5,0.18c-0.25,0-0.45-0.09-0.6-0.27c-0.15-0.18-0.23-0.47-0.23-0.88c0-0.4,0.08-0.69,0.24-0.87
	c0.16-0.18,0.37-0.27,0.62-0.27c0.17,0,0.31,0.05,0.43,0.15c0.12,0.1,0.2,0.25,0.25,0.45l0.49-0.08c-0.06-0.3-0.19-0.54-0.4-0.7
	c-0.21-0.16-0.47-0.25-0.8-0.25c-0.26,0-0.49,0.06-0.71,0.18c-0.22,0.12-0.38,0.3-0.49,0.54s-0.16,0.52-0.16,0.85
	c0,0.5,0.12,0.88,0.37,1.15c0.25,0.27,0.58,0.4,0.99,0.4c0.33,0,0.6-0.1,0.83-0.29c0.22-0.19,0.36-0.46,0.42-0.81l-0.5-0.06
	C64.62,190.17,64.53,190.35,64.4,190.48L64.4,190.48z M67.32,190.51c-0.13,0.1-0.29,0.15-0.48,0.15c-0.25,0-0.46-0.09-0.62-0.26
	c-0.17-0.17-0.26-0.43-0.28-0.75h2.23c0-0.06,0-0.11,0-0.14c0-0.49-0.13-0.88-0.38-1.15c-0.25-0.27-0.58-0.41-0.98-0.41
	c-0.41,0-0.75,0.14-1.01,0.42c-0.26,0.28-0.39,0.67-0.39,1.17c0,0.49,0.13,0.86,0.38,1.13c0.26,0.27,0.6,0.4,1.04,0.4
	c0.35,0,0.63-0.08,0.86-0.25c0.22-0.17,0.38-0.41,0.46-0.71l-0.52-0.06C67.55,190.26,67.45,190.42,67.32,190.51L67.32,190.51z
	 M66.23,188.6c0.16-0.16,0.35-0.23,0.59-0.23c0.26,0,0.47,0.1,0.63,0.29c0.11,0.13,0.17,0.31,0.19,0.57h-1.67
	C65.98,188.97,66.07,188.76,66.23,188.6L66.23,188.6z M70.84,191.01h0.53c-0.06-0.11-0.11-0.23-0.13-0.36
	c-0.02-0.12-0.03-0.42-0.03-0.89v-0.68c0-0.23-0.01-0.38-0.03-0.47c-0.03-0.14-0.08-0.25-0.16-0.34c-0.08-0.09-0.19-0.17-0.35-0.23
	c-0.16-0.06-0.37-0.09-0.62-0.09c-0.26,0-0.48,0.04-0.68,0.11c-0.2,0.07-0.34,0.17-0.45,0.3c-0.1,0.13-0.18,0.3-0.22,0.51l0.5,0.07
	c0.05-0.21,0.14-0.36,0.25-0.44c0.11-0.08,0.29-0.13,0.53-0.13c0.26,0,0.45,0.06,0.58,0.17c0.1,0.08,0.14,0.23,0.14,0.44
	c0,0.02,0,0.06,0,0.13c-0.19,0.07-0.49,0.13-0.9,0.17c-0.2,0.02-0.35,0.05-0.45,0.08c-0.14,0.04-0.26,0.09-0.36,0.17
	c-0.11,0.07-0.2,0.17-0.26,0.29c-0.07,0.12-0.1,0.25-0.1,0.4c0,0.25,0.09,0.45,0.26,0.61c0.18,0.16,0.43,0.24,0.76,0.24
	c0.2,0,0.39-0.03,0.56-0.1c0.17-0.07,0.35-0.18,0.54-0.34C70.75,190.78,70.79,190.9,70.84,191.01L70.84,191.01L70.84,191.01z
	 M70.7,189.69c0,0.22-0.03,0.39-0.08,0.51c-0.07,0.15-0.18,0.27-0.33,0.35c-0.15,0.09-0.33,0.13-0.52,0.13
	c-0.2,0-0.35-0.05-0.45-0.14c-0.1-0.09-0.15-0.2-0.15-0.34c0-0.09,0.02-0.17,0.07-0.24c0.05-0.07,0.11-0.13,0.2-0.16
	c0.09-0.04,0.23-0.07,0.44-0.1c0.37-0.05,0.64-0.12,0.83-0.19V189.69L70.7,189.69z M72.5,191.01v-1.63c0-0.38,0.08-0.64,0.24-0.78
	c0.16-0.14,0.34-0.21,0.56-0.21c0.14,0,0.25,0.03,0.35,0.09c0.1,0.06,0.17,0.14,0.21,0.24c0.04,0.1,0.06,0.26,0.06,0.46v1.82h0.51
	v-1.84c0-0.23-0.01-0.4-0.03-0.49c-0.03-0.14-0.08-0.27-0.16-0.37c-0.08-0.11-0.19-0.19-0.34-0.25c-0.15-0.06-0.32-0.1-0.5-0.1
	c-0.41,0-0.73,0.16-0.95,0.49v-0.42h-0.46v2.99H72.5L72.5,191.01z M75.71,187.46v-0.58H75.2v0.58H75.71L75.71,187.46z M75.71,191.01
	v-2.99H75.2v2.99H75.71L75.71,191.01z M78.53,191.01h0.53c-0.06-0.11-0.11-0.23-0.13-0.36c-0.02-0.12-0.03-0.42-0.03-0.89v-0.68
	c0-0.23-0.01-0.38-0.03-0.47c-0.03-0.14-0.08-0.25-0.16-0.34c-0.08-0.09-0.19-0.17-0.35-0.23c-0.16-0.06-0.37-0.09-0.62-0.09
	c-0.26,0-0.48,0.04-0.68,0.11c-0.2,0.07-0.34,0.17-0.45,0.3c-0.1,0.13-0.18,0.3-0.22,0.51l0.5,0.07c0.05-0.21,0.14-0.36,0.25-0.44
	c0.11-0.08,0.29-0.13,0.53-0.13c0.26,0,0.45,0.06,0.58,0.17c0.1,0.08,0.14,0.23,0.14,0.44c0,0.02,0,0.06,0,0.13
	c-0.19,0.07-0.49,0.13-0.9,0.17c-0.2,0.02-0.35,0.05-0.45,0.08c-0.14,0.04-0.26,0.09-0.36,0.17c-0.11,0.07-0.2,0.17-0.26,0.29
	c-0.07,0.12-0.1,0.25-0.1,0.4c0,0.25,0.09,0.45,0.26,0.61c0.18,0.16,0.43,0.24,0.76,0.24c0.2,0,0.39-0.03,0.56-0.1
	c0.17-0.07,0.35-0.18,0.54-0.34C78.44,190.78,78.48,190.9,78.53,191.01L78.53,191.01L78.53,191.01z M78.39,189.69
	c0,0.22-0.03,0.39-0.08,0.51c-0.07,0.15-0.18,0.27-0.33,0.35c-0.15,0.09-0.33,0.13-0.52,0.13c-0.2,0-0.35-0.05-0.45-0.14
	c-0.1-0.09-0.15-0.2-0.15-0.34c0-0.09,0.02-0.17,0.07-0.24c0.05-0.07,0.11-0.13,0.2-0.16c0.09-0.04,0.23-0.07,0.44-0.1
	c0.37-0.05,0.64-0.12,0.83-0.19V189.69L78.39,189.69z"/>
<path class="st5" d="M82.11,167.84c0.14,0.22,0.34,0.38,0.59,0.49c0.25,0.11,0.57,0.16,0.94,0.16c0.29,0,0.56-0.05,0.8-0.16
	c0.24-0.11,0.42-0.26,0.54-0.45c0.13-0.19,0.19-0.4,0.19-0.62c0-0.22-0.06-0.42-0.17-0.59c-0.11-0.17-0.29-0.31-0.53-0.42
	c-0.17-0.08-0.47-0.16-0.91-0.26c-0.44-0.1-0.72-0.2-0.82-0.29c-0.11-0.1-0.16-0.22-0.16-0.37c0-0.17,0.08-0.32,0.23-0.44
	c0.15-0.12,0.39-0.18,0.72-0.18c0.32,0,0.56,0.07,0.72,0.2c0.16,0.13,0.26,0.33,0.29,0.59l0.52-0.04c-0.01-0.24-0.08-0.46-0.2-0.65
	c-0.13-0.19-0.31-0.34-0.54-0.43c-0.23-0.1-0.5-0.15-0.81-0.15c-0.28,0-0.53,0.05-0.76,0.14c-0.23,0.09-0.4,0.23-0.52,0.41
	c-0.12,0.18-0.18,0.38-0.18,0.58c0,0.19,0.05,0.36,0.14,0.51c0.1,0.15,0.24,0.28,0.44,0.38c0.15,0.08,0.42,0.17,0.8,0.26
	c0.38,0.09,0.62,0.16,0.73,0.2c0.17,0.07,0.3,0.15,0.37,0.24c0.08,0.1,0.11,0.21,0.11,0.34c0,0.13-0.04,0.25-0.12,0.35
	c-0.08,0.11-0.2,0.19-0.36,0.25c-0.16,0.06-0.34,0.09-0.55,0.09c-0.23,0-0.45-0.04-0.63-0.12c-0.19-0.08-0.33-0.19-0.42-0.32
	c-0.09-0.13-0.15-0.3-0.17-0.51l-0.52,0.05C81.89,167.37,81.96,167.62,82.11,167.84L82.11,167.84z M86.04,168.08
	c0.26,0.27,0.6,0.4,1.01,0.4c0.26,0,0.5-0.06,0.72-0.18c0.22-0.12,0.39-0.29,0.5-0.51c0.12-0.22,0.17-0.52,0.17-0.91
	c0-0.47-0.13-0.85-0.39-1.12c-0.26-0.27-0.6-0.4-1.01-0.4c-0.37,0-0.68,0.11-0.94,0.33c-0.31,0.27-0.46,0.68-0.46,1.23
	C85.66,167.43,85.79,167.82,86.04,168.08L86.04,168.08z M86.43,166.07c0.17-0.19,0.38-0.28,0.63-0.28c0.25,0,0.46,0.1,0.63,0.29
	c0.17,0.19,0.25,0.47,0.25,0.84c0,0.39-0.08,0.68-0.25,0.88c-0.17,0.19-0.38,0.29-0.63,0.29c-0.25,0-0.46-0.1-0.63-0.29
	c-0.17-0.19-0.25-0.48-0.25-0.86S86.26,166.26,86.43,166.07L86.43,166.07z M91.46,168.42v-2.99h-0.51v1.6
	c0,0.26-0.03,0.45-0.08,0.58c-0.06,0.13-0.15,0.24-0.28,0.32c-0.13,0.08-0.28,0.12-0.43,0.12s-0.28-0.04-0.38-0.11
	c-0.1-0.08-0.17-0.18-0.2-0.31c-0.02-0.09-0.03-0.27-0.03-0.53v-1.66h-0.51v1.85c0,0.22,0.01,0.37,0.03,0.47
	c0.03,0.15,0.08,0.27,0.16,0.38c0.07,0.1,0.19,0.19,0.34,0.25c0.15,0.07,0.32,0.1,0.49,0.1c0.4,0,0.72-0.17,0.95-0.51v0.44H91.46
	L91.46,168.42z M93.14,167.99c-0.08,0-0.13-0.01-0.17-0.04c-0.04-0.02-0.07-0.06-0.09-0.1c-0.02-0.04-0.03-0.13-0.03-0.28v-1.75
	h0.51v-0.39h-0.51v-1.04l-0.5,0.3v0.74h-0.37v0.39h0.37v1.72c0,0.3,0.02,0.5,0.06,0.6c0.04,0.09,0.11,0.17,0.21,0.23
	c0.1,0.06,0.24,0.09,0.43,0.09c0.11,0,0.24-0.02,0.38-0.05l-0.07-0.45C93.27,167.98,93.2,167.99,93.14,167.99L93.14,167.99
	L93.14,167.99z M94.36,168.42v-1.64c0-0.23,0.03-0.42,0.08-0.55c0.06-0.13,0.15-0.24,0.28-0.32c0.13-0.08,0.27-0.12,0.42-0.12
	c0.2,0,0.36,0.06,0.47,0.17s0.16,0.3,0.16,0.55v1.89h0.51v-1.89c0-0.29-0.04-0.52-0.11-0.67c-0.07-0.15-0.19-0.27-0.35-0.36
	c-0.16-0.09-0.36-0.13-0.58-0.13c-0.36,0-0.66,0.14-0.89,0.41v-1.48h-0.51v4.13H94.36L94.36,168.42z M98.86,168.42l0.45-1.25h1.73
	l0.48,1.25h0.62l-1.69-4.13h-0.59l-1.58,4.13H98.86L98.86,168.42z M99.92,165.51c0.1-0.26,0.17-0.52,0.22-0.79
	c0.06,0.22,0.16,0.51,0.29,0.86l0.43,1.14h-1.4L99.92,165.51L99.92,165.51z M103.02,168.42v-1.55c0-0.27,0.03-0.48,0.08-0.62
	c0.05-0.14,0.14-0.25,0.26-0.33s0.25-0.11,0.4-0.11c0.19,0,0.32,0.06,0.41,0.17c0.08,0.11,0.12,0.28,0.12,0.51v1.94h0.51v-1.74
	c0-0.31,0.07-0.53,0.21-0.67c0.14-0.14,0.31-0.21,0.52-0.21c0.12,0,0.22,0.03,0.3,0.08c0.09,0.05,0.15,0.13,0.18,0.22
	c0.03,0.09,0.05,0.23,0.05,0.44v1.88h0.5v-2.05c0-0.34-0.08-0.59-0.24-0.76c-0.16-0.16-0.39-0.25-0.68-0.25
	c-0.38,0-0.69,0.17-0.92,0.52c-0.06-0.17-0.16-0.29-0.3-0.39c-0.14-0.09-0.32-0.14-0.54-0.14c-0.2,0-0.38,0.04-0.53,0.13
	c-0.16,0.09-0.28,0.21-0.37,0.35v-0.42h-0.45v2.99H103.02L103.02,168.42z M109.04,167.92c-0.13,0.1-0.29,0.15-0.48,0.15
	c-0.25,0-0.46-0.09-0.62-0.26c-0.17-0.17-0.26-0.43-0.28-0.75h2.23c0-0.06,0-0.11,0-0.14c0-0.49-0.13-0.88-0.38-1.15
	c-0.25-0.27-0.58-0.41-0.98-0.41c-0.41,0-0.75,0.14-1.01,0.42c-0.26,0.28-0.39,0.67-0.39,1.17c0,0.49,0.13,0.86,0.38,1.13
	c0.26,0.27,0.6,0.4,1.04,0.4c0.35,0,0.63-0.08,0.86-0.25c0.22-0.17,0.38-0.41,0.46-0.71l-0.52-0.06
	C109.28,167.67,109.18,167.83,109.04,167.92L109.04,167.92z M107.96,166.01c0.16-0.16,0.35-0.23,0.59-0.23
	c0.26,0,0.47,0.1,0.63,0.29c0.11,0.13,0.17,0.31,0.19,0.57h-1.67C107.71,166.38,107.8,166.17,107.96,166.01L107.96,166.01z
	 M111.02,168.42v-1.56c0-0.21,0.03-0.41,0.08-0.59c0.04-0.12,0.1-0.21,0.19-0.28c0.09-0.07,0.19-0.1,0.3-0.1
	c0.12,0,0.25,0.04,0.37,0.11l0.17-0.47c-0.18-0.11-0.35-0.16-0.52-0.16c-0.12,0-0.23,0.03-0.33,0.1c-0.1,0.07-0.21,0.21-0.32,0.42
	v-0.45h-0.46v2.99H111.02L111.02,168.42z M112.94,164.88v-0.58h-0.51v0.58H112.94L112.94,164.88z M112.94,168.42v-2.99h-0.51v2.99
	H112.94L112.94,168.42z M115.41,167.89c-0.13,0.12-0.3,0.18-0.5,0.18c-0.25,0-0.45-0.09-0.6-0.27c-0.15-0.18-0.23-0.47-0.23-0.88
	c0-0.4,0.08-0.69,0.24-0.87c0.16-0.18,0.37-0.27,0.62-0.27c0.17,0,0.31,0.05,0.43,0.15c0.12,0.1,0.2,0.25,0.25,0.45l0.49-0.08
	c-0.06-0.3-0.19-0.54-0.4-0.7c-0.21-0.16-0.47-0.25-0.8-0.25c-0.26,0-0.49,0.06-0.71,0.18c-0.22,0.12-0.38,0.3-0.49,0.54
	s-0.16,0.52-0.16,0.85c0,0.5,0.12,0.88,0.37,1.15c0.25,0.27,0.58,0.4,0.99,0.4c0.33,0,0.6-0.1,0.83-0.29
	c0.22-0.19,0.36-0.46,0.42-0.81l-0.5-0.06C115.63,167.58,115.55,167.77,115.41,167.89L115.41,167.89z M118.65,168.42h0.53
	c-0.06-0.11-0.11-0.23-0.13-0.36c-0.02-0.12-0.03-0.42-0.03-0.89v-0.68c0-0.23-0.01-0.38-0.03-0.47c-0.03-0.14-0.08-0.25-0.16-0.34
	c-0.08-0.09-0.19-0.17-0.35-0.23c-0.16-0.06-0.37-0.09-0.62-0.09c-0.26,0-0.48,0.04-0.68,0.11c-0.2,0.07-0.34,0.17-0.45,0.3
	c-0.1,0.13-0.18,0.3-0.22,0.51l0.5,0.07c0.05-0.21,0.14-0.36,0.25-0.44c0.11-0.08,0.29-0.13,0.53-0.13c0.26,0,0.45,0.06,0.58,0.17
	c0.1,0.08,0.14,0.23,0.14,0.44c0,0.02,0,0.06,0,0.13c-0.19,0.07-0.49,0.13-0.9,0.17c-0.2,0.02-0.35,0.05-0.45,0.08
	c-0.14,0.04-0.26,0.09-0.36,0.17c-0.11,0.07-0.2,0.17-0.26,0.29c-0.07,0.12-0.1,0.25-0.1,0.4c0,0.25,0.09,0.45,0.26,0.61
	c0.18,0.16,0.43,0.24,0.76,0.24c0.2,0,0.39-0.03,0.56-0.1c0.17-0.07,0.35-0.18,0.54-0.34C118.56,168.19,118.6,168.31,118.65,168.42
	L118.65,168.42L118.65,168.42z M118.51,167.1c0,0.22-0.03,0.39-0.08,0.51c-0.07,0.15-0.18,0.27-0.33,0.35
	c-0.15,0.09-0.33,0.13-0.52,0.13c-0.2,0-0.35-0.05-0.45-0.14c-0.1-0.09-0.15-0.2-0.15-0.34c0-0.09,0.02-0.17,0.07-0.24
	c0.05-0.07,0.11-0.13,0.2-0.16c0.09-0.04,0.23-0.07,0.44-0.1c0.37-0.05,0.64-0.12,0.83-0.19V167.1L118.51,167.1z"/>
<path class="st6" d="M28.95,139.8c0.33,0.42,0.8,0.63,1.38,0.63c0.45,0,0.81-0.12,1.11-0.36c0.29-0.24,0.51-0.58,0.66-1.02
	c0.15-0.44,0.22-1.01,0.22-1.73c0-0.6-0.05-1.08-0.14-1.44c-0.09-0.36-0.22-0.66-0.38-0.9c-0.16-0.25-0.36-0.44-0.61-0.57
	c-0.25-0.13-0.53-0.2-0.86-0.2c-0.44,0-0.81,0.12-1.1,0.36c-0.29,0.24-0.51,0.58-0.66,1.01c-0.15,0.44-0.22,1.02-0.22,1.74
	C28.35,138.47,28.55,139.29,28.95,139.8L28.95,139.8L28.95,139.8z M29.5,135.27c0.2-0.29,0.48-0.44,0.82-0.44
	c0.35,0,0.64,0.16,0.87,0.49c0.23,0.33,0.35,0.99,0.35,2c0,1-0.12,1.66-0.35,1.99c-0.23,0.33-0.52,0.5-0.87,0.5
	c-0.34,0-0.63-0.17-0.87-0.5c-0.23-0.33-0.35-1-0.35-1.99C29.12,136.32,29.25,135.64,29.5,135.27L29.5,135.27L29.5,135.27z
	 M34.35,140.32v-0.85H33.5v0.85H34.35L34.35,140.32z M36.04,139.8c0.33,0.42,0.8,0.63,1.38,0.63c0.45,0,0.81-0.12,1.11-0.36
	c0.29-0.24,0.51-0.58,0.66-1.02c0.15-0.44,0.22-1.01,0.22-1.73c0-0.6-0.05-1.08-0.14-1.44c-0.09-0.36-0.22-0.66-0.38-0.9
	c-0.16-0.25-0.36-0.44-0.61-0.57c-0.25-0.13-0.53-0.2-0.86-0.2c-0.44,0-0.81,0.12-1.1,0.36c-0.29,0.24-0.51,0.58-0.66,1.01
	c-0.15,0.44-0.22,1.02-0.22,1.74C35.44,138.47,35.64,139.29,36.04,139.8L36.04,139.8L36.04,139.8z M36.59,135.27
	c0.2-0.29,0.48-0.44,0.82-0.44c0.35,0,0.64,0.16,0.87,0.49c0.23,0.33,0.35,0.99,0.35,2c0,1-0.12,1.66-0.35,1.99
	c-0.23,0.33-0.52,0.5-0.87,0.5c-0.34,0-0.63-0.17-0.87-0.5c-0.23-0.33-0.35-1-0.35-1.99C36.21,136.32,36.33,135.64,36.59,135.27
	L36.59,135.27L36.59,135.27z"/>
<path class="st6" d="M28.95,71.03c0.33,0.42,0.8,0.63,1.38,0.63c0.45,0,0.81-0.12,1.11-0.36c0.29-0.24,0.51-0.58,0.66-1.02
	c0.15-0.44,0.22-1.01,0.22-1.73c0-0.6-0.05-1.08-0.14-1.44c-0.09-0.36-0.22-0.66-0.38-0.9c-0.16-0.25-0.36-0.44-0.61-0.57
	c-0.25-0.13-0.53-0.2-0.86-0.2c-0.44,0-0.81,0.12-1.1,0.36c-0.29,0.24-0.51,0.58-0.66,1.01c-0.15,0.44-0.22,1.02-0.22,1.74
	C28.35,69.7,28.55,70.53,28.95,71.03L28.95,71.03L28.95,71.03z M29.5,66.5c0.2-0.29,0.48-0.44,0.82-0.44c0.35,0,0.64,0.16,0.87,0.49
	c0.23,0.33,0.35,0.99,0.35,2c0,1-0.12,1.66-0.35,1.99c-0.23,0.33-0.52,0.5-0.87,0.5c-0.34,0-0.63-0.17-0.87-0.5
	c-0.23-0.33-0.35-1-0.35-1.99C29.12,67.56,29.25,66.87,29.5,66.5L29.5,66.5L29.5,66.5z M34.35,71.56v-0.85H33.5v0.85H34.35
	L34.35,71.56z M36.04,71.2c0.35,0.31,0.8,0.46,1.36,0.46c0.68,0,1.21-0.25,1.6-0.74c0.32-0.4,0.48-0.88,0.48-1.43
	c0-0.58-0.18-1.05-0.55-1.42c-0.37-0.37-0.81-0.55-1.34-0.55c-0.4,0-0.78,0.13-1.15,0.38l0.33-1.64h2.43v-0.71h-3.03l-0.59,3.13
	l0.7,0.09c0.11-0.17,0.26-0.32,0.46-0.43c0.19-0.11,0.41-0.16,0.65-0.16c0.39,0,0.7,0.12,0.94,0.37c0.24,0.25,0.36,0.58,0.36,1.01
	c0,0.45-0.12,0.81-0.37,1.08c-0.25,0.27-0.55,0.41-0.91,0.41c-0.3,0-0.55-0.1-0.77-0.29c-0.21-0.19-0.35-0.48-0.4-0.86l-0.78,0.07
	C35.49,70.48,35.69,70.89,36.04,71.2L36.04,71.2z"/>
<path class="st6" d="M40.2,204.95c0.33,0.42,0.8,0.63,1.38,0.63c0.45,0,0.81-0.12,1.11-0.36c0.29-0.24,0.51-0.58,0.66-1.02
	c0.15-0.44,0.22-1.01,0.22-1.73c0-0.6-0.05-1.08-0.14-1.44c-0.09-0.36-0.22-0.66-0.38-0.9c-0.16-0.25-0.36-0.44-0.61-0.57
	c-0.25-0.13-0.53-0.2-0.86-0.2c-0.44,0-0.81,0.12-1.1,0.36c-0.29,0.24-0.51,0.58-0.66,1.01c-0.15,0.44-0.22,1.02-0.22,1.74
	C39.6,203.61,39.8,204.44,40.2,204.95L40.2,204.95L40.2,204.95z M40.75,200.42c0.2-0.29,0.48-0.44,0.82-0.44
	c0.35,0,0.64,0.16,0.87,0.49c0.23,0.33,0.35,0.99,0.35,2c0,1-0.12,1.66-0.35,1.99c-0.23,0.33-0.52,0.5-0.87,0.5
	c-0.34,0-0.63-0.17-0.87-0.5c-0.23-0.33-0.35-1-0.35-1.99C40.37,201.47,40.5,200.79,40.75,200.42L40.75,200.42L40.75,200.42z
	 M47.09,204.74c-0.19,0.14-0.43,0.22-0.7,0.22c-0.37,0-0.68-0.13-0.92-0.39c-0.25-0.26-0.38-0.63-0.41-1.11h3.29
	c0-0.09,0-0.15,0-0.2c0-0.73-0.19-1.29-0.56-1.69c-0.37-0.4-0.85-0.6-1.44-0.6c-0.61,0-1.1,0.2-1.49,0.61
	c-0.38,0.41-0.57,0.99-0.57,1.73c0,0.72,0.19,1.27,0.57,1.67c0.38,0.4,0.89,0.6,1.53,0.6c0.51,0,0.93-0.12,1.26-0.37
	c0.33-0.25,0.55-0.6,0.68-1.05l-0.77-0.1C47.44,204.37,47.28,204.6,47.09,204.74L47.09,204.74z M45.49,201.92
	c0.23-0.23,0.52-0.34,0.87-0.34c0.38,0,0.69,0.14,0.93,0.43c0.15,0.19,0.25,0.46,0.28,0.83H45.1
	C45.12,202.46,45.25,202.15,45.49,201.92L45.49,201.92z M51.54,204.49v-1.67h1.66v-0.7h-1.66v-1.66h-0.71v1.66h-1.66v0.7h1.66v1.67
	H51.54L51.54,204.49z M54.62,204.95c0.33,0.42,0.8,0.63,1.38,0.63c0.45,0,0.81-0.12,1.11-0.36c0.29-0.24,0.51-0.58,0.66-1.02
	c0.15-0.44,0.22-1.01,0.22-1.73c0-0.6-0.05-1.08-0.14-1.44c-0.09-0.36-0.22-0.66-0.38-0.9c-0.16-0.25-0.36-0.44-0.61-0.57
	c-0.25-0.13-0.53-0.2-0.86-0.2c-0.44,0-0.81,0.12-1.1,0.36c-0.29,0.24-0.51,0.58-0.66,1.01c-0.15,0.44-0.22,1.02-0.22,1.74
	C54.02,203.61,54.22,204.44,54.62,204.95L54.62,204.95L54.62,204.95z M55.17,200.42c0.2-0.29,0.48-0.44,0.82-0.44
	c0.35,0,0.64,0.16,0.87,0.49c0.23,0.33,0.35,0.99,0.35,2c0,1-0.12,1.66-0.35,1.99c-0.23,0.33-0.52,0.5-0.87,0.5
	c-0.34,0-0.63-0.17-0.87-0.5c-0.23-0.33-0.35-1-0.35-1.99C54.79,201.47,54.91,200.79,55.17,200.42L55.17,200.42L55.17,200.42z
	 M59.35,204.95c0.33,0.42,0.8,0.63,1.38,0.63c0.45,0,0.81-0.12,1.11-0.36c0.29-0.24,0.51-0.58,0.66-1.02
	c0.15-0.44,0.22-1.01,0.22-1.73c0-0.6-0.05-1.08-0.14-1.44c-0.09-0.36-0.22-0.66-0.38-0.9c-0.16-0.25-0.36-0.44-0.61-0.57
	c-0.25-0.13-0.53-0.2-0.86-0.2c-0.44,0-0.81,0.12-1.1,0.36c-0.29,0.24-0.51,0.58-0.66,1.01c-0.15,0.44-0.22,1.02-0.22,1.74
	C58.74,203.61,58.95,204.44,59.35,204.95L59.35,204.95L59.35,204.95z M59.9,200.42c0.2-0.29,0.48-0.44,0.82-0.44
	c0.35,0,0.64,0.16,0.87,0.49c0.23,0.33,0.35,0.99,0.35,2c0,1-0.12,1.66-0.35,1.99c-0.23,0.33-0.52,0.5-0.87,0.5
	c-0.34,0-0.63-0.17-0.87-0.5c-0.23-0.33-0.35-1-0.35-1.99C59.51,201.47,59.64,200.79,59.9,200.42L59.9,200.42L59.9,200.42z"/>
<path class="st6" d="M79.18,199.36H78.7c-0.13,0.26-0.35,0.53-0.66,0.81c-0.31,0.28-0.68,0.52-1.1,0.71v0.72
	c0.23-0.09,0.49-0.21,0.79-0.39c0.29-0.17,0.53-0.34,0.71-0.51v4.76h0.75V199.36L79.18,199.36z M83.86,204.74
	c-0.19,0.14-0.43,0.22-0.7,0.22c-0.37,0-0.68-0.13-0.92-0.39c-0.25-0.26-0.38-0.63-0.41-1.11h3.29c0-0.09,0-0.15,0-0.2
	c0-0.73-0.19-1.29-0.56-1.69c-0.37-0.4-0.85-0.6-1.44-0.6c-0.61,0-1.1,0.2-1.49,0.61c-0.38,0.41-0.57,0.99-0.57,1.73
	c0,0.72,0.19,1.27,0.57,1.67c0.38,0.4,0.89,0.6,1.53,0.6c0.51,0,0.93-0.12,1.26-0.37c0.33-0.25,0.55-0.6,0.68-1.05l-0.77-0.1
	C84.2,204.37,84.05,204.6,83.86,204.74L83.86,204.74z M82.25,201.92c0.23-0.23,0.52-0.34,0.87-0.34c0.38,0,0.69,0.14,0.93,0.43
	c0.15,0.19,0.25,0.46,0.28,0.83h-2.46C81.89,202.46,82.02,202.15,82.25,201.92L82.25,201.92z M88.3,204.49v-1.67h1.66v-0.7H88.3
	v-1.66H87.6v1.66h-1.66v0.7h1.66v1.67H88.3L88.3,204.49z M91.38,204.95c0.33,0.42,0.8,0.63,1.38,0.63c0.45,0,0.81-0.12,1.11-0.36
	c0.29-0.24,0.51-0.58,0.66-1.02c0.15-0.44,0.22-1.01,0.22-1.73c0-0.6-0.05-1.08-0.14-1.44c-0.09-0.36-0.22-0.66-0.38-0.9
	c-0.16-0.25-0.36-0.44-0.61-0.57c-0.25-0.13-0.53-0.2-0.86-0.2c-0.44,0-0.81,0.12-1.1,0.36c-0.29,0.24-0.51,0.58-0.66,1.01
	c-0.15,0.44-0.22,1.02-0.22,1.74C90.78,203.61,90.98,204.44,91.38,204.95L91.38,204.95L91.38,204.95z M91.94,200.42
	c0.2-0.29,0.48-0.44,0.82-0.44c0.35,0,0.64,0.16,0.87,0.49c0.23,0.33,0.35,0.99,0.35,2c0,1-0.12,1.66-0.35,1.99
	c-0.23,0.33-0.52,0.5-0.87,0.5c-0.34,0-0.63-0.17-0.87-0.5c-0.23-0.33-0.35-1-0.35-1.99C91.55,201.47,91.68,200.79,91.94,200.42
	L91.94,200.42L91.94,200.42z M96.17,205.18c0.3,0.26,0.69,0.4,1.17,0.4c0.45,0,0.84-0.12,1.17-0.36c0.33-0.24,0.58-0.59,0.75-1.05
	c0.17-0.46,0.25-1.08,0.25-1.86c0-0.75-0.09-1.32-0.26-1.71s-0.42-0.7-0.75-0.91c-0.33-0.21-0.69-0.32-1.09-0.32
	c-0.55,0-1,0.19-1.37,0.56c-0.36,0.38-0.55,0.87-0.55,1.49c0,0.6,0.17,1.08,0.52,1.44s0.77,0.55,1.28,0.55
	c0.3,0,0.58-0.07,0.84-0.22c0.26-0.15,0.46-0.34,0.61-0.58c0,0.07,0,0.12,0,0.15c0,0.31-0.04,0.61-0.11,0.91s-0.17,0.54-0.28,0.71
	c-0.11,0.18-0.25,0.32-0.43,0.42c-0.17,0.11-0.37,0.16-0.6,0.16c-0.27,0-0.49-0.08-0.66-0.23c-0.17-0.15-0.29-0.4-0.35-0.73
	l-0.72,0.07C95.68,204.54,95.86,204.92,96.17,205.18L96.17,205.18z M98.35,202.39c-0.22,0.24-0.51,0.36-0.85,0.36
	c-0.34,0-0.63-0.12-0.87-0.36c-0.23-0.24-0.35-0.56-0.35-0.94c0-0.43,0.12-0.78,0.37-1.05c0.25-0.27,0.54-0.41,0.87-0.41
	c0.32,0,0.6,0.13,0.82,0.38c0.23,0.25,0.34,0.59,0.34,1.02C98.68,201.81,98.57,202.14,98.35,202.39L98.35,202.39z"/>
<path class="st6" d="M114.08,204.75c0.08-0.14,0.19-0.27,0.32-0.4c0.13-0.13,0.42-0.39,0.86-0.77c0.54-0.45,0.92-0.81,1.15-1.07
	c0.23-0.26,0.4-0.51,0.5-0.74c0.1-0.24,0.15-0.47,0.15-0.72c0-0.48-0.17-0.88-0.51-1.2s-0.8-0.49-1.39-0.49
	c-0.58,0-1.04,0.15-1.38,0.45c-0.34,0.3-0.54,0.74-0.59,1.31l0.77,0.08c0-0.38,0.11-0.68,0.33-0.9s0.5-0.32,0.86-0.32
	c0.34,0,0.62,0.1,0.83,0.31s0.32,0.45,0.32,0.75c0,0.28-0.12,0.58-0.35,0.9c-0.23,0.32-0.68,0.75-1.34,1.29
	c-0.43,0.35-0.75,0.66-0.98,0.92c-0.23,0.27-0.39,0.54-0.49,0.81c-0.06,0.17-0.09,0.34-0.09,0.52h4.02v-0.72H114.08L114.08,204.75z
	 M120.63,204.74c-0.19,0.14-0.43,0.22-0.7,0.22c-0.37,0-0.68-0.13-0.92-0.39c-0.25-0.26-0.38-0.63-0.41-1.11h3.29
	c0-0.09,0-0.15,0-0.2c0-0.73-0.19-1.29-0.56-1.69c-0.37-0.4-0.85-0.6-1.44-0.6c-0.61,0-1.1,0.2-1.49,0.61
	c-0.38,0.41-0.57,0.99-0.57,1.73c0,0.72,0.19,1.27,0.57,1.67c0.38,0.4,0.89,0.6,1.53,0.6c0.51,0,0.93-0.12,1.26-0.37
	c0.33-0.25,0.55-0.6,0.68-1.05l-0.77-0.1C120.97,204.37,120.82,204.6,120.63,204.74L120.63,204.74z M119.02,201.92
	c0.23-0.23,0.52-0.34,0.87-0.34c0.38,0,0.69,0.14,0.93,0.43c0.15,0.19,0.25,0.46,0.28,0.83h-2.46
	C118.66,202.46,118.79,202.15,119.02,201.92L119.02,201.92z M125.07,204.49v-1.67h1.66v-0.7h-1.66v-1.66h-0.71v1.66h-1.66v0.7h1.66
	v1.67H125.07L125.07,204.49z M128.15,204.95c0.33,0.42,0.8,0.63,1.38,0.63c0.45,0,0.81-0.12,1.11-0.36
	c0.29-0.24,0.51-0.58,0.66-1.02c0.15-0.44,0.22-1.01,0.22-1.73c0-0.6-0.05-1.08-0.14-1.44c-0.09-0.36-0.22-0.66-0.38-0.9
	c-0.16-0.25-0.36-0.44-0.61-0.57c-0.25-0.13-0.53-0.2-0.86-0.2c-0.44,0-0.81,0.12-1.1,0.36c-0.29,0.24-0.51,0.58-0.66,1.01
	c-0.15,0.44-0.22,1.02-0.22,1.74C127.55,203.61,127.75,204.44,128.15,204.95L128.15,204.95L128.15,204.95z M128.71,200.42
	c0.2-0.29,0.48-0.44,0.82-0.44c0.35,0,0.64,0.16,0.87,0.49c0.23,0.33,0.35,0.99,0.35,2c0,1-0.12,1.66-0.35,1.99
	c-0.23,0.33-0.52,0.5-0.87,0.5c-0.34,0-0.63-0.17-0.87-0.5c-0.23-0.33-0.35-1-0.35-1.99C128.32,201.47,128.45,200.79,128.71,200.42
	L128.71,200.42L128.71,200.42z M132.94,205.18c0.3,0.26,0.69,0.4,1.17,0.4c0.45,0,0.84-0.12,1.17-0.36
	c0.33-0.24,0.58-0.59,0.75-1.05c0.17-0.46,0.25-1.08,0.25-1.86c0-0.75-0.09-1.32-0.26-1.71s-0.42-0.7-0.75-0.91
	c-0.33-0.21-0.69-0.32-1.09-0.32c-0.55,0-1,0.19-1.37,0.56c-0.36,0.38-0.55,0.87-0.55,1.49c0,0.6,0.17,1.08,0.52,1.44
	s0.77,0.55,1.28,0.55c0.3,0,0.58-0.07,0.84-0.22c0.26-0.15,0.46-0.34,0.61-0.58c0,0.07,0,0.12,0,0.15c0,0.31-0.04,0.61-0.11,0.91
	s-0.17,0.54-0.28,0.71c-0.11,0.18-0.25,0.32-0.43,0.42c-0.17,0.11-0.37,0.16-0.6,0.16c-0.27,0-0.49-0.08-0.66-0.23
	c-0.17-0.15-0.29-0.4-0.35-0.73l-0.72,0.07C132.45,204.54,132.63,204.92,132.94,205.18L132.94,205.18z M135.12,202.39
	c-0.22,0.24-0.51,0.36-0.85,0.36c-0.34,0-0.63-0.12-0.87-0.36c-0.23-0.24-0.35-0.56-0.35-0.94c0-0.43,0.12-0.78,0.37-1.05
	c0.25-0.27,0.54-0.41,0.87-0.41c0.32,0,0.6,0.13,0.82,0.38c0.23,0.25,0.34,0.59,0.34,1.02
	C135.45,201.81,135.34,202.14,135.12,202.39L135.12,202.39z"/>
<path class="st6" d="M150.51,205.1c0.35,0.32,0.8,0.48,1.33,0.48c0.59,0,1.08-0.18,1.47-0.55c0.39-0.37,0.58-0.82,0.58-1.35
	c0-0.39-0.1-0.72-0.3-0.98s-0.48-0.43-0.84-0.52c0.28-0.13,0.49-0.3,0.63-0.51s0.21-0.46,0.21-0.72c0-0.28-0.07-0.54-0.22-0.78
	c-0.15-0.25-0.36-0.44-0.64-0.58c-0.28-0.14-0.59-0.21-0.92-0.21c-0.48,0-0.88,0.14-1.21,0.41c-0.32,0.28-0.53,0.66-0.62,1.16
	l0.75,0.13c0.06-0.37,0.18-0.64,0.37-0.82c0.19-0.18,0.44-0.27,0.73-0.27c0.29,0,0.53,0.09,0.72,0.27c0.19,0.18,0.28,0.41,0.28,0.68
	c0,0.35-0.13,0.6-0.38,0.77c-0.25,0.17-0.54,0.25-0.86,0.25c-0.03,0-0.07,0-0.12-0.01l-0.08,0.66c0.21-0.06,0.39-0.08,0.53-0.08
	c0.35,0,0.63,0.11,0.85,0.33c0.22,0.22,0.34,0.51,0.34,0.85c0,0.36-0.12,0.66-0.36,0.9c-0.24,0.24-0.54,0.37-0.89,0.37
	c-0.3,0-0.55-0.09-0.75-0.28c-0.21-0.19-0.35-0.49-0.44-0.92l-0.75,0.1C149.95,204.37,150.15,204.79,150.51,205.1L150.51,205.1z
	 M157.39,204.74c-0.19,0.14-0.43,0.22-0.7,0.22c-0.37,0-0.68-0.13-0.92-0.39c-0.25-0.26-0.38-0.63-0.41-1.11h3.29
	c0-0.09,0-0.15,0-0.2c0-0.73-0.19-1.29-0.56-1.69c-0.37-0.4-0.85-0.6-1.44-0.6c-0.61,0-1.1,0.2-1.49,0.61
	c-0.38,0.41-0.57,0.99-0.57,1.73c0,0.72,0.19,1.27,0.57,1.67c0.38,0.4,0.89,0.6,1.53,0.6c0.51,0,0.93-0.12,1.26-0.37
	c0.33-0.25,0.55-0.6,0.68-1.05l-0.77-0.1C157.74,204.37,157.58,204.6,157.39,204.74L157.39,204.74z M155.79,201.92
	c0.23-0.23,0.52-0.34,0.87-0.34c0.38,0,0.69,0.14,0.93,0.43c0.15,0.19,0.25,0.46,0.28,0.83h-2.46
	C155.42,202.46,155.55,202.15,155.79,201.92L155.79,201.92z M161.84,204.49v-1.67h1.66v-0.7h-1.66v-1.66h-0.71v1.66h-1.66v0.7h1.66
	v1.67H161.84L161.84,204.49z M164.92,204.95c0.33,0.42,0.8,0.63,1.38,0.63c0.45,0,0.81-0.12,1.11-0.36
	c0.29-0.24,0.51-0.58,0.66-1.02c0.15-0.44,0.22-1.01,0.22-1.73c0-0.6-0.05-1.08-0.14-1.44c-0.09-0.36-0.22-0.66-0.38-0.9
	c-0.16-0.25-0.36-0.44-0.61-0.57c-0.25-0.13-0.53-0.2-0.86-0.2c-0.44,0-0.81,0.12-1.1,0.36c-0.29,0.24-0.51,0.58-0.66,1.01
	c-0.15,0.44-0.22,1.02-0.22,1.74C164.32,203.61,164.52,204.44,164.92,204.95L164.92,204.95L164.92,204.95z M165.47,200.42
	c0.2-0.29,0.48-0.44,0.82-0.44c0.35,0,0.64,0.16,0.87,0.49c0.23,0.33,0.35,0.99,0.35,2c0,1-0.12,1.66-0.35,1.99
	c-0.23,0.33-0.52,0.5-0.87,0.5c-0.34,0-0.63-0.17-0.87-0.5c-0.23-0.33-0.35-1-0.35-1.99C165.09,201.47,165.21,200.79,165.47,200.42
	L165.47,200.42L165.47,200.42z M169.7,205.18c0.3,0.26,0.69,0.4,1.17,0.4c0.45,0,0.84-0.12,1.17-0.36c0.33-0.24,0.58-0.59,0.75-1.05
	c0.17-0.46,0.25-1.08,0.25-1.86c0-0.75-0.09-1.32-0.26-1.71s-0.42-0.7-0.75-0.91c-0.33-0.21-0.69-0.32-1.09-0.32
	c-0.55,0-1,0.19-1.37,0.56c-0.36,0.38-0.55,0.87-0.55,1.49c0,0.6,0.17,1.08,0.52,1.44s0.77,0.55,1.28,0.55
	c0.3,0,0.58-0.07,0.84-0.22c0.26-0.15,0.46-0.34,0.61-0.58c0,0.07,0,0.12,0,0.15c0,0.31-0.04,0.61-0.11,0.91s-0.17,0.54-0.28,0.71
	c-0.11,0.18-0.25,0.32-0.43,0.42c-0.17,0.11-0.37,0.16-0.6,0.16c-0.27,0-0.49-0.08-0.66-0.23c-0.17-0.15-0.29-0.4-0.35-0.73
	l-0.72,0.07C169.22,204.54,169.4,204.92,169.7,205.18L169.7,205.18z M171.88,202.39c-0.22,0.24-0.51,0.36-0.85,0.36
	c-0.34,0-0.63-0.12-0.87-0.36c-0.23-0.24-0.35-0.56-0.35-0.94c0-0.43,0.12-0.78,0.37-1.05c0.25-0.27,0.54-0.41,0.87-0.41
	c0.32,0,0.6,0.13,0.82,0.38c0.23,0.25,0.34,0.59,0.34,1.02C172.22,201.81,172.1,202.14,171.88,202.39L171.88,202.39z"/>
<path class="st6" d="M189.81,205.47v-1.46h0.82v-0.68h-0.82v-3.94h-0.61l-2.78,3.94v0.68h2.64v1.46H189.81L189.81,205.47z
	 M187.16,203.33l1.91-2.74v2.74H187.16L187.16,203.33z M194.16,204.74c-0.19,0.14-0.43,0.22-0.7,0.22c-0.37,0-0.68-0.13-0.92-0.39
	c-0.25-0.26-0.38-0.63-0.41-1.11h3.29c0-0.09,0-0.15,0-0.2c0-0.73-0.19-1.29-0.56-1.69c-0.37-0.4-0.85-0.6-1.44-0.6
	c-0.61,0-1.1,0.2-1.49,0.61c-0.38,0.41-0.57,0.99-0.57,1.73c0,0.72,0.19,1.27,0.57,1.67c0.38,0.4,0.89,0.6,1.53,0.6
	c0.51,0,0.93-0.12,1.26-0.37c0.33-0.25,0.55-0.6,0.68-1.05l-0.77-0.1C194.51,204.37,194.35,204.6,194.16,204.74L194.16,204.74z
	 M192.56,201.92c0.23-0.23,0.52-0.34,0.87-0.34c0.38,0,0.69,0.14,0.93,0.43c0.15,0.19,0.25,0.46,0.28,0.83h-2.46
	C192.19,202.46,192.32,202.15,192.56,201.92L192.56,201.92z M198.61,204.49v-1.67h1.66v-0.7h-1.66v-1.66h-0.71v1.66h-1.66v0.7h1.66
	v1.67H198.61L198.61,204.49z M201.69,204.95c0.33,0.42,0.8,0.63,1.38,0.63c0.45,0,0.81-0.12,1.11-0.36
	c0.29-0.24,0.51-0.58,0.66-1.02c0.15-0.44,0.22-1.01,0.22-1.73c0-0.6-0.05-1.08-0.14-1.44c-0.09-0.36-0.22-0.66-0.38-0.9
	c-0.16-0.25-0.36-0.44-0.61-0.57c-0.25-0.13-0.53-0.2-0.86-0.2c-0.44,0-0.81,0.12-1.1,0.36c-0.29,0.24-0.51,0.58-0.66,1.01
	c-0.15,0.44-0.22,1.02-0.22,1.74C201.09,203.61,201.29,204.44,201.69,204.95L201.69,204.95L201.69,204.95z M202.24,200.42
	c0.2-0.29,0.48-0.44,0.82-0.44c0.35,0,0.64,0.16,0.87,0.49c0.23,0.33,0.35,0.99,0.35,2c0,1-0.12,1.66-0.35,1.99
	c-0.23,0.33-0.52,0.5-0.87,0.5c-0.34,0-0.63-0.17-0.87-0.5c-0.23-0.33-0.35-1-0.35-1.99C201.86,201.47,201.98,200.79,202.24,200.42
	L202.24,200.42L202.24,200.42z M206.47,205.18c0.3,0.26,0.69,0.4,1.17,0.4c0.45,0,0.84-0.12,1.17-0.36
	c0.33-0.24,0.58-0.59,0.75-1.05c0.17-0.46,0.25-1.08,0.25-1.86c0-0.75-0.09-1.32-0.26-1.71s-0.42-0.7-0.75-0.91
	c-0.33-0.21-0.69-0.32-1.09-0.32c-0.55,0-1,0.19-1.37,0.56c-0.36,0.38-0.55,0.87-0.55,1.49c0,0.6,0.17,1.08,0.52,1.44
	s0.77,0.55,1.28,0.55c0.3,0,0.58-0.07,0.84-0.22c0.26-0.15,0.46-0.34,0.61-0.58c0,0.07,0,0.12,0,0.15c0,0.31-0.04,0.61-0.11,0.91
	s-0.17,0.54-0.28,0.71c-0.11,0.18-0.25,0.32-0.43,0.42c-0.17,0.11-0.37,0.16-0.6,0.16c-0.27,0-0.49-0.08-0.66-0.23
	c-0.17-0.15-0.29-0.4-0.35-0.73l-0.72,0.07C205.99,204.54,206.17,204.92,206.47,205.18L206.47,205.18z M208.65,202.39
	c-0.22,0.24-0.51,0.36-0.85,0.36c-0.34,0-0.63-0.12-0.87-0.36c-0.23-0.24-0.35-0.56-0.35-0.94c0-0.43,0.12-0.78,0.37-1.05
	c0.25-0.27,0.54-0.41,0.87-0.41c0.32,0,0.6,0.13,0.82,0.38c0.23,0.25,0.34,0.59,0.34,1.02
	C208.99,201.81,208.87,202.14,208.65,202.39L208.65,202.39z"/>
<path d="M102.61,228.07v-3.06h1.93c1.06,0,1.8-0.22,2.2-0.66c0.41-0.44,0.61-0.98,0.61-1.62c0-0.37-0.08-0.71-0.23-1.03
	c-0.15-0.31-0.35-0.55-0.6-0.73c-0.25-0.17-0.56-0.29-0.93-0.35c-0.26-0.05-0.64-0.07-1.14-0.07h-2.84v7.52H102.61L102.61,228.07z
	 M102.61,221.44h1.92c0.45,0,0.76,0.02,0.93,0.07c0.26,0.07,0.47,0.22,0.63,0.44c0.16,0.22,0.24,0.49,0.24,0.81
	c0,0.43-0.14,0.77-0.41,1.01c-0.27,0.24-0.73,0.36-1.37,0.36h-1.94V221.44L102.61,221.44z M108.86,227.46
	c0.47,0.49,1.09,0.73,1.85,0.73c0.48,0,0.91-0.11,1.32-0.33c0.4-0.22,0.71-0.53,0.92-0.94c0.21-0.4,0.32-0.95,0.32-1.65
	c0-0.86-0.24-1.54-0.71-2.03c-0.48-0.49-1.09-0.74-1.84-0.74c-0.67,0-1.24,0.2-1.71,0.6c-0.56,0.49-0.84,1.23-0.84,2.24
	C108.16,226.27,108.39,226.97,108.86,227.46L108.86,227.46z M109.56,223.78c0.3-0.35,0.69-0.52,1.15-0.52
	c0.45,0,0.83,0.17,1.14,0.52c0.31,0.35,0.46,0.86,0.46,1.53c0,0.71-0.15,1.25-0.46,1.59c-0.3,0.35-0.69,0.52-1.14,0.52
	c-0.46,0-0.84-0.17-1.15-0.52c-0.3-0.35-0.46-0.87-0.46-1.57S109.26,224.13,109.56,223.78L109.56,223.78z M115.26,230.16v-2.65
	c0.16,0.2,0.36,0.36,0.6,0.49c0.24,0.13,0.52,0.19,0.83,0.19c0.42,0,0.82-0.12,1.2-0.36c0.38-0.24,0.67-0.58,0.87-1.03
	s0.3-0.95,0.3-1.5c0-0.52-0.09-1-0.27-1.43c-0.18-0.44-0.45-0.77-0.8-1.01c-0.36-0.24-0.77-0.36-1.23-0.36
	c-0.36,0-0.66,0.07-0.91,0.21c-0.25,0.14-0.47,0.35-0.67,0.62v-0.71h-0.84v7.53H115.26L115.26,230.16z M115.63,223.78
	c0.3-0.37,0.65-0.55,1.04-0.55c0.4,0,0.74,0.17,1.02,0.52c0.29,0.35,0.43,0.86,0.43,1.56c0,0.73-0.15,1.27-0.44,1.61
	c-0.29,0.35-0.64,0.52-1.05,0.52c-0.4,0-0.75-0.17-1.03-0.5c-0.28-0.33-0.43-0.85-0.43-1.55
	C115.18,224.68,115.33,224.14,115.63,223.78L115.63,223.78z M124.57,228.07v-5.44h-0.92v2.92c0,0.46-0.05,0.82-0.15,1.06
	c-0.1,0.24-0.27,0.44-0.52,0.58c-0.24,0.14-0.5,0.21-0.78,0.21s-0.51-0.07-0.7-0.21c-0.19-0.14-0.31-0.33-0.37-0.57
	c-0.04-0.17-0.06-0.49-0.06-0.97v-3.02h-0.92V226c0,0.39,0.02,0.68,0.06,0.86c0.05,0.27,0.15,0.5,0.28,0.68
	c0.13,0.19,0.34,0.34,0.62,0.46c0.28,0.12,0.58,0.18,0.9,0.18c0.73,0,1.3-0.31,1.73-0.92v0.8H124.57L124.57,228.07z M126.92,228.07
	v-7.52H126v7.52H126.92L126.92,228.07z M132.09,228.07h0.96c-0.12-0.21-0.19-0.43-0.23-0.65c-0.04-0.23-0.06-0.77-0.06-1.63v-1.23
	c0-0.41-0.02-0.69-0.05-0.85c-0.05-0.25-0.15-0.46-0.29-0.63c-0.14-0.17-0.35-0.3-0.64-0.41c-0.29-0.11-0.67-0.16-1.13-0.16
	c-0.47,0-0.88,0.06-1.24,0.19c-0.36,0.13-0.63,0.31-0.82,0.55c-0.19,0.24-0.32,0.55-0.41,0.94l0.9,0.12
	c0.1-0.39,0.25-0.66,0.46-0.81c0.21-0.15,0.53-0.23,0.96-0.23c0.46,0,0.82,0.1,1.05,0.31c0.17,0.15,0.26,0.42,0.26,0.79
	c0,0.03,0,0.11-0.01,0.24c-0.35,0.12-0.9,0.23-1.65,0.32c-0.37,0.04-0.64,0.09-0.82,0.14c-0.25,0.07-0.47,0.17-0.66,0.3
	c-0.2,0.13-0.36,0.31-0.48,0.53c-0.12,0.22-0.18,0.46-0.18,0.73c0,0.45,0.16,0.83,0.48,1.12c0.32,0.29,0.78,0.44,1.38,0.44
	c0.36,0,0.7-0.06,1.02-0.18c0.32-0.12,0.65-0.32,0.99-0.62C131.93,227.66,131.99,227.88,132.09,228.07L132.09,228.07L132.09,228.07z
	 M131.83,225.68c0,0.41-0.05,0.71-0.15,0.92c-0.13,0.27-0.33,0.48-0.61,0.64c-0.28,0.16-0.59,0.23-0.95,0.23
	c-0.36,0-0.63-0.08-0.82-0.25c-0.19-0.16-0.28-0.37-0.28-0.62c0-0.16,0.04-0.31,0.13-0.44c0.09-0.13,0.21-0.23,0.36-0.3
	c0.16-0.07,0.43-0.13,0.8-0.18c0.67-0.1,1.17-0.21,1.51-0.35V225.68L131.83,225.68z M135.8,227.28c-0.14,0-0.24-0.02-0.32-0.07
	c-0.07-0.04-0.13-0.1-0.16-0.18c-0.03-0.08-0.05-0.24-0.05-0.51v-3.18h0.93v-0.72h-0.93v-1.9l-0.92,0.55v1.35h-0.68v0.72h0.68v3.13
	c0,0.55,0.04,0.92,0.11,1.09c0.08,0.17,0.21,0.31,0.39,0.42s0.44,0.16,0.78,0.16c0.21,0,0.44-0.03,0.7-0.08l-0.13-0.82
	C136.04,227.27,135.9,227.28,135.8,227.28L135.8,227.28L135.8,227.28z M138.04,221.62v-1.06h-0.92v1.06H138.04L138.04,221.62z
	 M138.04,228.07v-5.44h-0.92v5.44H138.04L138.04,228.07z M139.8,227.46c0.47,0.49,1.09,0.73,1.85,0.73c0.48,0,0.91-0.11,1.32-0.33
	c0.4-0.22,0.71-0.53,0.92-0.94c0.21-0.4,0.32-0.95,0.32-1.65c0-0.86-0.24-1.54-0.71-2.03c-0.48-0.49-1.09-0.74-1.84-0.74
	c-0.67,0-1.24,0.2-1.71,0.6c-0.56,0.49-0.84,1.23-0.84,2.24C139.1,226.27,139.33,226.97,139.8,227.46L139.8,227.46z M140.5,223.78
	c0.3-0.35,0.69-0.52,1.15-0.52c0.45,0,0.83,0.17,1.14,0.52c0.31,0.35,0.46,0.86,0.46,1.53c0,0.71-0.15,1.25-0.46,1.59
	c-0.3,0.35-0.69,0.52-1.14,0.52c-0.46,0-0.84-0.17-1.15-0.52c-0.3-0.35-0.46-0.87-0.46-1.57S140.2,224.13,140.5,223.78L140.5,223.78
	z M146.2,228.07v-2.97c0-0.7,0.14-1.17,0.43-1.42c0.29-0.25,0.62-0.37,1.02-0.37c0.25,0,0.46,0.06,0.64,0.17
	c0.18,0.11,0.31,0.26,0.38,0.45c0.07,0.19,0.11,0.47,0.11,0.84v3.31h0.92v-3.35c0-0.43-0.02-0.73-0.05-0.9
	c-0.05-0.26-0.15-0.49-0.29-0.68c-0.14-0.19-0.34-0.35-0.62-0.46c-0.28-0.12-0.58-0.18-0.9-0.18c-0.76,0-1.33,0.3-1.73,0.9v-0.77
	h-0.83v5.44H146.2L146.2,228.07z M154.23,227.01c0.26,0.4,0.62,0.7,1.08,0.89c0.46,0.2,1.03,0.3,1.71,0.3c0.54,0,1.02-0.1,1.45-0.29
	c0.43-0.2,0.76-0.47,0.99-0.83c0.23-0.35,0.34-0.73,0.34-1.13c0-0.4-0.1-0.76-0.31-1.07c-0.21-0.31-0.53-0.56-0.97-0.77
	c-0.3-0.14-0.86-0.3-1.66-0.48c-0.81-0.18-1.31-0.36-1.5-0.54c-0.19-0.17-0.29-0.4-0.29-0.67c0-0.31,0.14-0.58,0.41-0.8
	c0.28-0.22,0.71-0.33,1.32-0.33c0.58,0,1.01,0.12,1.31,0.36c0.3,0.24,0.47,0.6,0.52,1.08l0.95-0.07c-0.02-0.44-0.14-0.84-0.37-1.18
	c-0.23-0.35-0.56-0.61-0.98-0.79s-0.92-0.27-1.47-0.27c-0.51,0-0.97,0.09-1.38,0.26c-0.41,0.17-0.73,0.42-0.94,0.75
	c-0.22,0.33-0.32,0.68-0.32,1.06c0,0.35,0.09,0.66,0.26,0.94c0.18,0.28,0.44,0.51,0.8,0.7c0.28,0.15,0.76,0.3,1.45,0.47
	c0.69,0.17,1.14,0.29,1.34,0.37c0.31,0.12,0.54,0.27,0.68,0.44c0.14,0.18,0.21,0.38,0.21,0.62c0,0.23-0.07,0.45-0.21,0.64
	c-0.14,0.2-0.36,0.35-0.65,0.46c-0.29,0.11-0.63,0.17-1,0.17c-0.43,0-0.81-0.07-1.15-0.22c-0.34-0.15-0.59-0.34-0.76-0.58
	c-0.16-0.24-0.27-0.55-0.31-0.93l-0.94,0.08C153.83,226.16,153.97,226.61,154.23,227.01L154.23,227.01z M161.97,221.62v-1.06h-0.92
	v1.06H161.97L161.97,221.62z M161.97,228.07v-5.44h-0.92v5.44H161.97L161.97,228.07z M167.71,228.07v-0.79h-2.52
	c-0.36,0-0.75,0.02-1.16,0.05l0.57-0.63l2.95-3.46v-0.61h-4.45v0.75h2.22c0.3,0,0.65-0.01,1.04-0.03l-3.47,3.98v0.75H167.71
	L167.71,228.07z M171.78,227.17c-0.24,0.18-0.53,0.27-0.87,0.27c-0.45,0-0.83-0.16-1.14-0.48c-0.3-0.32-0.47-0.78-0.51-1.37h4.06
	c0-0.11,0.01-0.19,0.01-0.25c0-0.9-0.23-1.6-0.69-2.09c-0.46-0.5-1.06-0.74-1.78-0.74c-0.75,0-1.36,0.25-1.84,0.76
	c-0.47,0.51-0.71,1.22-0.71,2.13c0,0.89,0.23,1.57,0.7,2.06c0.47,0.49,1.1,0.74,1.89,0.74c0.63,0,1.15-0.15,1.56-0.46
	c0.41-0.31,0.69-0.74,0.84-1.3l-0.95-0.12C172.21,226.71,172.02,226.99,171.78,227.17L171.78,227.17z M169.8,223.69
	c0.29-0.28,0.65-0.43,1.07-0.43c0.47,0,0.85,0.18,1.14,0.53c0.19,0.23,0.31,0.57,0.35,1.03h-3.04
	C169.35,224.35,169.51,223.97,169.8,223.69L169.8,223.69z"/>
<path d="M11.43,189.4c0.4-0.26,0.7-0.62,0.89-1.08c0.2-0.46,0.3-1.03,0.3-1.71c0-0.54-0.1-1.02-0.29-1.45
	c-0.2-0.43-0.47-0.76-0.83-0.99c-0.35-0.23-0.73-0.34-1.13-0.34c-0.4,0-0.76,0.1-1.07,0.31c-0.31,0.21-0.56,0.53-0.77,0.97
	c-0.14,0.3-0.3,0.86-0.48,1.66c-0.18,0.81-0.36,1.31-0.54,1.5c-0.17,0.19-0.4,0.29-0.67,0.29c-0.31,0-0.58-0.14-0.8-0.41
	c-0.22-0.28-0.33-0.71-0.33-1.32c0-0.58,0.12-1.01,0.36-1.31c0.24-0.3,0.6-0.47,1.08-0.52l-0.07-0.95
	c-0.44,0.02-0.84,0.14-1.18,0.37c-0.35,0.23-0.61,0.56-0.79,0.98s-0.27,0.92-0.27,1.47c0,0.51,0.09,0.97,0.26,1.38
	c0.17,0.41,0.42,0.73,0.75,0.94c0.33,0.22,0.68,0.32,1.06,0.32c0.35,0,0.66-0.09,0.94-0.26c0.28-0.18,0.51-0.44,0.7-0.8
	c0.15-0.28,0.3-0.76,0.47-1.45c0.17-0.69,0.29-1.14,0.37-1.34c0.12-0.31,0.27-0.54,0.44-0.68c0.18-0.14,0.38-0.21,0.62-0.21
	c0.23,0,0.45,0.07,0.64,0.21c0.2,0.14,0.35,0.36,0.46,0.65c0.11,0.29,0.17,0.63,0.17,1c0,0.43-0.07,0.81-0.22,1.15
	c-0.15,0.34-0.34,0.59-0.58,0.76c-0.24,0.16-0.55,0.27-0.93,0.31l0.08,0.94C10.58,189.8,11.03,189.66,11.43,189.4L11.43,189.4z
	 M12.5,181.68H4.98v0.92h7.52V181.68L12.5,181.68z M11.89,179.89c0.49-0.47,0.73-1.09,0.73-1.85c0-0.48-0.11-0.91-0.33-1.32
	c-0.22-0.4-0.53-0.71-0.94-0.92c-0.4-0.21-0.95-0.32-1.65-0.32c-0.86,0-1.54,0.24-2.03,0.71c-0.49,0.48-0.74,1.09-0.74,1.84
	c0,0.67,0.2,1.24,0.6,1.71c0.49,0.56,1.23,0.84,2.24,0.84C10.69,180.6,11.4,180.36,11.89,179.89L11.89,179.89z M8.21,179.19
	c-0.35-0.3-0.52-0.69-0.52-1.15c0-0.45,0.17-0.83,0.52-1.14c0.35-0.31,0.86-0.46,1.53-0.46c0.71,0,1.25,0.15,1.59,0.46
	c0.35,0.3,0.52,0.69,0.52,1.14c0,0.46-0.17,0.84-0.52,1.15c-0.35,0.3-0.87,0.46-1.57,0.46S8.56,179.5,8.21,179.19L8.21,179.19z
	 M14.58,173.49h-2.65c0.2-0.16,0.36-0.36,0.49-0.6c0.13-0.24,0.19-0.52,0.19-0.83c0-0.42-0.12-0.82-0.36-1.2
	c-0.24-0.38-0.58-0.67-1.03-0.87s-0.95-0.3-1.5-0.3c-0.52,0-1,0.09-1.43,0.27c-0.44,0.18-0.77,0.45-1.01,0.8
	c-0.24,0.36-0.36,0.77-0.36,1.23c0,0.36,0.07,0.66,0.21,0.91c0.14,0.25,0.35,0.47,0.62,0.67H7.05v0.84h7.53V173.49L14.58,173.49z
	 M8.2,173.12c-0.37-0.3-0.55-0.65-0.55-1.04c0-0.4,0.17-0.74,0.52-1.02c0.35-0.29,0.86-0.43,1.56-0.43c0.73,0,1.27,0.15,1.61,0.44
	c0.35,0.29,0.52,0.64,0.52,1.05c0,0.4-0.17,0.75-0.5,1.03c-0.33,0.28-0.85,0.43-1.55,0.43C9.1,173.58,8.57,173.43,8.2,173.12
	L8.2,173.12z M11.59,165.42c0.18,0.24,0.27,0.53,0.27,0.87c0,0.45-0.16,0.83-0.48,1.14c-0.32,0.3-0.78,0.47-1.37,0.51v-4.06
	c-0.11,0-0.19-0.01-0.25-0.01c-0.9,0-1.6,0.23-2.09,0.69c-0.5,0.46-0.74,1.06-0.74,1.78c0,0.75,0.25,1.36,0.76,1.84
	c0.51,0.47,1.22,0.71,2.13,0.71c0.89,0,1.57-0.23,2.06-0.7c0.49-0.47,0.74-1.1,0.74-1.89c0-0.63-0.15-1.15-0.46-1.56
	c-0.31-0.41-0.74-0.69-1.3-0.84l-0.12,0.95C11.13,164.99,11.42,165.18,11.59,165.42L11.59,165.42z M8.11,167.4
	c-0.28-0.29-0.43-0.65-0.43-1.07c0-0.47,0.18-0.85,0.53-1.14c0.23-0.19,0.57-0.31,1.03-0.35v3.04C8.78,167.85,8.4,167.69,8.11,167.4
	L8.11,167.4z M14.71,157.39c-1.64,1.02-3.28,1.53-4.93,1.53c-0.65,0-1.29-0.07-1.93-0.22c-0.51-0.12-1-0.28-1.48-0.49
	c-0.3-0.13-0.81-0.41-1.52-0.82v0.66c0.86,0.64,1.72,1.12,2.58,1.43c0.75,0.26,1.52,0.39,2.34,0.39c0.92,0,1.81-0.18,2.68-0.53
	c0.86-0.35,1.61-0.78,2.26-1.29V157.39L14.71,157.39z M11.71,154.71c0,0.14-0.02,0.24-0.07,0.32c-0.04,0.07-0.1,0.13-0.18,0.16
	c-0.08,0.03-0.24,0.05-0.51,0.05H7.77v-0.93H7.05v0.93h-1.9l0.55,0.92h1.35v0.68h0.72v-0.68h3.13c0.55,0,0.92-0.04,1.09-0.11
	c0.17-0.08,0.31-0.21,0.42-0.39s0.16-0.44,0.16-0.78c0-0.21-0.03-0.44-0.08-0.7l-0.82,0.13C11.69,154.47,11.71,154.61,11.71,154.71
	L11.71,154.71L11.71,154.71z M11.89,153.04c0.49-0.47,0.73-1.09,0.73-1.85c0-0.48-0.11-0.91-0.33-1.32
	c-0.22-0.4-0.53-0.71-0.94-0.92c-0.4-0.21-0.95-0.32-1.65-0.32c-0.86,0-1.54,0.24-2.03,0.71c-0.49,0.48-0.74,1.09-0.74,1.84
	c0,0.67,0.2,1.24,0.6,1.71c0.49,0.56,1.23,0.84,2.24,0.84C10.69,153.75,11.4,153.51,11.89,153.04L11.89,153.04z M8.21,152.34
	c-0.35-0.3-0.52-0.69-0.52-1.15c0-0.45,0.17-0.83,0.52-1.14c0.35-0.31,0.86-0.46,1.53-0.46c0.71,0,1.25,0.15,1.59,0.46
	c0.35,0.3,0.52,0.69,0.52,1.14c0,0.46-0.17,0.84-0.52,1.15c-0.35,0.3-0.87,0.46-1.57,0.46S8.56,152.65,8.21,152.34L8.21,152.34z
	 M11.71,145.95c0,0.14-0.02,0.24-0.07,0.32c-0.04,0.07-0.1,0.13-0.18,0.16c-0.08,0.03-0.24,0.05-0.51,0.05H7.77v-0.93H7.05v0.93
	h-1.9l0.55,0.92h1.35v0.68h0.72v-0.68h3.13c0.55,0,0.92-0.04,1.09-0.11c0.17-0.08,0.31-0.21,0.42-0.39s0.16-0.44,0.16-0.78
	c0-0.21-0.03-0.44-0.08-0.7l-0.82,0.13C11.69,145.72,11.71,145.85,11.71,145.95L11.71,145.95L11.71,145.95z M12.5,140.91v-0.96
	c-0.21,0.12-0.43,0.19-0.65,0.23c-0.23,0.04-0.77,0.06-1.63,0.06H8.98c-0.41,0-0.69,0.02-0.85,0.05c-0.25,0.05-0.46,0.15-0.63,0.29
	c-0.17,0.14-0.3,0.35-0.41,0.64c-0.11,0.29-0.16,0.67-0.16,1.13c0,0.47,0.06,0.88,0.19,1.24c0.13,0.36,0.31,0.63,0.55,0.82
	c0.24,0.19,0.55,0.32,0.94,0.41l0.12-0.9c-0.39-0.1-0.66-0.25-0.81-0.46c-0.15-0.21-0.23-0.53-0.23-0.96c0-0.46,0.1-0.82,0.31-1.05
	c0.15-0.17,0.42-0.26,0.79-0.26c0.03,0,0.11,0,0.24,0.01c0.12,0.35,0.23,0.9,0.32,1.65c0.04,0.37,0.09,0.64,0.14,0.82
	c0.07,0.25,0.17,0.47,0.3,0.66c0.13,0.2,0.31,0.36,0.53,0.48c0.22,0.12,0.46,0.18,0.73,0.18c0.45,0,0.83-0.16,1.12-0.48
	c0.29-0.32,0.44-0.78,0.44-1.38c0-0.36-0.06-0.7-0.18-1.02c-0.12-0.32-0.32-0.65-0.62-0.99C12.08,141.07,12.3,141,12.5,140.91
	L12.5,140.91L12.5,140.91z M10.1,141.17c0.41,0,0.71,0.05,0.92,0.15c0.27,0.13,0.48,0.33,0.64,0.61c0.16,0.28,0.23,0.59,0.23,0.95
	c0,0.36-0.08,0.63-0.25,0.82c-0.16,0.19-0.37,0.28-0.62,0.28c-0.16,0-0.31-0.04-0.44-0.13c-0.13-0.09-0.23-0.21-0.3-0.36
	c-0.07-0.16-0.13-0.43-0.18-0.8c-0.1-0.67-0.21-1.17-0.35-1.51H10.1L10.1,141.17z M12.5,137.9H4.98v0.92h7.52V137.9L12.5,137.9z
	 M14.58,132.63h-2.65c0.2-0.16,0.36-0.36,0.49-0.6c0.13-0.24,0.19-0.52,0.19-0.83c0-0.42-0.12-0.82-0.36-1.2
	c-0.24-0.38-0.58-0.67-1.03-0.87s-0.95-0.3-1.5-0.3c-0.52,0-1,0.09-1.43,0.27c-0.44,0.18-0.77,0.45-1.01,0.8
	c-0.24,0.36-0.36,0.77-0.36,1.23c0,0.36,0.07,0.66,0.21,0.91c0.14,0.25,0.35,0.47,0.62,0.67H7.05v0.84h7.53V132.63L14.58,132.63z
	 M8.2,132.27c-0.37-0.3-0.55-0.65-0.55-1.04c0-0.4,0.17-0.74,0.52-1.02c0.35-0.29,0.86-0.43,1.56-0.43c0.73,0,1.27,0.15,1.61,0.44
	c0.35,0.29,0.52,0.64,0.52,1.05c0,0.4-0.17,0.75-0.5,1.03c-0.33,0.28-0.85,0.43-1.55,0.43C9.1,132.72,8.57,132.57,8.2,132.27
	L8.2,132.27z M12.5,123.98v-0.96c-0.21,0.12-0.43,0.19-0.65,0.23c-0.23,0.04-0.77,0.06-1.63,0.06H8.98c-0.41,0-0.69,0.02-0.85,0.05
	c-0.25,0.05-0.46,0.15-0.63,0.29c-0.17,0.14-0.3,0.35-0.41,0.64c-0.11,0.29-0.16,0.67-0.16,1.13c0,0.47,0.06,0.88,0.19,1.24
	c0.13,0.36,0.31,0.63,0.55,0.82c0.24,0.19,0.55,0.32,0.94,0.41l0.12-0.9c-0.39-0.1-0.66-0.25-0.81-0.46
	c-0.15-0.21-0.23-0.53-0.23-0.96c0-0.46,0.1-0.82,0.31-1.05c0.15-0.17,0.42-0.26,0.79-0.26c0.03,0,0.11,0,0.24,0.01
	c0.12,0.35,0.23,0.9,0.32,1.65c0.04,0.37,0.09,0.64,0.14,0.82c0.07,0.25,0.17,0.47,0.3,0.66c0.13,0.2,0.31,0.36,0.53,0.48
	c0.22,0.12,0.46,0.18,0.73,0.18c0.45,0,0.83-0.16,1.12-0.48c0.29-0.32,0.44-0.78,0.44-1.38c0-0.36-0.06-0.7-0.18-1.02
	c-0.12-0.32-0.32-0.65-0.62-0.99C12.08,124.14,12.3,124.08,12.5,123.98L12.5,123.98L12.5,123.98z M10.1,124.24
	c0.41,0,0.71,0.05,0.92,0.15c0.27,0.13,0.48,0.33,0.64,0.61c0.16,0.28,0.23,0.59,0.23,0.95c0,0.36-0.08,0.63-0.25,0.82
	c-0.16,0.19-0.37,0.28-0.62,0.28c-0.16,0-0.31-0.04-0.44-0.13c-0.13-0.09-0.23-0.21-0.3-0.36c-0.07-0.16-0.13-0.43-0.18-0.8
	c-0.1-0.67-0.21-1.17-0.35-1.51H10.1L10.1,124.24z M11.71,120.27c0,0.14-0.02,0.24-0.07,0.32c-0.04,0.07-0.1,0.13-0.18,0.16
	c-0.08,0.03-0.24,0.05-0.51,0.05H7.77v-0.93H7.05v0.93h-1.9l0.55,0.92h1.35v0.68h0.72v-0.68h3.13c0.55,0,0.92-0.04,1.09-0.11
	c0.17-0.08,0.31-0.21,0.42-0.39s0.16-0.44,0.16-0.78c0-0.21-0.03-0.44-0.08-0.7l-0.82,0.13C11.69,120.03,11.71,120.17,11.71,120.27
	L11.71,120.27L11.71,120.27z M12.5,118.04H9.52c-0.43,0-0.76-0.05-1-0.15c-0.24-0.1-0.43-0.27-0.58-0.52
	c-0.14-0.24-0.21-0.5-0.21-0.77c0-0.37,0.11-0.65,0.32-0.85s0.55-0.3,1.01-0.3h3.45v-0.92H9.05c-0.53,0-0.94,0.06-1.22,0.19
	c-0.28,0.13-0.5,0.34-0.66,0.64s-0.24,0.65-0.24,1.05c0,0.66,0.25,1.2,0.75,1.63h-2.7v0.92h7.52V118.04L12.5,118.04z M12.5,109.3
	H4.98v0.92h7.52V109.3L12.5,109.3z M11.59,104.71c0.18,0.24,0.27,0.53,0.27,0.87c0,0.45-0.16,0.83-0.48,1.14
	c-0.32,0.3-0.78,0.47-1.37,0.51v-4.06c-0.11,0-0.19-0.01-0.25-0.01c-0.9,0-1.6,0.23-2.09,0.69c-0.5,0.46-0.74,1.06-0.74,1.78
	c0,0.75,0.25,1.36,0.76,1.84c0.51,0.47,1.22,0.71,2.13,0.71c0.89,0,1.57-0.23,2.06-0.7c0.49-0.47,0.74-1.1,0.74-1.89
	c0-0.63-0.15-1.15-0.46-1.56c-0.31-0.41-0.74-0.69-1.3-0.84l-0.12,0.95C11.13,104.28,11.42,104.47,11.59,104.71L11.59,104.71z
	 M8.11,106.69c-0.28-0.29-0.43-0.65-0.43-1.07c0-0.47,0.18-0.85,0.53-1.14c0.23-0.19,0.57-0.31,1.03-0.35v3.04
	C8.78,107.14,8.4,106.98,8.11,106.69L8.11,106.69z M12.5,101.11H9.52c-0.7,0-1.17-0.14-1.42-0.43c-0.25-0.29-0.37-0.62-0.37-1.02
	c0-0.25,0.06-0.46,0.17-0.64c0.11-0.18,0.26-0.31,0.45-0.38c0.19-0.07,0.47-0.11,0.84-0.11h3.31v-0.92H9.15
	c-0.43,0-0.73,0.02-0.9,0.05c-0.26,0.05-0.49,0.15-0.68,0.29c-0.19,0.14-0.35,0.34-0.46,0.62c-0.12,0.28-0.18,0.58-0.18,0.9
	c0,0.76,0.3,1.33,0.9,1.73H7.05v0.83h5.44V101.11L12.5,101.11z M14.27,95.78c0.29-0.4,0.44-0.92,0.44-1.57
	c0-0.55-0.1-1.01-0.31-1.38s-0.48-0.65-0.84-0.82c-0.35-0.17-0.95-0.26-1.8-0.26H7.05v0.85h0.66c-0.52,0.42-0.78,0.95-0.78,1.59
	c0,0.48,0.12,0.9,0.36,1.26c0.24,0.36,0.58,0.63,1.02,0.82c0.44,0.19,0.92,0.28,1.44,0.28c0.76,0,1.4-0.21,1.94-0.62
	c0.54-0.41,0.81-0.99,0.81-1.74c0-0.6-0.24-1.1-0.71-1.51c0.6,0,1,0.02,1.18,0.07c0.31,0.08,0.55,0.24,0.72,0.47
	c0.17,0.23,0.26,0.56,0.26,0.99c0,0.4-0.09,0.71-0.26,0.94c-0.13,0.17-0.33,0.28-0.6,0.31l-0.13,0.9
	C13.54,96.37,13.98,96.18,14.27,95.78L14.27,95.78z M8.19,95.17c-0.33-0.29-0.5-0.64-0.5-1.05c0-0.42,0.17-0.77,0.51-1.07
	c0.34-0.3,0.84-0.44,1.51-0.44c0.7,0,1.21,0.14,1.54,0.43c0.33,0.29,0.49,0.64,0.49,1.07c0,0.43-0.16,0.78-0.49,1.07
	c-0.33,0.28-0.85,0.43-1.56,0.43C9.02,95.6,8.53,95.45,8.19,95.17L8.19,95.17z M11.71,88.74c0,0.14-0.02,0.24-0.07,0.32
	c-0.04,0.07-0.1,0.13-0.18,0.16c-0.08,0.03-0.24,0.05-0.51,0.05H7.77v-0.93H7.05v0.93h-1.9l0.55,0.92h1.35v0.68h0.72v-0.68h3.13
	c0.55,0,0.92-0.04,1.09-0.11c0.17-0.08,0.31-0.21,0.42-0.39s0.16-0.44,0.16-0.78c0-0.21-0.03-0.44-0.08-0.7l-0.82,0.13
	C11.69,88.5,11.71,88.64,11.71,88.74L11.71,88.74L11.71,88.74z M12.5,86.51H9.52c-0.43,0-0.76-0.05-1-0.15
	c-0.24-0.1-0.43-0.27-0.58-0.52c-0.14-0.24-0.21-0.5-0.21-0.77c0-0.37,0.11-0.65,0.32-0.85s0.55-0.3,1.01-0.3h3.45V83H9.05
	c-0.53,0-0.94,0.06-1.22,0.19c-0.28,0.13-0.5,0.34-0.66,0.64s-0.24,0.65-0.24,1.05c0,0.66,0.25,1.2,0.75,1.63h-2.7v0.92h7.52V86.51
	L12.5,86.51z M12.18,81.25c0.29-0.37,0.44-0.91,0.44-1.62c0-0.43-0.07-0.81-0.22-1.15s-0.36-0.6-0.63-0.78s-0.56-0.27-0.87-0.27
	c-0.31,0-0.58,0.07-0.79,0.22c-0.21,0.15-0.37,0.35-0.48,0.61c-0.11,0.26-0.25,0.71-0.43,1.37c-0.12,0.45-0.2,0.72-0.24,0.82
	c-0.06,0.16-0.15,0.28-0.25,0.35c-0.1,0.08-0.2,0.11-0.32,0.11c-0.19,0-0.35-0.09-0.49-0.27c-0.14-0.18-0.21-0.48-0.21-0.91
	c0-0.36,0.08-0.64,0.24-0.83c0.16-0.2,0.38-0.32,0.66-0.36l-0.12-0.9c-0.35,0.06-0.63,0.16-0.84,0.32s-0.38,0.39-0.5,0.72
	s-0.18,0.7-0.18,1.13c0,0.28,0.04,0.55,0.11,0.8c0.07,0.25,0.16,0.44,0.27,0.59c0.14,0.19,0.31,0.34,0.52,0.45
	c0.21,0.11,0.43,0.17,0.67,0.17c0.27,0,0.51-0.07,0.73-0.2c0.22-0.13,0.39-0.33,0.52-0.59c0.12-0.26,0.27-0.73,0.44-1.41
	c0.13-0.5,0.23-0.82,0.31-0.94c0.12-0.18,0.28-0.27,0.49-0.27c0.23,0,0.43,0.1,0.61,0.31c0.17,0.21,0.26,0.52,0.26,0.94
	c0,0.42-0.1,0.75-0.29,0.98c-0.19,0.23-0.48,0.38-0.84,0.43l0.14,0.91C11.45,81.86,11.88,81.62,12.18,81.25L12.18,81.25z
	 M9.08,72.95c-0.09-0.19-0.14-0.4-0.14-0.62c0-0.27,0.09-0.61,0.27-1.01c0.18-0.41,0.3-0.7,0.34-0.89c0.05-0.19,0.07-0.38,0.07-0.59
	c0-0.28-0.05-0.53-0.14-0.76c-0.09-0.22-0.24-0.45-0.45-0.66H7.96c0.2,0.18,0.37,0.4,0.5,0.63c0.13,0.24,0.2,0.47,0.2,0.69
	c0,0.12-0.02,0.24-0.05,0.36s-0.1,0.29-0.19,0.53c-0.18,0.42-0.3,0.74-0.36,0.96C8,71.83,7.97,72.04,7.97,72.25
	c0,0.59,0.21,1.06,0.62,1.43h1.05C9.36,73.39,9.18,73.15,9.08,72.95L9.08,72.95z M12.5,63.46H9.52c-0.7,0-1.17-0.14-1.42-0.43
	c-0.25-0.29-0.37-0.62-0.37-1.02c0-0.25,0.06-0.46,0.17-0.64c0.11-0.18,0.26-0.31,0.45-0.38c0.19-0.07,0.47-0.11,0.84-0.11h3.31
	v-0.92H9.15c-0.43,0-0.73,0.02-0.9,0.05c-0.26,0.05-0.49,0.15-0.68,0.29c-0.19,0.14-0.35,0.34-0.46,0.62
	c-0.12,0.28-0.18,0.58-0.18,0.9c0,0.76,0.3,1.33,0.9,1.73H7.05v0.83h5.44V63.46L12.5,63.46z M11.89,58.18
	c0.49-0.47,0.73-1.09,0.73-1.85c0-0.48-0.11-0.91-0.33-1.32c-0.22-0.4-0.53-0.71-0.94-0.92c-0.4-0.21-0.95-0.32-1.65-0.32
	c-0.86,0-1.54,0.24-2.03,0.71c-0.49,0.48-0.74,1.09-0.74,1.84c0,0.67,0.2,1.24,0.6,1.71c0.49,0.56,1.23,0.84,2.24,0.84
	C10.69,58.88,11.4,58.65,11.89,58.18L11.89,58.18z M8.21,57.48c-0.35-0.3-0.52-0.69-0.52-1.15c0-0.45,0.17-0.83,0.52-1.14
	c0.35-0.31,0.86-0.46,1.53-0.46c0.71,0,1.25,0.15,1.59,0.46c0.35,0.3,0.52,0.69,0.52,1.14c0,0.46-0.17,0.84-0.52,1.15
	c-0.35,0.3-0.87,0.46-1.57,0.46S8.56,57.78,8.21,57.48L8.21,57.48z M12.5,48.31H4.98v0.92h2.7c-0.22,0.16-0.4,0.37-0.54,0.63
	s-0.21,0.55-0.21,0.88c0,0.45,0.12,0.85,0.35,1.22c0.24,0.36,0.58,0.63,1.02,0.82c0.44,0.18,0.94,0.27,1.48,0.27
	c0.56,0,1.05-0.1,1.48-0.3c0.43-0.2,0.76-0.48,1-0.85s0.36-0.76,0.36-1.2c0-0.67-0.27-1.18-0.81-1.52h0.69V48.31L12.5,48.31z
	 M8.19,51.67c-0.33-0.28-0.5-0.62-0.5-1.03c0-0.42,0.17-0.77,0.52-1.06s0.9-0.43,1.64-0.43c0.68,0,1.18,0.14,1.51,0.42
	c0.33,0.28,0.49,0.62,0.49,1.03c0,0.4-0.17,0.75-0.52,1.04c-0.35,0.29-0.87,0.44-1.56,0.44C9.06,52.08,8.53,51.95,8.19,51.67
	L8.19,51.67z M11.59,43.7c0.18,0.24,0.27,0.53,0.27,0.87c0,0.45-0.16,0.83-0.48,1.14c-0.32,0.3-0.78,0.47-1.37,0.51v-4.06
	c-0.11,0-0.19-0.01-0.25-0.01c-0.9,0-1.6,0.23-2.09,0.69c-0.5,0.46-0.74,1.06-0.74,1.78c0,0.75,0.25,1.36,0.76,1.84
	c0.51,0.47,1.22,0.71,2.13,0.71c0.89,0,1.57-0.23,2.06-0.7c0.49-0.47,0.74-1.1,0.74-1.89c0-0.63-0.15-1.15-0.46-1.56
	c-0.31-0.41-0.74-0.69-1.3-0.84l-0.12,0.95C11.13,43.27,11.42,43.46,11.59,43.7L11.59,43.7z M8.11,45.68
	c-0.28-0.29-0.43-0.65-0.43-1.07c0-0.47,0.18-0.85,0.53-1.14c0.23-0.19,0.57-0.31,1.03-0.35v3.04C8.78,46.13,8.4,45.97,8.11,45.68
	L8.11,45.68z M11.53,35.01c0.22,0.24,0.33,0.55,0.33,0.91c0,0.45-0.17,0.82-0.5,1.1c-0.33,0.28-0.86,0.42-1.59,0.42
	c-0.72,0-1.25-0.15-1.58-0.44c-0.33-0.29-0.5-0.67-0.5-1.13c0-0.31,0.09-0.57,0.28-0.79c0.18-0.22,0.46-0.37,0.83-0.45l-0.14-0.9
	c-0.55,0.11-0.97,0.35-1.27,0.72c-0.3,0.38-0.45,0.86-0.45,1.45c0,0.47,0.11,0.9,0.33,1.3c0.22,0.4,0.55,0.69,0.99,0.89
	s0.96,0.29,1.54,0.29c0.91,0,1.61-0.23,2.09-0.68c0.49-0.45,0.73-1.05,0.73-1.8c0-0.59-0.18-1.1-0.53-1.5
	c-0.35-0.41-0.84-0.66-1.47-0.76l-0.12,0.91C10.96,34.62,11.3,34.77,11.53,35.01L11.53,35.01z M11.89,32.49
	c0.49-0.47,0.73-1.09,0.73-1.85c0-0.48-0.11-0.91-0.33-1.32c-0.22-0.4-0.53-0.71-0.94-0.92c-0.4-0.21-0.95-0.32-1.65-0.32
	c-0.86,0-1.54,0.24-2.03,0.71c-0.49,0.48-0.74,1.09-0.74,1.84c0,0.67,0.2,1.24,0.6,1.71c0.49,0.56,1.23,0.84,2.24,0.84
	C10.69,33.2,11.4,32.96,11.89,32.49L11.89,32.49z M8.21,31.79c-0.35-0.3-0.52-0.69-0.52-1.15c0-0.45,0.17-0.83,0.52-1.14
	c0.35-0.31,0.86-0.46,1.53-0.46c0.71,0,1.25,0.15,1.59,0.46c0.35,0.3,0.52,0.69,0.52,1.14c0,0.46-0.17,0.84-0.52,1.15
	c-0.35,0.3-0.87,0.46-1.57,0.46S8.56,32.1,8.21,31.79L8.21,31.79z M12.5,22.62H7.05v0.92h2.92c0.46,0,0.82,0.05,1.06,0.15
	c0.24,0.1,0.44,0.27,0.58,0.52c0.14,0.24,0.21,0.5,0.21,0.78s-0.07,0.51-0.21,0.7c-0.14,0.19-0.33,0.31-0.57,0.37
	c-0.17,0.04-0.49,0.06-0.97,0.06H7.05v0.92h3.37c0.39,0,0.68-0.02,0.86-0.06c0.27-0.05,0.5-0.15,0.68-0.28
	c0.19-0.13,0.34-0.34,0.46-0.62c0.12-0.28,0.18-0.58,0.18-0.9c0-0.73-0.31-1.3-0.92-1.73h0.8V22.62L12.5,22.62z M12.5,20.25H9.52
	c-0.7,0-1.17-0.14-1.42-0.43c-0.25-0.29-0.37-0.62-0.37-1.02c0-0.25,0.06-0.46,0.17-0.64c0.11-0.18,0.26-0.31,0.45-0.38
	c0.19-0.07,0.47-0.11,0.84-0.11h3.31v-0.92H9.15c-0.43,0-0.73,0.02-0.9,0.05c-0.26,0.05-0.49,0.15-0.68,0.29
	c-0.19,0.14-0.35,0.34-0.46,0.62c-0.12,0.28-0.18,0.58-0.18,0.9c0,0.76,0.3,1.33,0.9,1.73H7.05v0.83h5.44V20.25L12.5,20.25z
	 M11.71,13.72c0,0.14-0.02,0.24-0.07,0.32c-0.04,0.07-0.1,0.13-0.18,0.16c-0.08,0.03-0.24,0.05-0.51,0.05H7.77v-0.93H7.05v0.93h-1.9
	l0.55,0.92h1.35v0.68h0.72v-0.68h3.13c0.55,0,0.92-0.04,1.09-0.11c0.17-0.08,0.31-0.21,0.42-0.39s0.16-0.44,0.16-0.78
	c0-0.21-0.03-0.44-0.08-0.7l-0.82,0.13C11.69,13.49,11.71,13.62,11.71,13.72L11.71,13.72L11.71,13.72z M12.45,10.52
	c-0.86-0.35-1.75-0.53-2.68-0.53c-0.81,0-1.59,0.13-2.34,0.39c-0.86,0.31-1.73,0.78-2.58,1.43v0.66c0.72-0.42,1.23-0.69,1.54-0.83
	c0.47-0.21,0.96-0.37,1.48-0.49c0.63-0.15,1.27-0.22,1.91-0.22c1.64,0,3.29,0.51,4.93,1.53v-0.66
	C14.06,11.31,13.31,10.88,12.45,10.52L12.45,10.52z"/>
</svg>
