<?xml version="1.0" encoding="utf-8"?>
<!-- Generator: Adobe Illustrator 24.0.2, SVG Export Plug-In . SVG Version: 6.00 Build 0)  -->
<svg version="1.1" id="Layer_1" xmlns="http://www.w3.org/2000/svg" xmlns:xlink="http://www.w3.org/1999/xlink" x="0px" y="0px"
	 viewBox="0 0 235.26 235.26" style="enable-background:new 0 0 235.26 235.26;" xml:space="preserve">
<style type="text/css">
	.st0{fill:#FFFFFF;}
	.st1{fill:none;stroke:#CCCCCC;stroke-width:0.7113;stroke-linejoin:round;stroke-miterlimit:10;stroke-dasharray:4,4;}
	.st2{fill:none;stroke:#404040;stroke-width:1.4226;stroke-linejoin:round;stroke-miterlimit:10;}
	.st3{fill:#7F7F7F;}
	.st4{fill:none;stroke:#7F7F7F;stroke-width:0.9449;stroke-linecap:round;stroke-linejoin:round;stroke-miterlimit:10;}
	.st5{fill:#BEBEBE;}
	.st6{fill:#4D4D4D;}
</style>
<rect class="st0" width="235.26" height="235.26"/>
<path class="st1" d="M24.92,61.61h195.67 M24.92,61.61h195.67 M24.92,61.61h195.67 M24.92,61.61h195.67 M24.92,61.61h195.67
	 M24.92,61.61h195.67"/>
<polyline class="st2" points="26.71,99.5 29.17,98.72 31.63,97.94 34.08,97.16 38.98,95.61 41.44,94.82 43.89,94.05 46.35,93.27 
	48.8,92.49 51.26,91.71 53.71,90.93 56.16,90.15 58.62,89.37 61.07,88.59 63.53,87.81 68.43,86.26 70.89,85.48 73.34,84.7 
	75.8,83.92 80.7,82.36 83.16,81.58 85.61,80.8 88.07,80.02 90.52,79.25 92.98,78.47 95.43,77.69 97.88,76.91 100.34,76.13 
	102.79,75.35 105.25,74.57 107.7,73.79 110.15,73.02 112.6,72.23 115.06,71.46 117.52,70.68 122.42,69.12 124.88,68.34 
	127.33,67.56 129.78,66.78 132.24,66 134.69,65.23 137.15,64.44 139.6,63.67 142.05,62.89 144.51,62.11 146.96,61.33 149.42,60.55 
	151.87,59.77 154.32,58.99 156.78,58.21 159.23,57.44 161.69,56.66 164.14,55.88 166.6,55.1 169.05,54.32 171.5,53.54 173.96,52.76 
	176.41,51.98 178.87,51.2 181.32,50.43 183.77,49.64 186.23,48.87 188.68,48.09 191.14,47.31 193.59,46.53 196.04,45.75 
	198.5,44.97 200.95,44.19 203.41,43.41 205.86,42.64 208.32,41.85 210.77,41.08 213.22,40.3 215.68,39.52 218.13,38.74 
	220.59,37.96 "/>
<path class="st3" d="M83.89,54.71c0,3.27-4.91,3.27-4.91,0C78.98,51.43,83.89,51.43,83.89,54.71"/>
<path class="st4" d="M83.89,54.71c0,3.27-4.91,3.27-4.91,0C78.98,51.43,83.89,51.43,83.89,54.71"/>
<path class="st3" d="M223.04,38.66c0,3.27-4.91,3.27-4.91,0C218.13,35.38,223.04,35.38,223.04,38.66"/>
<path class="st4" d="M223.04,38.66c0,3.27-4.91,3.27-4.91,0C218.13,35.38,223.04,35.38,223.04,38.66"/>
<path class="st3" d="M58.89,71.77c0,3.27-4.91,3.27-4.91,0C53.98,68.5,58.89,68.5,58.89,71.77"/>
<path class="st4" d="M58.89,71.77c0,3.27-4.91,3.27-4.91,0C53.98,68.5,58.89,68.5,58.89,71.77"/>
<path class="st3" d="M42.89,53.85c0,3.27-4.91,3.27-4.91,0C37.98,50.58,42.89,50.58,42.89,53.85"/>
<path class="st4" d="M42.89,53.85c0,3.27-4.91,3.27-4.91,0C37.98,50.58,42.89,50.58,42.89,53.85"/>
<path class="st3" d="M29.17,89.69c0,3.27-4.91,3.27-4.91,0C24.26,86.42,29.17,86.42,29.17,89.69"/>
<path class="st4" d="M29.17,89.69c0,3.27-4.91,3.27-4.91,0C24.26,86.42,29.17,86.42,29.17,89.69"/>
<path class="st3" d="M54.93,187.43c0,3.27-4.91,3.27-4.91,0C50.02,184.16,54.93,184.16,54.93,187.43"/>
<path class="st4" d="M54.93,187.43c0,3.27-4.91,3.27-4.91,0C50.02,184.16,54.93,184.16,54.93,187.43"/>
<path class="st5" d="M74.64,49.7l0.45-1.25h1.73l0.48,1.25h0.62l-1.69-4.13h-0.59l-1.58,4.13H74.64L74.64,49.7z M75.71,46.79
	c0.1-0.26,0.17-0.52,0.22-0.79c0.06,0.22,0.16,0.51,0.29,0.86L76.65,48h-1.4L75.71,46.79L75.71,46.79z M78.92,49.7V47.1h0.58v-0.39
	h-0.58v-0.28c0-0.18,0.03-0.3,0.1-0.37c0.06-0.07,0.17-0.1,0.33-0.1c0.09,0,0.19,0.01,0.3,0.03l0.08-0.44
	c-0.17-0.03-0.33-0.05-0.47-0.05c-0.22,0-0.39,0.04-0.52,0.12c-0.12,0.08-0.21,0.19-0.26,0.32c-0.04,0.1-0.05,0.25-0.05,0.45v0.32
	h-0.45v0.39h0.45v2.59H78.92L78.92,49.7z M80.4,49.7v-1.56c0-0.21,0.03-0.41,0.08-0.59c0.04-0.12,0.1-0.21,0.19-0.28
	c0.09-0.07,0.19-0.1,0.3-0.1c0.12,0,0.25,0.04,0.37,0.11l0.17-0.47c-0.18-0.11-0.35-0.16-0.52-0.16c-0.12,0-0.23,0.03-0.33,0.1
	c-0.1,0.07-0.21,0.21-0.32,0.42v-0.45h-0.46v2.99H80.4L80.4,49.7z M82.32,46.16v-0.58h-0.51v0.58H82.32L82.32,46.16z M82.32,49.7
	v-2.99h-0.51v2.99H82.32L82.32,49.7z M84.79,49.17c-0.13,0.12-0.3,0.18-0.5,0.18c-0.25,0-0.45-0.09-0.6-0.27
	c-0.15-0.18-0.23-0.47-0.23-0.88c0-0.4,0.08-0.69,0.24-0.87c0.16-0.18,0.37-0.27,0.62-0.27c0.17,0,0.31,0.05,0.43,0.15
	c0.12,0.1,0.2,0.25,0.25,0.45l0.49-0.08c-0.06-0.3-0.19-0.54-0.4-0.7c-0.21-0.16-0.47-0.25-0.8-0.25c-0.26,0-0.49,0.06-0.71,0.18
	c-0.22,0.12-0.38,0.3-0.49,0.54s-0.16,0.52-0.16,0.85c0,0.5,0.12,0.88,0.37,1.15c0.25,0.27,0.58,0.4,0.99,0.4
	c0.33,0,0.6-0.1,0.83-0.29c0.22-0.19,0.36-0.46,0.42-0.81l-0.5-0.06C85.01,48.86,84.93,49.05,84.79,49.17L84.79,49.17z M88.03,49.7
	h0.53c-0.06-0.11-0.11-0.23-0.13-0.36c-0.02-0.12-0.03-0.42-0.03-0.89v-0.68c0-0.23-0.01-0.38-0.03-0.47
	c-0.03-0.14-0.08-0.25-0.16-0.34c-0.08-0.09-0.19-0.17-0.35-0.23c-0.16-0.06-0.37-0.09-0.62-0.09c-0.26,0-0.48,0.04-0.68,0.11
	c-0.2,0.07-0.34,0.17-0.45,0.3c-0.1,0.13-0.18,0.3-0.22,0.51l0.5,0.07c0.05-0.21,0.14-0.36,0.25-0.44c0.11-0.08,0.29-0.13,0.53-0.13
	c0.26,0,0.45,0.06,0.58,0.17c0.1,0.08,0.14,0.23,0.14,0.44c0,0.02,0,0.06,0,0.13c-0.19,0.07-0.49,0.13-0.9,0.17
	c-0.2,0.02-0.35,0.05-0.45,0.08c-0.14,0.04-0.26,0.09-0.36,0.17c-0.11,0.07-0.2,0.17-0.26,0.29c-0.07,0.12-0.1,0.25-0.1,0.4
	c0,0.25,0.09,0.45,0.26,0.61c0.18,0.16,0.43,0.24,0.76,0.24c0.2,0,0.39-0.03,0.56-0.1c0.17-0.07,0.35-0.18,0.54-0.34
	C87.94,49.47,87.98,49.59,88.03,49.7L88.03,49.7L88.03,49.7z M87.89,48.38c0,0.22-0.03,0.39-0.08,0.51
	c-0.07,0.15-0.18,0.27-0.33,0.35c-0.15,0.09-0.33,0.13-0.52,0.13c-0.2,0-0.35-0.05-0.45-0.14c-0.1-0.09-0.15-0.2-0.15-0.34
	c0-0.09,0.02-0.17,0.07-0.24c0.05-0.07,0.11-0.13,0.2-0.16c0.09-0.04,0.23-0.07,0.44-0.1c0.37-0.05,0.64-0.12,0.83-0.19V48.38
	L87.89,48.38z"/>
<path class="st5" d="M206.51,34.6l0.45-1.25h1.73l0.48,1.25h0.62l-1.69-4.13h-0.59l-1.58,4.13H206.51L206.51,34.6z M207.57,31.7
	c0.1-0.26,0.17-0.52,0.22-0.79c0.06,0.22,0.16,0.51,0.29,0.86l0.43,1.14h-1.4L207.57,31.7L207.57,31.7z M210.35,34.43
	c0.2,0.16,0.5,0.24,0.89,0.24c0.23,0,0.44-0.04,0.63-0.12c0.19-0.08,0.33-0.2,0.43-0.35c0.1-0.15,0.15-0.31,0.15-0.48
	c0-0.17-0.04-0.32-0.12-0.43c-0.08-0.12-0.19-0.2-0.33-0.27c-0.14-0.06-0.39-0.14-0.75-0.24c-0.25-0.07-0.4-0.11-0.45-0.13
	c-0.09-0.04-0.15-0.08-0.19-0.14c-0.04-0.05-0.06-0.11-0.06-0.18c0-0.1,0.05-0.19,0.15-0.27c0.1-0.08,0.27-0.12,0.5-0.12
	c0.2,0,0.35,0.04,0.46,0.13c0.11,0.09,0.17,0.21,0.2,0.36l0.5-0.07c-0.03-0.19-0.09-0.35-0.17-0.46c-0.08-0.12-0.22-0.21-0.39-0.27
	c-0.18-0.07-0.38-0.1-0.62-0.1c-0.16,0-0.3,0.02-0.44,0.06c-0.14,0.04-0.24,0.09-0.32,0.15c-0.11,0.08-0.19,0.17-0.25,0.28
	c-0.06,0.11-0.09,0.24-0.09,0.37c0,0.15,0.04,0.28,0.11,0.4c0.07,0.12,0.18,0.22,0.33,0.28c0.14,0.07,0.4,0.15,0.77,0.24
	c0.28,0.07,0.45,0.13,0.52,0.17c0.1,0.07,0.15,0.16,0.15,0.27c0,0.13-0.06,0.24-0.17,0.33c-0.11,0.09-0.29,0.14-0.52,0.14
	c-0.23,0-0.41-0.05-0.54-0.16s-0.21-0.26-0.23-0.46l-0.5,0.08C210.01,34.03,210.14,34.27,210.35,34.43L210.35,34.43z M213.55,31.06
	v-0.58h-0.51v0.58H213.55L213.55,31.06z M213.55,34.6v-2.99h-0.51v2.99H213.55L213.55,34.6z M216.37,34.6h0.53
	c-0.06-0.11-0.11-0.23-0.13-0.36c-0.02-0.12-0.03-0.42-0.03-0.89v-0.68c0-0.23-0.01-0.38-0.03-0.47c-0.03-0.14-0.08-0.25-0.16-0.34
	c-0.08-0.09-0.19-0.17-0.35-0.23c-0.16-0.06-0.37-0.09-0.62-0.09c-0.26,0-0.48,0.04-0.68,0.11c-0.2,0.07-0.34,0.17-0.45,0.3
	c-0.1,0.13-0.18,0.3-0.22,0.51l0.5,0.07c0.05-0.21,0.14-0.36,0.25-0.44c0.11-0.08,0.29-0.13,0.53-0.13c0.26,0,0.45,0.06,0.58,0.17
	c0.1,0.08,0.14,0.23,0.14,0.44c0,0.02,0,0.06,0,0.13c-0.19,0.07-0.49,0.13-0.9,0.17c-0.2,0.02-0.35,0.05-0.45,0.08
	c-0.14,0.04-0.26,0.09-0.36,0.17c-0.11,0.07-0.2,0.17-0.26,0.29c-0.07,0.12-0.1,0.25-0.1,0.4c0,0.25,0.09,0.45,0.26,0.61
	c0.18,0.16,0.43,0.24,0.76,0.24c0.2,0,0.39-0.03,0.56-0.1c0.17-0.07,0.35-0.18,0.54-0.34C216.29,34.38,216.32,34.5,216.37,34.6
	L216.37,34.6L216.37,34.6z M216.23,33.29c0,0.22-0.03,0.39-0.08,0.51c-0.07,0.15-0.18,0.27-0.33,0.35
	c-0.15,0.09-0.33,0.13-0.52,0.13c-0.2,0-0.35-0.05-0.45-0.14c-0.1-0.09-0.15-0.2-0.15-0.34c0-0.09,0.02-0.17,0.07-0.24
	c0.05-0.07,0.11-0.13,0.2-0.16c0.09-0.04,0.23-0.07,0.44-0.1c0.37-0.05,0.64-0.12,0.83-0.19V33.29L216.23,33.29z"/>
<path class="st5" d="M65.36,74.04v-0.49h-2.53v-1.4h2.28v-0.48h-2.28V70.4h2.44v-0.49h-2.98v4.13H65.36L65.36,74.04z M68.46,74.04
	v-2.99h-0.51v1.6c0,0.26-0.03,0.45-0.08,0.58c-0.06,0.13-0.15,0.24-0.28,0.32c-0.13,0.08-0.28,0.12-0.43,0.12s-0.28-0.04-0.38-0.11
	c-0.1-0.08-0.17-0.18-0.2-0.31c-0.02-0.09-0.03-0.27-0.03-0.53v-1.66h-0.51v1.85c0,0.22,0.01,0.37,0.03,0.47
	c0.03,0.15,0.08,0.27,0.16,0.38c0.07,0.1,0.19,0.19,0.34,0.25c0.15,0.07,0.32,0.1,0.49,0.1c0.4,0,0.72-0.17,0.95-0.51v0.44H68.46
	L68.46,74.04z M69.76,74.04v-1.56c0-0.21,0.03-0.41,0.08-0.59c0.04-0.12,0.1-0.21,0.19-0.28c0.09-0.07,0.19-0.1,0.3-0.1
	c0.12,0,0.25,0.04,0.37,0.11l0.17-0.47c-0.18-0.11-0.35-0.16-0.52-0.16c-0.12,0-0.23,0.03-0.33,0.1c-0.1,0.07-0.21,0.21-0.32,0.42
	v-0.45h-0.46v2.99H69.76L69.76,74.04z M71.37,73.71c0.26,0.27,0.6,0.4,1.01,0.4c0.26,0,0.5-0.06,0.72-0.18
	c0.22-0.12,0.39-0.29,0.5-0.51c0.12-0.22,0.17-0.52,0.17-0.91c0-0.47-0.13-0.85-0.39-1.12c-0.26-0.27-0.6-0.4-1.01-0.4
	c-0.37,0-0.68,0.11-0.94,0.33c-0.31,0.27-0.46,0.68-0.46,1.23C70.99,73.05,71.12,73.44,71.37,73.71L71.37,73.71z M71.76,71.69
	c0.17-0.19,0.38-0.28,0.63-0.28c0.25,0,0.46,0.1,0.63,0.29c0.17,0.19,0.25,0.47,0.25,0.84c0,0.39-0.08,0.68-0.25,0.88
	c-0.17,0.19-0.38,0.29-0.63,0.29c-0.25,0-0.46-0.1-0.63-0.29c-0.17-0.19-0.25-0.48-0.25-0.86S71.59,71.88,71.76,71.69L71.76,71.69z
	 M74.89,75.19v-1.46c0.09,0.11,0.2,0.2,0.33,0.27c0.13,0.07,0.29,0.11,0.45,0.11c0.23,0,0.45-0.07,0.66-0.2
	c0.21-0.13,0.37-0.32,0.48-0.56c0.11-0.24,0.16-0.52,0.16-0.83c0-0.29-0.05-0.55-0.15-0.79c-0.1-0.24-0.25-0.42-0.44-0.56
	c-0.2-0.13-0.42-0.2-0.68-0.2c-0.2,0-0.36,0.04-0.5,0.11c-0.14,0.08-0.26,0.19-0.37,0.34v-0.39h-0.46v4.13H74.89L74.89,75.19z
	 M75.09,71.68c0.17-0.2,0.36-0.3,0.57-0.3c0.22,0,0.4,0.09,0.56,0.28c0.16,0.19,0.24,0.47,0.24,0.86c0,0.4-0.08,0.69-0.24,0.89
	c-0.16,0.19-0.35,0.29-0.58,0.29c-0.22,0-0.41-0.09-0.57-0.28c-0.16-0.18-0.23-0.47-0.23-0.85C74.84,72.18,74.92,71.89,75.09,71.68
	L75.09,71.68z M79.32,73.55c-0.13,0.1-0.29,0.15-0.48,0.15c-0.25,0-0.46-0.09-0.62-0.26c-0.17-0.17-0.26-0.43-0.28-0.75h2.23
	c0-0.06,0-0.11,0-0.14c0-0.49-0.13-0.88-0.38-1.15c-0.25-0.27-0.58-0.41-0.98-0.41c-0.41,0-0.75,0.14-1.01,0.42
	c-0.26,0.28-0.39,0.67-0.39,1.17c0,0.49,0.13,0.86,0.38,1.13c0.26,0.27,0.6,0.4,1.04,0.4c0.35,0,0.63-0.08,0.86-0.25
	c0.22-0.17,0.38-0.41,0.46-0.71l-0.52-0.06C79.56,73.29,79.45,73.45,79.32,73.55L79.32,73.55z M78.23,71.64
	c0.16-0.16,0.35-0.23,0.59-0.23c0.26,0,0.47,0.1,0.63,0.29c0.11,0.13,0.17,0.31,0.19,0.57h-1.67C77.99,72,78.07,71.79,78.23,71.64
	L78.23,71.64z"/>
<path class="st5" d="M22.98,48.85v-3.24l2.17,3.24h0.56v-4.13h-0.52v3.24l-2.17-3.24h-0.56v4.13H22.98L22.98,48.85z M26.76,48.51
	c0.26,0.27,0.6,0.4,1.01,0.4c0.26,0,0.5-0.06,0.72-0.18c0.22-0.12,0.39-0.29,0.5-0.51c0.12-0.22,0.17-0.52,0.17-0.91
	c0-0.47-0.13-0.85-0.39-1.12c-0.26-0.27-0.6-0.4-1.01-0.4c-0.37,0-0.68,0.11-0.94,0.33c-0.31,0.27-0.46,0.68-0.46,1.23
	C26.37,47.86,26.5,48.24,26.76,48.51L26.76,48.51z M27.14,46.49c0.17-0.19,0.38-0.28,0.63-0.28c0.25,0,0.46,0.1,0.63,0.29
	c0.17,0.19,0.25,0.47,0.25,0.84c0,0.39-0.08,0.68-0.25,0.88c-0.17,0.19-0.38,0.29-0.63,0.29c-0.25,0-0.46-0.1-0.63-0.29
	c-0.17-0.19-0.25-0.48-0.25-0.86S26.97,46.68,27.14,46.49L27.14,46.49z M30.26,48.85v-1.56c0-0.21,0.03-0.41,0.08-0.59
	c0.04-0.12,0.1-0.21,0.19-0.28c0.09-0.07,0.19-0.1,0.3-0.1c0.12,0,0.25,0.04,0.37,0.11l0.17-0.47c-0.18-0.11-0.35-0.16-0.52-0.16
	c-0.12,0-0.23,0.03-0.33,0.1c-0.1,0.07-0.21,0.21-0.32,0.42v-0.45h-0.46v2.99H30.26L30.26,48.85z M32.57,48.41
	c-0.08,0-0.13-0.01-0.17-0.04c-0.04-0.02-0.07-0.06-0.09-0.1c-0.02-0.04-0.03-0.13-0.03-0.28v-1.75h0.51v-0.39h-0.51v-1.04l-0.5,0.3
	v0.74H31.4v0.39h0.37v1.72c0,0.3,0.02,0.5,0.06,0.6c0.04,0.09,0.11,0.17,0.21,0.23c0.1,0.06,0.24,0.09,0.43,0.09
	c0.11,0,0.24-0.02,0.38-0.05l-0.07-0.45C32.7,48.41,32.62,48.41,32.57,48.41L32.57,48.41L32.57,48.41z M33.79,48.85v-1.64
	c0-0.23,0.03-0.42,0.08-0.55c0.06-0.13,0.15-0.24,0.28-0.32c0.13-0.08,0.27-0.12,0.42-0.12c0.2,0,0.36,0.06,0.47,0.17
	s0.16,0.3,0.16,0.55v1.89h0.51v-1.89c0-0.29-0.04-0.52-0.11-0.67c-0.07-0.15-0.19-0.27-0.35-0.36c-0.16-0.09-0.36-0.13-0.58-0.13
	c-0.36,0-0.66,0.14-0.89,0.41v-1.48h-0.51v4.13H33.79L33.79,48.85z M38.28,48.85l0.45-1.25h1.73l0.48,1.25h0.62l-1.69-4.13h-0.59
	l-1.58,4.13H38.28L38.28,48.85z M39.35,45.94c0.1-0.26,0.17-0.52,0.22-0.79c0.06,0.22,0.16,0.51,0.29,0.86l0.43,1.14h-1.4
	L39.35,45.94L39.35,45.94z M42.44,48.85V47.3c0-0.27,0.03-0.48,0.08-0.62c0.05-0.14,0.14-0.25,0.26-0.33
	c0.12-0.08,0.25-0.11,0.4-0.11c0.19,0,0.32,0.06,0.41,0.17c0.08,0.11,0.12,0.28,0.12,0.51v1.94h0.51v-1.74
	c0-0.31,0.07-0.53,0.21-0.67c0.14-0.14,0.31-0.21,0.52-0.21c0.12,0,0.22,0.03,0.3,0.08c0.09,0.05,0.15,0.13,0.18,0.22
	c0.03,0.09,0.05,0.24,0.05,0.44v1.88h0.5V46.8c0-0.34-0.08-0.59-0.24-0.76c-0.16-0.16-0.39-0.25-0.68-0.25
	c-0.38,0-0.69,0.17-0.92,0.52c-0.06-0.17-0.16-0.29-0.3-0.39c-0.14-0.09-0.32-0.14-0.54-0.14c-0.2,0-0.38,0.04-0.53,0.13
	c-0.16,0.09-0.28,0.21-0.37,0.35v-0.42h-0.45v2.99H42.44L42.44,48.85z M48.47,48.35c-0.13,0.1-0.29,0.15-0.48,0.15
	c-0.25,0-0.46-0.09-0.62-0.26c-0.17-0.17-0.26-0.43-0.28-0.75h2.23c0-0.06,0-0.11,0-0.14c0-0.49-0.13-0.88-0.38-1.15
	c-0.25-0.27-0.58-0.41-0.98-0.41c-0.41,0-0.75,0.14-1.01,0.42c-0.26,0.28-0.39,0.67-0.39,1.17c0,0.49,0.13,0.86,0.38,1.13
	c0.26,0.27,0.6,0.4,1.04,0.4c0.35,0,0.63-0.08,0.86-0.25c0.22-0.17,0.38-0.41,0.46-0.71l-0.52-0.06
	C48.71,48.1,48.6,48.25,48.47,48.35L48.47,48.35z M47.38,46.44c0.16-0.16,0.35-0.23,0.59-0.23c0.26,0,0.47,0.1,0.63,0.29
	c0.11,0.13,0.17,0.31,0.19,0.57h-1.67C47.14,46.81,47.22,46.6,47.38,46.44L47.38,46.44z M50.44,48.85v-1.56
	c0-0.21,0.03-0.41,0.08-0.59c0.04-0.12,0.1-0.21,0.19-0.28c0.09-0.07,0.19-0.1,0.3-0.1c0.12,0,0.25,0.04,0.37,0.11l0.17-0.47
	c-0.18-0.11-0.35-0.16-0.52-0.16c-0.12,0-0.23,0.03-0.33,0.1c-0.1,0.07-0.21,0.21-0.32,0.42v-0.45h-0.46v2.99H50.44L50.44,48.85z
	 M52.37,45.3v-0.58h-0.51v0.58H52.37L52.37,45.3z M52.37,48.85v-2.99h-0.51v2.99H52.37L52.37,48.85z M54.84,48.32
	c-0.13,0.12-0.3,0.18-0.5,0.18c-0.25,0-0.45-0.09-0.6-0.27c-0.15-0.18-0.23-0.47-0.23-0.88c0-0.4,0.08-0.69,0.24-0.87
	c0.16-0.18,0.37-0.27,0.62-0.27c0.17,0,0.31,0.05,0.43,0.15c0.12,0.1,0.2,0.25,0.25,0.45l0.49-0.08c-0.06-0.3-0.19-0.54-0.4-0.7
	c-0.21-0.16-0.47-0.25-0.8-0.25c-0.26,0-0.49,0.06-0.71,0.18c-0.22,0.12-0.38,0.3-0.49,0.54s-0.16,0.52-0.16,0.85
	c0,0.5,0.12,0.88,0.37,1.15c0.25,0.27,0.58,0.4,0.99,0.4c0.33,0,0.6-0.1,0.83-0.29c0.22-0.19,0.36-0.46,0.42-0.81l-0.5-0.06
	C55.06,48.01,54.97,48.19,54.84,48.32L54.84,48.32z M58.08,48.85h0.53c-0.06-0.11-0.11-0.23-0.13-0.36
	c-0.02-0.12-0.03-0.42-0.03-0.89v-0.68c0-0.23-0.01-0.38-0.03-0.47c-0.03-0.14-0.08-0.25-0.16-0.34c-0.08-0.09-0.19-0.17-0.35-0.23
	c-0.16-0.06-0.37-0.09-0.62-0.09c-0.26,0-0.48,0.04-0.68,0.11c-0.2,0.07-0.34,0.17-0.45,0.3c-0.1,0.13-0.18,0.3-0.22,0.51l0.5,0.07
	c0.05-0.21,0.14-0.36,0.25-0.44c0.11-0.08,0.29-0.13,0.53-0.13c0.26,0,0.45,0.06,0.58,0.17c0.1,0.08,0.14,0.23,0.14,0.44
	c0,0.02,0,0.06,0,0.13c-0.19,0.07-0.49,0.13-0.9,0.17c-0.2,0.02-0.35,0.05-0.45,0.08c-0.14,0.04-0.26,0.09-0.36,0.17
	c-0.11,0.07-0.2,0.17-0.26,0.29c-0.07,0.12-0.1,0.25-0.1,0.4c0,0.25,0.09,0.45,0.26,0.61c0.18,0.16,0.43,0.24,0.76,0.24
	c0.2,0,0.39-0.03,0.56-0.1c0.17-0.07,0.35-0.18,0.54-0.34C57.99,48.62,58.02,48.74,58.08,48.85L58.08,48.85L58.08,48.85z
	 M57.93,47.53c0,0.22-0.03,0.39-0.08,0.51c-0.07,0.15-0.18,0.27-0.33,0.35c-0.15,0.09-0.33,0.13-0.52,0.13
	c-0.2,0-0.35-0.05-0.45-0.14c-0.1-0.09-0.15-0.2-0.15-0.34c0-0.09,0.02-0.17,0.07-0.24c0.05-0.07,0.11-0.13,0.2-0.16
	c0.09-0.04,0.23-0.07,0.44-0.1c0.37-0.05,0.64-0.12,0.83-0.19V47.53L57.93,47.53z"/>
<path class="st5" d="M21.14,83.7c0.16,0.32,0.39,0.58,0.7,0.77c0.31,0.19,0.65,0.28,1.04,0.28c0.36,0,0.69-0.08,1-0.25
	c0.31-0.17,0.55-0.42,0.72-0.75c0.17-0.33,0.25-0.7,0.25-1.12c0-0.41-0.08-0.78-0.24-1.11c-0.16-0.33-0.39-0.58-0.7-0.76
	c-0.31-0.18-0.65-0.27-1.03-0.27c-0.58,0-1.06,0.19-1.42,0.58c-0.37,0.39-0.55,0.92-0.55,1.61C20.9,83.04,20.98,83.38,21.14,83.7
	L21.14,83.7z M21.88,81.35c0.28-0.27,0.61-0.4,1-0.4c0.27,0,0.52,0.07,0.74,0.21c0.22,0.14,0.38,0.33,0.5,0.58
	c0.11,0.25,0.17,0.54,0.17,0.88c0,0.53-0.13,0.94-0.4,1.23c-0.27,0.29-0.6,0.43-1.01,0.43c-0.4,0-0.74-0.14-1.01-0.43
	c-0.27-0.29-0.4-0.68-0.4-1.17C21.46,82.06,21.6,81.62,21.88,81.35L21.88,81.35z M27.18,84.15c-0.13,0.12-0.3,0.18-0.5,0.18
	c-0.25,0-0.45-0.09-0.6-0.27c-0.15-0.18-0.23-0.47-0.23-0.88c0-0.4,0.08-0.69,0.24-0.87c0.16-0.18,0.37-0.27,0.62-0.27
	c0.17,0,0.31,0.05,0.43,0.15c0.12,0.1,0.2,0.25,0.25,0.45l0.49-0.08c-0.06-0.3-0.19-0.54-0.4-0.7c-0.21-0.16-0.47-0.25-0.8-0.25
	c-0.26,0-0.49,0.06-0.71,0.18c-0.22,0.12-0.38,0.3-0.49,0.54s-0.16,0.52-0.16,0.85c0,0.5,0.12,0.88,0.37,1.15
	c0.25,0.27,0.58,0.4,0.99,0.4c0.33,0,0.6-0.1,0.83-0.29c0.22-0.19,0.36-0.46,0.42-0.81l-0.5-0.06
	C27.4,83.84,27.31,84.03,27.18,84.15L27.18,84.15z M30.1,84.19c-0.13,0.1-0.29,0.15-0.48,0.15c-0.25,0-0.46-0.09-0.62-0.26
	c-0.17-0.17-0.26-0.43-0.28-0.75h2.23c0-0.06,0-0.11,0-0.14c0-0.49-0.13-0.88-0.38-1.15c-0.25-0.27-0.58-0.41-0.98-0.41
	c-0.41,0-0.75,0.14-1.01,0.42c-0.26,0.28-0.39,0.67-0.39,1.17c0,0.49,0.13,0.86,0.38,1.13c0.26,0.27,0.6,0.4,1.04,0.4
	c0.35,0,0.63-0.08,0.86-0.25c0.22-0.17,0.38-0.41,0.46-0.71l-0.52-0.06C30.34,83.93,30.23,84.09,30.1,84.19L30.1,84.19z
	 M29.01,82.28c0.16-0.16,0.35-0.23,0.59-0.23c0.26,0,0.47,0.1,0.63,0.29c0.11,0.13,0.17,0.31,0.19,0.57h-1.67
	C28.77,82.64,28.85,82.43,29.01,82.28L29.01,82.28z M33.62,84.68h0.53c-0.06-0.11-0.11-0.23-0.13-0.36
	c-0.02-0.12-0.03-0.42-0.03-0.89v-0.68c0-0.23-0.01-0.38-0.03-0.47c-0.03-0.14-0.08-0.25-0.16-0.34c-0.08-0.09-0.19-0.17-0.35-0.23
	c-0.16-0.06-0.37-0.09-0.62-0.09c-0.26,0-0.48,0.04-0.68,0.11c-0.2,0.07-0.34,0.17-0.45,0.3c-0.1,0.13-0.18,0.3-0.22,0.51l0.5,0.07
	c0.05-0.21,0.14-0.36,0.25-0.44c0.11-0.08,0.29-0.13,0.53-0.13c0.26,0,0.45,0.06,0.58,0.17c0.1,0.08,0.14,0.23,0.14,0.44
	c0,0.02,0,0.06,0,0.13c-0.19,0.07-0.49,0.13-0.9,0.17c-0.2,0.02-0.35,0.05-0.45,0.08c-0.14,0.04-0.26,0.09-0.36,0.17
	c-0.11,0.07-0.2,0.17-0.26,0.29c-0.07,0.12-0.1,0.25-0.1,0.4c0,0.25,0.09,0.45,0.26,0.61c0.18,0.16,0.43,0.24,0.76,0.24
	c0.2,0,0.39-0.03,0.56-0.1c0.17-0.07,0.35-0.18,0.54-0.34C33.54,84.46,33.57,84.58,33.62,84.68L33.62,84.68L33.62,84.68z
	 M33.48,83.37c0,0.22-0.03,0.39-0.08,0.51c-0.07,0.15-0.18,0.27-0.33,0.35c-0.15,0.09-0.33,0.13-0.52,0.13
	c-0.2,0-0.35-0.05-0.45-0.14c-0.1-0.09-0.15-0.2-0.15-0.34c0-0.09,0.02-0.17,0.07-0.24c0.05-0.07,0.11-0.13,0.2-0.16
	c0.09-0.04,0.23-0.07,0.44-0.1c0.37-0.05,0.64-0.12,0.83-0.19V83.37L33.48,83.37z M35.28,84.68v-1.63c0-0.38,0.08-0.64,0.24-0.78
	c0.16-0.14,0.34-0.21,0.56-0.21c0.14,0,0.25,0.03,0.35,0.09c0.1,0.06,0.17,0.14,0.21,0.24c0.04,0.1,0.06,0.26,0.06,0.46v1.82h0.51
	v-1.84c0-0.23-0.01-0.4-0.03-0.49c-0.03-0.14-0.08-0.27-0.16-0.37c-0.08-0.11-0.19-0.19-0.34-0.25c-0.15-0.06-0.32-0.1-0.5-0.1
	c-0.41,0-0.73,0.16-0.95,0.49v-0.42h-0.46v2.99H35.28L35.28,84.68z M38.49,81.14v-0.58h-0.51v0.58H38.49L38.49,81.14z M38.49,84.68
	v-2.99h-0.51v2.99H38.49L38.49,84.68z M41.31,84.68h0.53c-0.06-0.11-0.11-0.23-0.13-0.36c-0.02-0.12-0.03-0.42-0.03-0.89v-0.68
	c0-0.23-0.01-0.38-0.03-0.47c-0.03-0.14-0.08-0.25-0.16-0.34c-0.08-0.09-0.19-0.17-0.35-0.23c-0.16-0.06-0.37-0.09-0.62-0.09
	c-0.26,0-0.48,0.04-0.68,0.11c-0.2,0.07-0.34,0.17-0.45,0.3c-0.1,0.13-0.18,0.3-0.22,0.51l0.5,0.07c0.05-0.21,0.14-0.36,0.25-0.44
	c0.11-0.08,0.29-0.13,0.53-0.13c0.26,0,0.45,0.06,0.58,0.17c0.1,0.08,0.14,0.23,0.14,0.44c0,0.02,0,0.06,0,0.13
	c-0.19,0.07-0.49,0.13-0.9,0.17c-0.2,0.02-0.35,0.05-0.45,0.08c-0.14,0.04-0.26,0.09-0.36,0.17c-0.11,0.07-0.2,0.17-0.26,0.29
	c-0.07,0.12-0.1,0.25-0.1,0.4c0,0.25,0.09,0.45,0.26,0.61c0.18,0.16,0.43,0.24,0.76,0.24c0.2,0,0.39-0.03,0.56-0.1
	c0.17-0.07,0.35-0.18,0.54-0.34C41.23,84.46,41.26,84.58,41.31,84.68L41.31,84.68L41.31,84.68z M41.17,83.37
	c0,0.22-0.03,0.39-0.08,0.51c-0.07,0.15-0.18,0.27-0.33,0.35c-0.15,0.09-0.33,0.13-0.52,0.13c-0.2,0-0.35-0.05-0.45-0.14
	c-0.1-0.09-0.15-0.2-0.15-0.34c0-0.09,0.02-0.17,0.07-0.24c0.05-0.07,0.11-0.13,0.2-0.16c0.09-0.04,0.23-0.07,0.44-0.1
	c0.37-0.05,0.64-0.12,0.83-0.19V83.37L41.17,83.37z"/>
<path class="st5" d="M34.06,181.84c0.14,0.22,0.34,0.38,0.59,0.49c0.25,0.11,0.57,0.16,0.94,0.16c0.29,0,0.56-0.05,0.8-0.16
	c0.24-0.11,0.42-0.26,0.54-0.45c0.13-0.19,0.19-0.4,0.19-0.62c0-0.22-0.06-0.42-0.17-0.59c-0.11-0.17-0.29-0.31-0.53-0.42
	c-0.17-0.08-0.47-0.16-0.91-0.26c-0.44-0.1-0.72-0.2-0.82-0.29c-0.11-0.1-0.16-0.22-0.16-0.37c0-0.17,0.08-0.32,0.23-0.44
	c0.15-0.12,0.39-0.18,0.72-0.18c0.32,0,0.56,0.07,0.72,0.2c0.16,0.13,0.26,0.33,0.29,0.59l0.52-0.04c-0.01-0.24-0.08-0.46-0.2-0.65
	c-0.13-0.19-0.31-0.34-0.54-0.43c-0.23-0.1-0.5-0.15-0.81-0.15c-0.28,0-0.53,0.05-0.76,0.14c-0.23,0.09-0.4,0.23-0.52,0.41
	c-0.12,0.18-0.18,0.38-0.18,0.58c0,0.19,0.05,0.36,0.14,0.51c0.1,0.15,0.24,0.28,0.44,0.38c0.15,0.08,0.42,0.17,0.8,0.26
	c0.38,0.09,0.62,0.16,0.73,0.2c0.17,0.07,0.3,0.15,0.37,0.24c0.08,0.1,0.11,0.21,0.11,0.34c0,0.13-0.04,0.25-0.12,0.35
	c-0.08,0.11-0.2,0.19-0.36,0.25c-0.16,0.06-0.34,0.09-0.55,0.09c-0.23,0-0.45-0.04-0.63-0.12c-0.19-0.08-0.33-0.19-0.42-0.32
	c-0.09-0.13-0.15-0.3-0.17-0.51l-0.52,0.05C33.84,181.38,33.92,181.62,34.06,181.84L34.06,181.84z M38,182.09
	c0.26,0.27,0.6,0.4,1.01,0.4c0.26,0,0.5-0.06,0.72-0.18c0.22-0.12,0.39-0.29,0.5-0.51c0.12-0.22,0.17-0.52,0.17-0.91
	c0-0.47-0.13-0.85-0.39-1.12c-0.26-0.27-0.6-0.4-1.01-0.4c-0.37,0-0.68,0.11-0.94,0.33c-0.31,0.27-0.46,0.68-0.46,1.23
	C37.61,181.44,37.74,181.82,38,182.09L38,182.09z M38.38,180.07c0.17-0.19,0.38-0.28,0.63-0.28c0.25,0,0.46,0.1,0.63,0.29
	c0.17,0.19,0.25,0.47,0.25,0.84c0,0.39-0.08,0.68-0.25,0.88c-0.17,0.19-0.38,0.29-0.63,0.29c-0.25,0-0.46-0.1-0.63-0.29
	c-0.17-0.19-0.25-0.48-0.25-0.86S38.21,180.26,38.38,180.07L38.38,180.07z M43.42,182.43v-2.99h-0.51v1.6
	c0,0.26-0.03,0.45-0.08,0.58c-0.06,0.13-0.15,0.24-0.28,0.32c-0.13,0.08-0.28,0.12-0.43,0.12s-0.28-0.04-0.38-0.11
	c-0.1-0.08-0.17-0.18-0.2-0.31c-0.02-0.09-0.03-0.27-0.03-0.53v-1.66h-0.51v1.85c0,0.22,0.01,0.37,0.03,0.47
	c0.03,0.15,0.08,0.27,0.16,0.38c0.07,0.1,0.19,0.19,0.34,0.25c0.15,0.07,0.32,0.1,0.49,0.1c0.4,0,0.72-0.17,0.95-0.51v0.44H43.42
	L43.42,182.43z M45.09,181.99c-0.08,0-0.13-0.01-0.17-0.04c-0.04-0.02-0.07-0.06-0.09-0.1c-0.02-0.04-0.03-0.13-0.03-0.28v-1.75
	h0.51v-0.39h-0.51v-1.04l-0.5,0.3v0.74h-0.37v0.39h0.37v1.72c0,0.3,0.02,0.5,0.06,0.6c0.04,0.09,0.11,0.17,0.21,0.23
	c0.1,0.06,0.24,0.09,0.43,0.09c0.11,0,0.24-0.02,0.38-0.05l-0.07-0.45C45.22,181.99,45.15,181.99,45.09,181.99L45.09,181.99
	L45.09,181.99z M46.32,182.43v-1.64c0-0.23,0.03-0.42,0.08-0.55c0.06-0.13,0.15-0.24,0.28-0.32c0.13-0.08,0.27-0.12,0.42-0.12
	c0.2,0,0.36,0.06,0.47,0.17s0.16,0.3,0.16,0.55v1.89h0.51v-1.89c0-0.29-0.04-0.52-0.11-0.67c-0.07-0.15-0.19-0.27-0.35-0.36
	c-0.16-0.09-0.36-0.13-0.58-0.13c-0.36,0-0.66,0.14-0.89,0.41v-1.48h-0.51v4.13H46.32L46.32,182.43z M50.81,182.43l0.45-1.25h1.73
	l0.48,1.25h0.62l-1.69-4.13h-0.59l-1.58,4.13H50.81L50.81,182.43z M51.87,179.52c0.1-0.26,0.17-0.52,0.22-0.79
	c0.06,0.22,0.16,0.51,0.29,0.86l0.43,1.14h-1.4L51.87,179.52L51.87,179.52z M54.97,182.43v-1.55c0-0.27,0.03-0.48,0.08-0.62
	c0.05-0.14,0.14-0.25,0.26-0.33c0.12-0.08,0.25-0.11,0.4-0.11c0.19,0,0.32,0.06,0.41,0.17c0.08,0.11,0.12,0.28,0.12,0.51v1.94h0.51
	v-1.74c0-0.31,0.07-0.53,0.21-0.67c0.14-0.14,0.31-0.21,0.52-0.21c0.12,0,0.22,0.03,0.3,0.08c0.09,0.05,0.15,0.13,0.18,0.22
	c0.03,0.09,0.05,0.24,0.05,0.44v1.88h0.5v-2.05c0-0.34-0.08-0.59-0.24-0.76c-0.16-0.16-0.39-0.25-0.68-0.25
	c-0.38,0-0.69,0.17-0.92,0.52c-0.06-0.17-0.16-0.29-0.3-0.39c-0.14-0.09-0.32-0.14-0.54-0.14c-0.2,0-0.38,0.04-0.53,0.13
	c-0.16,0.09-0.28,0.21-0.37,0.35v-0.42h-0.45v2.99H54.97L54.97,182.43z M61,181.93c-0.13,0.1-0.29,0.15-0.48,0.15
	c-0.25,0-0.46-0.09-0.62-0.26c-0.17-0.17-0.26-0.43-0.28-0.75h2.23c0-0.06,0-0.11,0-0.14c0-0.49-0.13-0.88-0.38-1.15
	c-0.25-0.27-0.58-0.41-0.98-0.41c-0.41,0-0.75,0.14-1.01,0.42c-0.26,0.28-0.39,0.67-0.39,1.17c0,0.49,0.13,0.86,0.38,1.13
	c0.26,0.27,0.6,0.4,1.04,0.4c0.35,0,0.63-0.08,0.86-0.25c0.22-0.17,0.38-0.41,0.46-0.71l-0.52-0.06
	C61.23,181.68,61.13,181.83,61,181.93L61,181.93z M59.91,180.02c0.16-0.16,0.35-0.23,0.59-0.23c0.26,0,0.47,0.1,0.63,0.29
	c0.11,0.13,0.17,0.31,0.19,0.57h-1.67C59.66,180.38,59.75,180.18,59.91,180.02L59.91,180.02z M62.97,182.43v-1.56
	c0-0.21,0.03-0.41,0.08-0.59c0.04-0.12,0.1-0.21,0.19-0.28c0.09-0.07,0.19-0.1,0.3-0.1c0.12,0,0.25,0.04,0.37,0.11l0.17-0.47
	c-0.18-0.11-0.35-0.16-0.52-0.16c-0.12,0-0.23,0.03-0.33,0.1c-0.1,0.07-0.21,0.21-0.32,0.42v-0.45h-0.46v2.99H62.97L62.97,182.43z
	 M64.9,178.88v-0.58h-0.51v0.58H64.9L64.9,178.88z M64.9,182.43v-2.99h-0.51v2.99H64.9L64.9,182.43z M67.37,181.89
	c-0.13,0.12-0.3,0.18-0.5,0.18c-0.25,0-0.45-0.09-0.6-0.27c-0.15-0.18-0.23-0.47-0.23-0.88c0-0.4,0.08-0.69,0.24-0.87
	c0.16-0.18,0.37-0.27,0.62-0.27c0.17,0,0.31,0.05,0.43,0.15c0.12,0.1,0.2,0.25,0.25,0.45l0.49-0.08c-0.06-0.3-0.19-0.54-0.4-0.7
	c-0.21-0.16-0.47-0.25-0.8-0.25c-0.26,0-0.49,0.06-0.71,0.18c-0.22,0.12-0.38,0.3-0.49,0.54s-0.16,0.52-0.16,0.85
	c0,0.5,0.12,0.88,0.37,1.15c0.25,0.27,0.58,0.4,0.99,0.4c0.33,0,0.6-0.1,0.83-0.29c0.22-0.19,0.36-0.46,0.42-0.81l-0.5-0.06
	C67.58,181.58,67.5,181.77,67.37,181.89L67.37,181.89z M70.6,182.43h0.53c-0.06-0.11-0.11-0.23-0.13-0.36
	c-0.02-0.12-0.03-0.42-0.03-0.89v-0.68c0-0.23-0.01-0.38-0.03-0.47c-0.03-0.14-0.08-0.25-0.16-0.34c-0.08-0.09-0.19-0.17-0.35-0.23
	c-0.16-0.06-0.37-0.09-0.62-0.09c-0.26,0-0.48,0.04-0.68,0.11c-0.2,0.07-0.34,0.17-0.45,0.3c-0.1,0.13-0.18,0.3-0.22,0.51l0.5,0.07
	c0.05-0.21,0.14-0.36,0.25-0.44c0.11-0.08,0.29-0.13,0.53-0.13c0.26,0,0.45,0.06,0.58,0.17c0.1,0.08,0.14,0.23,0.14,0.44
	c0,0.02,0,0.06,0,0.13c-0.19,0.07-0.49,0.13-0.9,0.17c-0.2,0.02-0.35,0.05-0.45,0.08c-0.14,0.04-0.26,0.09-0.36,0.17
	c-0.11,0.07-0.2,0.17-0.26,0.29c-0.07,0.12-0.1,0.25-0.1,0.4c0,0.25,0.09,0.45,0.26,0.61c0.18,0.16,0.43,0.24,0.76,0.24
	c0.2,0,0.39-0.03,0.56-0.1c0.17-0.07,0.35-0.18,0.54-0.34C70.52,182.2,70.55,182.32,70.6,182.43L70.6,182.43L70.6,182.43z
	 M70.46,181.11c0,0.22-0.03,0.39-0.08,0.51c-0.07,0.15-0.18,0.27-0.33,0.35c-0.15,0.09-0.33,0.13-0.52,0.13
	c-0.2,0-0.35-0.05-0.45-0.14c-0.1-0.09-0.15-0.2-0.15-0.34c0-0.09,0.02-0.17,0.07-0.24c0.05-0.07,0.11-0.13,0.2-0.16
	c0.09-0.04,0.23-0.07,0.44-0.1c0.37-0.05,0.64-0.12,0.83-0.19V181.11L70.46,181.11z"/>
<path class="st6" d="M7.55,175.97v-0.75h-2.3v0.75H7.55L7.55,175.97z M11.31,177.79v-1.46h0.82v-0.68h-0.82v-3.94H10.7l-2.78,3.94
	v0.68h2.64v1.46H11.31L11.31,177.79z M8.65,175.65l1.91-2.74v2.74H8.65L8.65,175.65z"/>
<path class="st6" d="M7.55,147.68v-0.75h-2.3v0.75H7.55L7.55,147.68z M8.77,149.14c0.35,0.32,0.8,0.48,1.33,0.48
	c0.59,0,1.08-0.18,1.47-0.55c0.39-0.37,0.58-0.82,0.58-1.35c0-0.39-0.1-0.72-0.3-0.98s-0.48-0.43-0.84-0.52
	c0.28-0.13,0.49-0.3,0.63-0.51s0.21-0.46,0.21-0.72c0-0.28-0.07-0.54-0.22-0.78c-0.15-0.25-0.36-0.44-0.64-0.58
	c-0.28-0.14-0.59-0.21-0.92-0.21c-0.48,0-0.88,0.14-1.21,0.41c-0.32,0.28-0.53,0.66-0.62,1.16l0.75,0.13
	c0.06-0.37,0.18-0.64,0.37-0.82c0.19-0.18,0.44-0.27,0.73-0.27c0.29,0,0.53,0.09,0.72,0.27c0.19,0.18,0.28,0.41,0.28,0.68
	c0,0.35-0.13,0.6-0.38,0.77c-0.25,0.17-0.54,0.25-0.86,0.25c-0.03,0-0.07,0-0.12-0.01l-0.08,0.66c0.21-0.06,0.39-0.08,0.53-0.08
	c0.35,0,0.63,0.11,0.85,0.33c0.22,0.22,0.34,0.51,0.34,0.85c0,0.36-0.12,0.66-0.36,0.9c-0.24,0.24-0.54,0.37-0.89,0.37
	c-0.3,0-0.55-0.09-0.75-0.28c-0.21-0.19-0.35-0.49-0.44-0.92l-0.75,0.1C8.22,148.41,8.42,148.82,8.77,149.14L8.77,149.14z"/>
<path class="st6" d="M7.55,119.4v-0.75h-2.3v0.75H7.55L7.55,119.4z M9.11,120.5c0.08-0.14,0.19-0.27,0.32-0.4
	c0.13-0.13,0.42-0.39,0.86-0.77c0.54-0.45,0.92-0.81,1.15-1.07c0.23-0.26,0.4-0.51,0.5-0.74c0.1-0.24,0.15-0.47,0.15-0.72
	c0-0.48-0.17-0.88-0.51-1.2s-0.8-0.49-1.39-0.49c-0.58,0-1.04,0.15-1.38,0.45c-0.34,0.3-0.54,0.74-0.59,1.31l0.77,0.08
	c0-0.38,0.11-0.68,0.33-0.9s0.5-0.32,0.86-0.32c0.34,0,0.62,0.1,0.83,0.31s0.32,0.45,0.32,0.75c0,0.28-0.12,0.58-0.35,0.9
	c-0.23,0.32-0.68,0.75-1.34,1.29c-0.43,0.35-0.75,0.66-0.98,0.92c-0.23,0.27-0.39,0.54-0.49,0.81c-0.06,0.17-0.09,0.34-0.09,0.52
	h4.02v-0.72H9.11L9.11,120.5z"/>
<path class="st6" d="M7.55,91.12v-0.75h-2.3v0.75H7.55L7.55,91.12z M10.98,86.83H10.5c-0.13,0.26-0.35,0.53-0.66,0.81
	c-0.31,0.28-0.68,0.52-1.1,0.71v0.72C8.97,89,9.23,88.87,9.52,88.7c0.29-0.17,0.53-0.34,0.71-0.51v4.76h0.75V86.83L10.98,86.83z"/>
<path class="st6" d="M8.77,64.13c0.33,0.42,0.8,0.63,1.38,0.63c0.45,0,0.81-0.12,1.11-0.36c0.29-0.24,0.51-0.58,0.66-1.02
	c0.15-0.44,0.22-1.01,0.22-1.73c0-0.6-0.05-1.08-0.14-1.44c-0.09-0.36-0.22-0.66-0.38-0.9c-0.16-0.25-0.36-0.44-0.61-0.57
	c-0.25-0.13-0.53-0.2-0.86-0.2c-0.44,0-0.81,0.12-1.1,0.36c-0.29,0.24-0.51,0.58-0.66,1.01c-0.15,0.44-0.22,1.02-0.22,1.74
	C8.17,62.8,8.37,63.62,8.77,64.13L8.77,64.13L8.77,64.13z M9.32,59.6c0.2-0.29,0.48-0.44,0.82-0.44c0.35,0,0.64,0.16,0.87,0.49
	c0.23,0.33,0.35,0.99,0.35,2c0,1-0.12,1.66-0.35,1.99c-0.23,0.33-0.52,0.5-0.87,0.5c-0.34,0-0.63-0.17-0.87-0.5
	c-0.23-0.33-0.35-1-0.35-1.99C8.93,60.66,9.06,59.97,9.32,59.6L9.32,59.6L9.32,59.6z"/>
<path class="st6" d="M10.98,30.27H10.5c-0.13,0.26-0.35,0.53-0.66,0.81c-0.31,0.28-0.68,0.52-1.1,0.71v0.72
	c0.23-0.09,0.49-0.21,0.79-0.39c0.29-0.17,0.53-0.34,0.71-0.51v4.76h0.75V30.27L10.98,30.27z"/>
<path class="st6" d="M13.94,204.95c0.33,0.42,0.8,0.63,1.38,0.63c0.45,0,0.81-0.12,1.11-0.36c0.29-0.24,0.51-0.58,0.66-1.02
	c0.15-0.44,0.22-1.01,0.22-1.73c0-0.6-0.05-1.08-0.14-1.44c-0.09-0.36-0.22-0.66-0.38-0.9c-0.16-0.25-0.36-0.44-0.61-0.57
	c-0.25-0.13-0.53-0.2-0.86-0.2c-0.44,0-0.81,0.12-1.1,0.36c-0.29,0.24-0.51,0.58-0.66,1.01c-0.15,0.44-0.22,1.02-0.22,1.74
	C13.33,203.61,13.53,204.44,13.94,204.95L13.94,204.95L13.94,204.95z M14.49,200.42c0.2-0.29,0.48-0.44,0.82-0.44
	c0.35,0,0.64,0.16,0.87,0.49c0.23,0.33,0.35,0.99,0.35,2c0,1-0.12,1.66-0.35,1.99c-0.23,0.33-0.52,0.5-0.87,0.5
	c-0.34,0-0.63-0.17-0.87-0.5c-0.23-0.33-0.35-1-0.35-1.99C14.1,201.47,14.23,200.79,14.49,200.42L14.49,200.42L14.49,200.42z
	 M20.82,204.74c-0.19,0.14-0.43,0.22-0.7,0.22c-0.37,0-0.68-0.13-0.92-0.39c-0.25-0.26-0.38-0.63-0.41-1.11h3.29
	c0-0.09,0-0.15,0-0.2c0-0.73-0.19-1.29-0.56-1.69c-0.37-0.4-0.85-0.6-1.44-0.6c-0.61,0-1.1,0.2-1.49,0.61
	c-0.38,0.41-0.57,0.99-0.57,1.73c0,0.72,0.19,1.27,0.57,1.67c0.38,0.4,0.89,0.6,1.53,0.6c0.51,0,0.93-0.12,1.26-0.37
	c0.33-0.25,0.55-0.6,0.68-1.05l-0.77-0.1C21.17,204.37,21.02,204.6,20.82,204.74L20.82,204.74z M19.22,201.92
	c0.23-0.23,0.52-0.34,0.87-0.34c0.38,0,0.69,0.14,0.93,0.43c0.15,0.19,0.25,0.46,0.28,0.83h-2.46
	C18.86,202.46,18.99,202.15,19.22,201.92L19.22,201.92z M25.27,204.49v-1.67h1.66v-0.7h-1.66v-1.66h-0.71v1.66h-1.66v0.7h1.66v1.67
	H25.27L25.27,204.49z M28.35,204.95c0.33,0.42,0.8,0.63,1.38,0.63c0.45,0,0.81-0.12,1.11-0.36c0.29-0.24,0.51-0.58,0.66-1.02
	c0.15-0.44,0.22-1.01,0.22-1.73c0-0.6-0.05-1.08-0.14-1.44c-0.09-0.36-0.22-0.66-0.38-0.9c-0.16-0.25-0.36-0.44-0.61-0.57
	c-0.25-0.13-0.53-0.2-0.86-0.2c-0.44,0-0.81,0.12-1.1,0.36c-0.29,0.24-0.51,0.58-0.66,1.01c-0.15,0.44-0.22,1.02-0.22,1.74
	C27.75,203.61,27.95,204.44,28.35,204.95L28.35,204.95L28.35,204.95z M28.91,200.42c0.2-0.29,0.48-0.44,0.82-0.44
	c0.35,0,0.64,0.16,0.87,0.49c0.23,0.33,0.35,0.99,0.35,2c0,1-0.12,1.66-0.35,1.99c-0.23,0.33-0.52,0.5-0.87,0.5
	c-0.34,0-0.63-0.17-0.87-0.5c-0.23-0.33-0.35-1-0.35-1.99C28.52,201.47,28.65,200.79,28.91,200.42L28.91,200.42L28.91,200.42z
	 M33.08,204.95c0.33,0.42,0.8,0.63,1.38,0.63c0.45,0,0.81-0.12,1.11-0.36c0.29-0.24,0.51-0.58,0.66-1.02
	c0.15-0.44,0.22-1.01,0.22-1.73c0-0.6-0.05-1.08-0.14-1.44c-0.09-0.36-0.22-0.66-0.38-0.9c-0.16-0.25-0.36-0.44-0.61-0.57
	c-0.25-0.13-0.53-0.2-0.86-0.2c-0.44,0-0.81,0.12-1.1,0.36c-0.29,0.24-0.51,0.58-0.66,1.01c-0.15,0.44-0.22,1.02-0.22,1.74
	C32.48,203.61,32.68,204.44,33.08,204.95L33.08,204.95L33.08,204.95z M33.63,200.42c0.2-0.29,0.48-0.44,0.82-0.44
	c0.35,0,0.64,0.16,0.87,0.49c0.23,0.33,0.35,0.99,0.35,2c0,1-0.12,1.66-0.35,1.99c-0.23,0.33-0.52,0.5-0.87,0.5
	c-0.34,0-0.63-0.17-0.87-0.5c-0.23-0.33-0.35-1-0.35-1.99C33.25,201.47,33.38,200.79,33.63,200.42L33.63,200.42L33.63,200.42z"/>
<path class="st6" d="M58.31,199.36h-0.48c-0.13,0.26-0.35,0.53-0.66,0.81c-0.31,0.28-0.68,0.52-1.1,0.71v0.72
	c0.23-0.09,0.49-0.21,0.79-0.39c0.29-0.17,0.53-0.34,0.71-0.51v4.76h0.75V199.36L58.31,199.36z M62.98,204.74
	c-0.19,0.14-0.43,0.22-0.7,0.22c-0.37,0-0.68-0.13-0.92-0.39c-0.25-0.26-0.38-0.63-0.41-1.11h3.29c0-0.09,0-0.15,0-0.2
	c0-0.73-0.19-1.29-0.56-1.69c-0.37-0.4-0.85-0.6-1.44-0.6c-0.61,0-1.1,0.2-1.49,0.61c-0.38,0.41-0.57,0.99-0.57,1.73
	c0,0.72,0.19,1.27,0.57,1.67c0.38,0.4,0.89,0.6,1.53,0.6c0.51,0,0.93-0.12,1.26-0.37c0.33-0.25,0.55-0.6,0.68-1.05l-0.77-0.1
	C63.33,204.37,63.18,204.6,62.98,204.74L62.98,204.74z M61.38,201.92c0.23-0.23,0.52-0.34,0.87-0.34c0.38,0,0.69,0.14,0.93,0.43
	c0.15,0.19,0.25,0.46,0.28,0.83h-2.46C61.02,202.46,61.15,202.15,61.38,201.92L61.38,201.92z M67.43,204.49v-1.67h1.66v-0.7h-1.66
	v-1.66h-0.71v1.66h-1.66v0.7h1.66v1.67H67.43L67.43,204.49z M70.51,204.95c0.33,0.42,0.8,0.63,1.38,0.63c0.45,0,0.81-0.12,1.11-0.36
	c0.29-0.24,0.51-0.58,0.66-1.02c0.15-0.44,0.22-1.01,0.22-1.73c0-0.6-0.05-1.08-0.14-1.44c-0.09-0.36-0.22-0.66-0.38-0.9
	c-0.16-0.25-0.36-0.44-0.61-0.57c-0.25-0.13-0.53-0.2-0.86-0.2c-0.44,0-0.81,0.12-1.1,0.36c-0.29,0.24-0.51,0.58-0.66,1.01
	c-0.15,0.44-0.22,1.02-0.22,1.74C69.91,203.61,70.11,204.44,70.51,204.95L70.51,204.95L70.51,204.95z M71.07,200.42
	c0.2-0.29,0.48-0.44,0.82-0.44c0.35,0,0.64,0.16,0.87,0.49c0.23,0.33,0.35,0.99,0.35,2c0,1-0.12,1.66-0.35,1.99
	c-0.23,0.33-0.52,0.5-0.87,0.5c-0.34,0-0.63-0.17-0.87-0.5c-0.23-0.33-0.35-1-0.35-1.99C70.68,201.47,70.81,200.79,71.07,200.42
	L71.07,200.42L71.07,200.42z M75.29,205.18c0.3,0.26,0.69,0.4,1.17,0.4c0.45,0,0.84-0.12,1.17-0.36c0.33-0.24,0.58-0.59,0.75-1.05
	c0.17-0.46,0.25-1.08,0.25-1.86c0-0.75-0.09-1.32-0.26-1.71s-0.42-0.7-0.75-0.91c-0.33-0.21-0.69-0.32-1.09-0.32
	c-0.55,0-1,0.19-1.37,0.56c-0.36,0.38-0.55,0.87-0.55,1.49c0,0.6,0.17,1.08,0.52,1.44s0.77,0.55,1.28,0.55
	c0.3,0,0.58-0.07,0.84-0.22c0.26-0.15,0.46-0.34,0.61-0.58c0,0.07,0,0.12,0,0.15c0,0.31-0.04,0.61-0.11,0.91s-0.17,0.54-0.28,0.71
	c-0.11,0.18-0.25,0.32-0.43,0.42c-0.17,0.11-0.37,0.16-0.6,0.16c-0.27,0-0.49-0.08-0.66-0.23c-0.17-0.15-0.29-0.4-0.35-0.73
	l-0.72,0.07C74.81,204.54,74.99,204.92,75.29,205.18L75.29,205.18z M77.48,202.39c-0.22,0.24-0.51,0.36-0.85,0.36
	c-0.34,0-0.63-0.12-0.87-0.36c-0.23-0.24-0.35-0.56-0.35-0.94c0-0.43,0.12-0.78,0.37-1.05c0.25-0.27,0.54-0.41,0.87-0.41
	c0.32,0,0.6,0.13,0.82,0.38c0.23,0.25,0.34,0.59,0.34,1.02C77.81,201.81,77.7,202.14,77.48,202.39L77.48,202.39z"/>
<path class="st6" d="M98.6,204.75c0.08-0.14,0.19-0.27,0.32-0.4c0.13-0.13,0.42-0.39,0.86-0.77c0.54-0.45,0.92-0.81,1.15-1.07
	c0.23-0.26,0.4-0.51,0.5-0.74c0.1-0.24,0.15-0.47,0.15-0.72c0-0.48-0.17-0.88-0.51-1.2s-0.8-0.49-1.39-0.49
	c-0.58,0-1.04,0.15-1.38,0.45c-0.34,0.3-0.54,0.74-0.59,1.31l0.77,0.08c0-0.38,0.11-0.68,0.33-0.9s0.5-0.32,0.86-0.32
	c0.34,0,0.62,0.1,0.83,0.31s0.32,0.45,0.32,0.75c0,0.28-0.12,0.58-0.35,0.9c-0.23,0.32-0.68,0.75-1.34,1.29
	c-0.43,0.35-0.75,0.66-0.98,0.92c-0.23,0.27-0.39,0.54-0.49,0.81c-0.06,0.17-0.09,0.34-0.09,0.52h4.02v-0.72H98.6L98.6,204.75z
	 M105.15,204.74c-0.19,0.14-0.43,0.22-0.7,0.22c-0.37,0-0.68-0.13-0.92-0.39c-0.25-0.26-0.38-0.63-0.41-1.11h3.29
	c0-0.09,0-0.15,0-0.2c0-0.73-0.19-1.29-0.56-1.69c-0.37-0.4-0.85-0.6-1.44-0.6c-0.61,0-1.1,0.2-1.49,0.61
	c-0.38,0.41-0.57,0.99-0.57,1.73c0,0.72,0.19,1.27,0.57,1.67c0.38,0.4,0.89,0.6,1.53,0.6c0.51,0,0.93-0.12,1.26-0.37
	c0.33-0.25,0.55-0.6,0.68-1.05l-0.77-0.1C105.49,204.37,105.34,204.6,105.15,204.74L105.15,204.74z M103.54,201.92
	c0.23-0.23,0.52-0.34,0.87-0.34c0.38,0,0.69,0.14,0.93,0.43c0.15,0.19,0.25,0.46,0.28,0.83h-2.46
	C103.18,202.46,103.31,202.15,103.54,201.92L103.54,201.92z M109.59,204.49v-1.67h1.66v-0.7h-1.66v-1.66h-0.71v1.66h-1.66v0.7h1.66
	v1.67H109.59L109.59,204.49z M112.67,204.95c0.33,0.42,0.8,0.63,1.38,0.63c0.45,0,0.81-0.12,1.11-0.36
	c0.29-0.24,0.51-0.58,0.66-1.02c0.15-0.44,0.22-1.01,0.22-1.73c0-0.6-0.05-1.08-0.14-1.44c-0.09-0.36-0.22-0.66-0.38-0.9
	c-0.16-0.25-0.36-0.44-0.61-0.57c-0.25-0.13-0.53-0.2-0.86-0.2c-0.44,0-0.81,0.12-1.1,0.36c-0.29,0.24-0.51,0.58-0.66,1.01
	c-0.15,0.44-0.22,1.02-0.22,1.74C112.07,203.61,112.27,204.44,112.67,204.95L112.67,204.95L112.67,204.95z M113.23,200.42
	c0.2-0.29,0.48-0.44,0.82-0.44c0.35,0,0.64,0.16,0.87,0.49c0.23,0.33,0.35,0.99,0.35,2c0,1-0.12,1.66-0.35,1.99
	c-0.23,0.33-0.52,0.5-0.87,0.5c-0.34,0-0.63-0.17-0.87-0.5c-0.23-0.33-0.35-1-0.35-1.99C112.84,201.47,112.97,200.79,113.23,200.42
	L113.23,200.42L113.23,200.42z M117.46,205.18c0.3,0.26,0.69,0.4,1.17,0.4c0.45,0,0.84-0.12,1.17-0.36
	c0.33-0.24,0.58-0.59,0.75-1.05c0.17-0.46,0.25-1.08,0.25-1.86c0-0.75-0.09-1.32-0.26-1.71s-0.42-0.7-0.75-0.91
	c-0.33-0.21-0.69-0.32-1.09-0.32c-0.55,0-1,0.19-1.37,0.56c-0.36,0.38-0.55,0.87-0.55,1.49c0,0.6,0.17,1.08,0.52,1.44
	s0.77,0.55,1.28,0.55c0.3,0,0.58-0.07,0.84-0.22c0.26-0.15,0.46-0.34,0.61-0.58c0,0.07,0,0.12,0,0.15c0,0.31-0.04,0.61-0.11,0.91
	s-0.17,0.54-0.28,0.71c-0.11,0.18-0.25,0.32-0.43,0.42c-0.17,0.11-0.37,0.16-0.6,0.16c-0.27,0-0.49-0.08-0.66-0.23
	c-0.17-0.15-0.29-0.4-0.35-0.73l-0.72,0.07C116.97,204.54,117.15,204.92,117.46,205.18L117.46,205.18z M119.64,202.39
	c-0.22,0.24-0.51,0.36-0.85,0.36c-0.34,0-0.63-0.12-0.87-0.36c-0.23-0.24-0.35-0.56-0.35-0.94c0-0.43,0.12-0.78,0.37-1.05
	c0.25-0.27,0.54-0.41,0.87-0.41c0.32,0,0.6,0.13,0.82,0.38c0.23,0.25,0.34,0.59,0.34,1.02
	C119.97,201.81,119.86,202.14,119.64,202.39L119.64,202.39z"/>
<path class="st6" d="M140.42,205.1c0.35,0.32,0.8,0.48,1.33,0.48c0.59,0,1.08-0.18,1.47-0.55c0.39-0.37,0.58-0.82,0.58-1.35
	c0-0.39-0.1-0.72-0.3-0.98s-0.48-0.43-0.84-0.52c0.28-0.13,0.49-0.3,0.63-0.51s0.21-0.46,0.21-0.72c0-0.28-0.07-0.54-0.22-0.78
	c-0.15-0.25-0.36-0.44-0.64-0.58c-0.28-0.14-0.59-0.21-0.92-0.21c-0.48,0-0.88,0.14-1.21,0.41c-0.32,0.28-0.53,0.66-0.62,1.16
	l0.75,0.13c0.06-0.37,0.18-0.64,0.37-0.82c0.19-0.18,0.44-0.27,0.73-0.27c0.29,0,0.53,0.09,0.72,0.27c0.19,0.18,0.28,0.41,0.28,0.68
	c0,0.35-0.13,0.6-0.38,0.77c-0.25,0.17-0.54,0.25-0.86,0.25c-0.03,0-0.07,0-0.12-0.01l-0.08,0.66c0.21-0.06,0.39-0.08,0.53-0.08
	c0.35,0,0.63,0.11,0.85,0.33c0.22,0.22,0.34,0.51,0.34,0.85c0,0.36-0.12,0.66-0.36,0.9c-0.24,0.24-0.54,0.37-0.89,0.37
	c-0.3,0-0.55-0.09-0.75-0.28c-0.21-0.19-0.35-0.49-0.44-0.92l-0.75,0.1C139.87,204.37,140.07,204.79,140.42,205.1L140.42,205.1z
	 M147.31,204.74c-0.19,0.14-0.43,0.22-0.7,0.22c-0.37,0-0.68-0.13-0.92-0.39c-0.25-0.26-0.38-0.63-0.41-1.11h3.29
	c0-0.09,0-0.15,0-0.2c0-0.73-0.19-1.29-0.56-1.69c-0.37-0.4-0.85-0.6-1.44-0.6c-0.61,0-1.1,0.2-1.49,0.61
	c-0.38,0.41-0.57,0.99-0.57,1.73c0,0.72,0.19,1.27,0.57,1.67c0.38,0.4,0.89,0.6,1.53,0.6c0.51,0,0.93-0.12,1.26-0.37
	c0.33-0.25,0.55-0.6,0.68-1.05l-0.77-0.1C147.65,204.37,147.5,204.6,147.31,204.74L147.31,204.74z M145.7,201.92
	c0.23-0.23,0.52-0.34,0.87-0.34c0.38,0,0.69,0.14,0.93,0.43c0.15,0.19,0.25,0.46,0.28,0.83h-2.46
	C145.34,202.46,145.47,202.15,145.7,201.92L145.7,201.92z M151.75,204.49v-1.67h1.66v-0.7h-1.66v-1.66h-0.71v1.66h-1.66v0.7h1.66
	v1.67H151.75L151.75,204.49z M154.83,204.95c0.33,0.42,0.8,0.63,1.38,0.63c0.45,0,0.81-0.12,1.11-0.36
	c0.29-0.24,0.51-0.58,0.66-1.02c0.15-0.44,0.22-1.01,0.22-1.73c0-0.6-0.05-1.08-0.14-1.44c-0.09-0.36-0.22-0.66-0.38-0.9
	c-0.16-0.25-0.36-0.44-0.61-0.57c-0.25-0.13-0.53-0.2-0.86-0.2c-0.44,0-0.81,0.12-1.1,0.36c-0.29,0.24-0.51,0.58-0.66,1.01
	c-0.15,0.44-0.22,1.02-0.22,1.74C154.23,203.61,154.43,204.44,154.83,204.95L154.83,204.95L154.83,204.95z M155.39,200.42
	c0.2-0.29,0.48-0.44,0.82-0.44c0.35,0,0.64,0.16,0.87,0.49c0.23,0.33,0.35,0.99,0.35,2c0,1-0.12,1.66-0.35,1.99
	c-0.23,0.33-0.52,0.5-0.87,0.5c-0.34,0-0.63-0.17-0.87-0.5c-0.23-0.33-0.35-1-0.35-1.99C155,201.47,155.13,200.79,155.39,200.42
	L155.39,200.42L155.39,200.42z M159.62,205.18c0.3,0.26,0.69,0.4,1.17,0.4c0.45,0,0.84-0.12,1.17-0.36
	c0.33-0.24,0.58-0.59,0.75-1.05c0.17-0.46,0.25-1.08,0.25-1.86c0-0.75-0.09-1.32-0.26-1.71s-0.42-0.7-0.75-0.91
	c-0.33-0.21-0.69-0.32-1.09-0.32c-0.55,0-1,0.19-1.37,0.56c-0.36,0.38-0.55,0.87-0.55,1.49c0,0.6,0.17,1.08,0.52,1.44
	s0.77,0.55,1.28,0.55c0.3,0,0.58-0.07,0.84-0.22c0.26-0.15,0.46-0.34,0.61-0.58c0,0.07,0,0.12,0,0.15c0,0.31-0.04,0.61-0.11,0.91
	s-0.17,0.54-0.28,0.71c-0.11,0.18-0.25,0.32-0.43,0.42c-0.17,0.11-0.37,0.16-0.6,0.16c-0.27,0-0.49-0.08-0.66-0.23
	c-0.17-0.15-0.29-0.4-0.35-0.73l-0.72,0.07C159.13,204.54,159.31,204.92,159.62,205.18L159.62,205.18z M161.8,202.39
	c-0.22,0.24-0.51,0.36-0.85,0.36c-0.34,0-0.63-0.12-0.87-0.36c-0.23-0.24-0.35-0.56-0.35-0.94c0-0.43,0.12-0.78,0.37-1.05
	c0.25-0.27,0.54-0.41,0.87-0.41c0.32,0,0.6,0.13,0.82,0.38c0.23,0.25,0.34,0.59,0.34,1.02C162.13,201.81,162.02,202.14,161.8,202.39
	L161.8,202.39z"/>
<path class="st6" d="M185.12,205.47v-1.46h0.82v-0.68h-0.82v-3.94h-0.61l-2.78,3.94v0.68h2.64v1.46H185.12L185.12,205.47z
	 M182.46,203.33l1.91-2.74v2.74H182.46L182.46,203.33z M189.47,204.74c-0.19,0.14-0.43,0.22-0.7,0.22c-0.37,0-0.68-0.13-0.92-0.39
	c-0.25-0.26-0.38-0.63-0.41-1.11h3.29c0-0.09,0-0.15,0-0.2c0-0.73-0.19-1.29-0.56-1.69c-0.37-0.4-0.85-0.6-1.44-0.6
	c-0.61,0-1.1,0.2-1.49,0.61c-0.38,0.41-0.57,0.99-0.57,1.73c0,0.72,0.19,1.27,0.57,1.67c0.38,0.4,0.89,0.6,1.53,0.6
	c0.51,0,0.93-0.12,1.26-0.37c0.33-0.25,0.55-0.6,0.68-1.05l-0.77-0.1C189.81,204.37,189.66,204.6,189.47,204.74L189.47,204.74z
	 M187.86,201.92c0.23-0.23,0.52-0.34,0.87-0.34c0.38,0,0.69,0.14,0.93,0.43c0.15,0.19,0.25,0.46,0.28,0.83h-2.46
	C187.5,202.46,187.63,202.15,187.86,201.92L187.86,201.92z M193.91,204.49v-1.67h1.66v-0.7h-1.66v-1.66h-0.71v1.66h-1.66v0.7h1.66
	v1.67H193.91L193.91,204.49z M196.99,204.95c0.33,0.42,0.8,0.63,1.38,0.63c0.45,0,0.81-0.12,1.11-0.36
	c0.29-0.24,0.51-0.58,0.66-1.02c0.15-0.44,0.22-1.01,0.22-1.73c0-0.6-0.05-1.08-0.14-1.44c-0.09-0.36-0.22-0.66-0.38-0.9
	c-0.16-0.25-0.36-0.44-0.61-0.57c-0.25-0.13-0.53-0.2-0.86-0.2c-0.44,0-0.81,0.12-1.1,0.36c-0.29,0.24-0.51,0.58-0.66,1.01
	c-0.15,0.44-0.22,1.02-0.22,1.74C196.39,203.61,196.59,204.44,196.99,204.95L196.99,204.95L196.99,204.95z M197.55,200.42
	c0.2-0.29,0.48-0.44,0.82-0.44c0.35,0,0.64,0.16,0.87,0.49c0.23,0.33,0.35,0.99,0.35,2c0,1-0.12,1.66-0.35,1.99
	c-0.23,0.33-0.52,0.5-0.87,0.5c-0.34,0-0.63-0.17-0.87-0.5c-0.23-0.33-0.35-1-0.35-1.99C197.16,201.47,197.29,200.79,197.55,200.42
	L197.55,200.42L197.55,200.42z M201.78,205.18c0.3,0.26,0.69,0.4,1.17,0.4c0.45,0,0.84-0.12,1.17-0.36
	c0.33-0.24,0.58-0.59,0.75-1.05c0.17-0.46,0.25-1.08,0.25-1.86c0-0.75-0.09-1.32-0.26-1.71s-0.42-0.7-0.75-0.91
	c-0.33-0.21-0.69-0.32-1.09-0.32c-0.55,0-1,0.19-1.37,0.56c-0.36,0.38-0.55,0.87-0.55,1.49c0,0.6,0.17,1.08,0.52,1.44
	s0.77,0.55,1.28,0.55c0.3,0,0.58-0.07,0.84-0.22c0.26-0.15,0.46-0.34,0.61-0.58c0,0.07,0,0.12,0,0.15c0,0.31-0.04,0.61-0.11,0.91
	s-0.17,0.54-0.28,0.71c-0.11,0.18-0.25,0.32-0.43,0.42c-0.17,0.11-0.37,0.16-0.6,0.16c-0.27,0-0.49-0.08-0.66-0.23
	c-0.17-0.15-0.29-0.4-0.35-0.73l-0.72,0.07C201.29,204.54,201.47,204.92,201.78,205.18L201.78,205.18z M203.96,202.39
	c-0.22,0.24-0.51,0.36-0.85,0.36c-0.34,0-0.63-0.12-0.87-0.36c-0.23-0.24-0.35-0.56-0.35-0.94c0-0.43,0.12-0.78,0.37-1.05
	c0.25-0.27,0.54-0.41,0.87-0.41c0.32,0,0.6,0.13,0.82,0.38c0.23,0.25,0.34,0.59,0.34,1.02
	C204.29,201.81,204.18,202.14,203.96,202.39L203.96,202.39z"/>
<path d="M88.97,228.07v-3.06h1.93c1.06,0,1.8-0.22,2.2-0.66c0.41-0.44,0.61-0.98,0.61-1.62c0-0.37-0.08-0.71-0.23-1.03
	c-0.15-0.31-0.35-0.55-0.6-0.73c-0.25-0.17-0.56-0.29-0.93-0.35c-0.26-0.05-0.64-0.07-1.14-0.07h-2.84v7.52H88.97L88.97,228.07z
	 M88.97,221.44h1.92c0.45,0,0.76,0.02,0.93,0.07c0.26,0.07,0.47,0.22,0.63,0.44c0.16,0.22,0.24,0.49,0.24,0.81
	c0,0.43-0.14,0.77-0.41,1.01c-0.27,0.24-0.73,0.36-1.37,0.36h-1.94V221.44L88.97,221.44z M95.22,227.46
	c0.47,0.49,1.09,0.73,1.85,0.73c0.48,0,0.91-0.11,1.32-0.33c0.4-0.22,0.71-0.53,0.92-0.94c0.21-0.4,0.32-0.95,0.32-1.65
	c0-0.86-0.24-1.54-0.71-2.03c-0.48-0.49-1.09-0.74-1.84-0.74c-0.67,0-1.24,0.2-1.71,0.6c-0.56,0.49-0.84,1.23-0.84,2.24
	C94.52,226.27,94.75,226.97,95.22,227.46L95.22,227.46z M95.92,223.78c0.3-0.35,0.69-0.52,1.15-0.52c0.45,0,0.83,0.17,1.14,0.52
	c0.31,0.35,0.46,0.86,0.46,1.53c0,0.71-0.15,1.25-0.46,1.59c-0.3,0.35-0.69,0.52-1.14,0.52c-0.46,0-0.84-0.17-1.15-0.52
	c-0.3-0.35-0.46-0.87-0.46-1.57S95.62,224.13,95.92,223.78L95.92,223.78z M101.63,230.16v-2.65c0.16,0.2,0.36,0.36,0.6,0.49
	c0.24,0.13,0.52,0.19,0.83,0.19c0.42,0,0.82-0.12,1.2-0.36c0.38-0.24,0.67-0.58,0.87-1.03s0.3-0.95,0.3-1.5c0-0.52-0.09-1-0.27-1.43
	c-0.18-0.44-0.45-0.77-0.8-1.01c-0.36-0.24-0.77-0.36-1.23-0.36c-0.36,0-0.66,0.07-0.91,0.21c-0.25,0.14-0.47,0.35-0.67,0.62v-0.71
	h-0.84v7.53H101.63L101.63,230.16z M101.99,223.78c0.3-0.37,0.65-0.55,1.04-0.55c0.4,0,0.74,0.17,1.02,0.52
	c0.29,0.35,0.43,0.86,0.43,1.56c0,0.73-0.15,1.27-0.44,1.61c-0.29,0.35-0.64,0.52-1.05,0.52c-0.4,0-0.75-0.17-1.03-0.5
	c-0.28-0.33-0.43-0.85-0.43-1.55C101.54,224.68,101.69,224.14,101.99,223.78L101.99,223.78z M110.94,228.07v-5.44h-0.92v2.92
	c0,0.46-0.05,0.82-0.15,1.06c-0.1,0.24-0.27,0.44-0.52,0.58c-0.24,0.14-0.5,0.21-0.78,0.21s-0.51-0.07-0.7-0.21
	c-0.19-0.14-0.31-0.33-0.37-0.57c-0.04-0.17-0.06-0.49-0.06-0.97v-3.02h-0.92V226c0,0.39,0.02,0.68,0.06,0.86
	c0.05,0.27,0.15,0.5,0.28,0.68c0.13,0.19,0.34,0.34,0.62,0.46c0.28,0.12,0.58,0.18,0.9,0.18c0.73,0,1.3-0.31,1.73-0.92v0.8H110.94
	L110.94,228.07z M113.28,228.07v-7.52h-0.92v7.52H113.28L113.28,228.07z M118.45,228.07h0.96c-0.12-0.21-0.19-0.43-0.23-0.65
	c-0.04-0.23-0.06-0.77-0.06-1.63v-1.23c0-0.41-0.02-0.69-0.05-0.85c-0.05-0.25-0.15-0.46-0.29-0.63c-0.14-0.17-0.35-0.3-0.64-0.41
	c-0.29-0.11-0.67-0.16-1.13-0.16c-0.47,0-0.88,0.06-1.24,0.19c-0.36,0.13-0.63,0.31-0.82,0.55c-0.19,0.24-0.32,0.55-0.41,0.94
	l0.9,0.12c0.1-0.39,0.25-0.66,0.46-0.81c0.21-0.15,0.53-0.23,0.96-0.23c0.46,0,0.82,0.1,1.05,0.31c0.17,0.15,0.26,0.42,0.26,0.79
	c0,0.03,0,0.11-0.01,0.24c-0.35,0.12-0.9,0.23-1.65,0.32c-0.37,0.04-0.64,0.09-0.82,0.14c-0.25,0.07-0.47,0.17-0.66,0.3
	c-0.2,0.13-0.36,0.31-0.48,0.53c-0.12,0.22-0.18,0.46-0.18,0.73c0,0.45,0.16,0.83,0.48,1.12c0.32,0.29,0.78,0.44,1.38,0.44
	c0.36,0,0.7-0.06,1.02-0.18c0.32-0.12,0.65-0.32,0.99-0.62C118.3,227.66,118.36,227.88,118.45,228.07L118.45,228.07L118.45,228.07z
	 M118.19,225.68c0,0.41-0.05,0.71-0.15,0.92c-0.13,0.27-0.33,0.48-0.61,0.64c-0.28,0.16-0.59,0.23-0.95,0.23
	c-0.36,0-0.63-0.08-0.82-0.25c-0.19-0.16-0.28-0.37-0.28-0.62c0-0.16,0.04-0.31,0.13-0.44c0.09-0.13,0.21-0.23,0.36-0.3
	c0.16-0.07,0.43-0.13,0.8-0.18c0.67-0.1,1.17-0.21,1.51-0.35V225.68L118.19,225.68z M122.16,227.28c-0.14,0-0.24-0.02-0.32-0.07
	c-0.07-0.04-0.13-0.1-0.16-0.18c-0.03-0.08-0.05-0.24-0.05-0.51v-3.18h0.93v-0.72h-0.93v-1.9l-0.92,0.55v1.35h-0.68v0.72h0.68v3.13
	c0,0.55,0.04,0.92,0.11,1.09c0.08,0.17,0.21,0.31,0.39,0.42s0.44,0.16,0.78,0.16c0.21,0,0.44-0.03,0.7-0.08l-0.13-0.82
	C122.4,227.27,122.27,227.28,122.16,227.28L122.16,227.28L122.16,227.28z M124.4,221.62v-1.06h-0.92v1.06H124.4L124.4,221.62z
	 M124.4,228.07v-5.44h-0.92v5.44H124.4L124.4,228.07z M126.17,227.46c0.47,0.49,1.09,0.73,1.85,0.73c0.48,0,0.91-0.11,1.32-0.33
	c0.4-0.22,0.71-0.53,0.92-0.94c0.21-0.4,0.32-0.95,0.32-1.65c0-0.86-0.24-1.54-0.71-2.03c-0.48-0.49-1.09-0.74-1.84-0.74
	c-0.67,0-1.24,0.2-1.71,0.6c-0.56,0.49-0.84,1.23-0.84,2.24C125.46,226.27,125.7,226.97,126.17,227.46L126.17,227.46z
	 M126.87,223.78c0.3-0.35,0.69-0.52,1.15-0.52c0.45,0,0.83,0.17,1.14,0.52c0.31,0.35,0.46,0.86,0.46,1.53
	c0,0.71-0.15,1.25-0.46,1.59c-0.3,0.35-0.69,0.52-1.14,0.52c-0.46,0-0.84-0.17-1.15-0.52c-0.3-0.35-0.46-0.87-0.46-1.57
	S126.56,224.13,126.87,223.78L126.87,223.78z M132.57,228.07v-2.97c0-0.7,0.14-1.17,0.43-1.42c0.29-0.25,0.62-0.37,1.02-0.37
	c0.25,0,0.46,0.06,0.64,0.17c0.18,0.11,0.31,0.26,0.38,0.45c0.07,0.19,0.11,0.47,0.11,0.84v3.31h0.92v-3.35
	c0-0.43-0.02-0.73-0.05-0.9c-0.05-0.26-0.15-0.49-0.29-0.68c-0.14-0.19-0.34-0.35-0.62-0.46c-0.28-0.12-0.58-0.18-0.9-0.18
	c-0.76,0-1.33,0.3-1.73,0.9v-0.77h-0.83v5.44H132.57L132.57,228.07z M140.59,227.01c0.26,0.4,0.62,0.7,1.08,0.89
	c0.46,0.2,1.03,0.3,1.71,0.3c0.54,0,1.02-0.1,1.45-0.29c0.43-0.2,0.76-0.47,0.99-0.83c0.23-0.35,0.34-0.73,0.34-1.13
	c0-0.4-0.1-0.76-0.31-1.07c-0.21-0.31-0.53-0.56-0.97-0.77c-0.3-0.14-0.86-0.3-1.66-0.48c-0.81-0.18-1.31-0.36-1.5-0.54
	c-0.19-0.17-0.29-0.4-0.29-0.67c0-0.31,0.14-0.58,0.41-0.8c0.28-0.22,0.71-0.33,1.32-0.33c0.58,0,1.01,0.12,1.31,0.36
	c0.3,0.24,0.47,0.6,0.52,1.08l0.95-0.07c-0.02-0.44-0.14-0.84-0.37-1.18c-0.23-0.35-0.56-0.61-0.98-0.79s-0.92-0.27-1.47-0.27
	c-0.51,0-0.97,0.09-1.38,0.26c-0.41,0.17-0.73,0.42-0.94,0.75c-0.22,0.33-0.32,0.68-0.32,1.06c0,0.35,0.09,0.66,0.26,0.94
	c0.18,0.28,0.44,0.51,0.8,0.7c0.28,0.15,0.76,0.3,1.45,0.47c0.69,0.17,1.14,0.29,1.34,0.37c0.31,0.12,0.54,0.27,0.68,0.44
	c0.14,0.18,0.21,0.38,0.21,0.62c0,0.23-0.07,0.45-0.21,0.64c-0.14,0.2-0.36,0.35-0.65,0.46c-0.29,0.11-0.63,0.17-1,0.17
	c-0.43,0-0.81-0.07-1.15-0.22c-0.34-0.15-0.59-0.34-0.76-0.58c-0.16-0.24-0.27-0.55-0.31-0.93l-0.94,0.08
	C140.19,226.16,140.33,226.61,140.59,227.01L140.59,227.01z M148.33,221.62v-1.06h-0.92v1.06H148.33L148.33,221.62z M148.33,228.07
	v-5.44h-0.92v5.44H148.33L148.33,228.07z M154.07,228.07v-0.79h-2.52c-0.36,0-0.75,0.02-1.16,0.05l0.57-0.63l2.95-3.46v-0.61h-4.45
	v0.75h2.22c0.3,0,0.65-0.01,1.04-0.03l-3.47,3.98v0.75H154.07L154.07,228.07z M158.15,227.17c-0.24,0.18-0.53,0.27-0.87,0.27
	c-0.45,0-0.83-0.16-1.14-0.48c-0.3-0.32-0.47-0.78-0.51-1.37h4.06c0-0.11,0.01-0.19,0.01-0.25c0-0.9-0.23-1.6-0.69-2.09
	c-0.46-0.5-1.06-0.74-1.78-0.74c-0.75,0-1.36,0.25-1.84,0.76c-0.47,0.51-0.71,1.22-0.71,2.13c0,0.89,0.23,1.57,0.7,2.06
	c0.47,0.49,1.1,0.74,1.89,0.74c0.63,0,1.15-0.15,1.56-0.46c0.41-0.31,0.69-0.74,0.84-1.3l-0.95-0.12
	C158.57,226.71,158.38,226.99,158.15,227.17L158.15,227.17z M156.16,223.69c0.29-0.28,0.65-0.43,1.07-0.43
	c0.47,0,0.85,0.18,1.14,0.53c0.19,0.23,0.31,0.57,0.35,1.03h-3.04C155.72,224.35,155.88,223.97,156.16,223.69L156.16,223.69z"/>
<path d="M17.91,11.43c0.26,0.4,0.62,0.7,1.08,0.89c0.46,0.2,1.03,0.3,1.71,0.3c0.54,0,1.02-0.1,1.45-0.29
	c0.43-0.2,0.76-0.47,0.99-0.83c0.23-0.35,0.34-0.73,0.34-1.13c0-0.4-0.1-0.76-0.31-1.07C22.96,9,22.63,8.74,22.2,8.54
	c-0.3-0.14-0.86-0.3-1.66-0.48c-0.81-0.18-1.31-0.36-1.5-0.54c-0.19-0.17-0.29-0.4-0.29-0.67c0-0.31,0.14-0.58,0.41-0.8
	c0.28-0.22,0.71-0.33,1.32-0.33c0.58,0,1.01,0.12,1.31,0.36c0.3,0.24,0.47,0.6,0.52,1.08l0.95-0.07c-0.02-0.44-0.14-0.84-0.37-1.18
	c-0.23-0.35-0.56-0.61-0.98-0.79s-0.92-0.27-1.47-0.27c-0.51,0-0.97,0.09-1.38,0.26c-0.41,0.17-0.73,0.42-0.94,0.75
	c-0.22,0.33-0.32,0.68-0.32,1.06c0,0.35,0.09,0.66,0.26,0.94c0.18,0.28,0.44,0.51,0.8,0.7c0.28,0.15,0.76,0.3,1.45,0.47
	c0.69,0.17,1.14,0.29,1.34,0.37c0.31,0.12,0.54,0.27,0.68,0.44c0.14,0.18,0.21,0.38,0.21,0.62c0,0.23-0.07,0.45-0.21,0.64
	c-0.14,0.2-0.36,0.35-0.65,0.46c-0.29,0.11-0.63,0.17-1,0.17c-0.43,0-0.81-0.07-1.15-0.22c-0.34-0.15-0.59-0.34-0.76-0.58
	c-0.16-0.24-0.27-0.55-0.31-0.93l-0.94,0.08C17.51,10.58,17.65,11.03,17.91,11.43L17.91,11.43z M25.62,12.5V4.98H24.7v7.52H25.62
	L25.62,12.5z M27.41,11.89c0.47,0.49,1.09,0.73,1.85,0.73c0.48,0,0.91-0.11,1.32-0.33c0.4-0.22,0.71-0.53,0.92-0.94
	c0.21-0.4,0.32-0.95,0.32-1.65c0-0.86-0.24-1.54-0.71-2.03c-0.48-0.49-1.09-0.74-1.84-0.74c-0.67,0-1.24,0.2-1.71,0.6
	c-0.56,0.49-0.84,1.23-0.84,2.24C26.71,10.69,26.94,11.4,27.41,11.89L27.41,11.89z M28.11,8.21c0.3-0.35,0.69-0.52,1.15-0.52
	c0.45,0,0.83,0.17,1.14,0.52c0.31,0.35,0.46,0.86,0.46,1.53c0,0.71-0.15,1.25-0.46,1.59c-0.3,0.35-0.69,0.52-1.14,0.52
	c-0.46,0-0.84-0.17-1.15-0.52c-0.3-0.35-0.46-0.87-0.46-1.57S27.81,8.56,28.11,8.21L28.11,8.21z M33.81,14.58v-2.65
	c0.16,0.2,0.36,0.36,0.6,0.49c0.24,0.13,0.52,0.19,0.83,0.19c0.42,0,0.82-0.12,1.2-0.36c0.38-0.24,0.67-0.58,0.87-1.03
	s0.3-0.95,0.3-1.5c0-0.52-0.09-1-0.27-1.43c-0.18-0.44-0.45-0.77-0.8-1.01c-0.36-0.24-0.77-0.36-1.23-0.36
	c-0.36,0-0.66,0.07-0.91,0.21c-0.25,0.14-0.47,0.35-0.67,0.62V7.05h-0.84v7.53H33.81L33.81,14.58z M34.18,8.2
	c0.3-0.37,0.65-0.55,1.04-0.55c0.4,0,0.74,0.17,1.02,0.52c0.29,0.35,0.43,0.86,0.43,1.56c0,0.73-0.15,1.27-0.44,1.61
	c-0.29,0.35-0.64,0.52-1.05,0.52c-0.4,0-0.75-0.17-1.03-0.5c-0.28-0.33-0.43-0.85-0.43-1.55C33.73,9.1,33.88,8.57,34.18,8.2
	L34.18,8.2z M41.89,11.59c-0.24,0.18-0.53,0.27-0.87,0.27c-0.45,0-0.83-0.16-1.14-0.48c-0.3-0.32-0.47-0.78-0.51-1.37h4.06
	c0-0.11,0.01-0.19,0.01-0.25c0-0.9-0.23-1.6-0.69-2.09c-0.46-0.5-1.06-0.74-1.78-0.74c-0.75,0-1.36,0.25-1.84,0.76
	c-0.47,0.51-0.71,1.22-0.71,2.13c0,0.89,0.23,1.57,0.7,2.06c0.47,0.49,1.1,0.74,1.89,0.74c0.63,0,1.15-0.15,1.56-0.46
	c0.41-0.31,0.69-0.74,0.84-1.3l-0.95-0.12C42.32,11.13,42.13,11.42,41.89,11.59L41.89,11.59z M39.91,8.11
	c0.29-0.28,0.65-0.43,1.07-0.43c0.47,0,0.85,0.18,1.14,0.53c0.19,0.23,0.31,0.57,0.35,1.03h-3.04C39.46,8.78,39.62,8.4,39.91,8.11
	L39.91,8.11z M49.91,14.71c-1.02-1.64-1.53-3.28-1.53-4.93c0-0.65,0.07-1.29,0.22-1.93c0.12-0.51,0.28-1,0.49-1.48
	c0.13-0.3,0.41-0.81,0.82-1.52h-0.66c-0.64,0.86-1.12,1.72-1.43,2.58c-0.26,0.75-0.39,1.52-0.39,2.34c0,0.92,0.18,1.81,0.53,2.68
	c0.35,0.86,0.78,1.61,1.29,2.26H49.91L49.91,14.71z M52.59,11.71c-0.14,0-0.24-0.02-0.32-0.07c-0.07-0.04-0.13-0.1-0.16-0.18
	c-0.03-0.08-0.05-0.24-0.05-0.51V7.77H53V7.05h-0.93v-1.9L51.15,5.7v1.35h-0.68v0.72h0.68v3.13c0,0.55,0.04,0.92,0.11,1.09
	c0.08,0.17,0.21,0.31,0.39,0.42s0.44,0.16,0.78,0.16c0.21,0,0.44-0.03,0.7-0.08L53,11.67C52.83,11.69,52.7,11.71,52.59,11.71
	L52.59,11.71L52.59,11.71z M54.26,11.89c0.47,0.49,1.09,0.73,1.85,0.73c0.48,0,0.91-0.11,1.32-0.33c0.4-0.22,0.71-0.53,0.92-0.94
	c0.21-0.4,0.32-0.95,0.32-1.65c0-0.86-0.24-1.54-0.71-2.03c-0.48-0.49-1.09-0.74-1.84-0.74c-0.67,0-1.24,0.2-1.71,0.6
	c-0.56,0.49-0.84,1.23-0.84,2.24C53.56,10.69,53.79,11.4,54.26,11.89L54.26,11.89z M54.96,8.21c0.3-0.35,0.69-0.52,1.15-0.52
	c0.45,0,0.83,0.17,1.14,0.52c0.31,0.35,0.46,0.86,0.46,1.53c0,0.71-0.15,1.25-0.46,1.59c-0.3,0.35-0.69,0.52-1.14,0.52
	c-0.46,0-0.84-0.17-1.15-0.52c-0.3-0.35-0.46-0.87-0.46-1.57S54.66,8.56,54.96,8.21L54.96,8.21z M61.35,11.71
	c-0.14,0-0.24-0.02-0.32-0.07c-0.07-0.04-0.13-0.1-0.16-0.18c-0.03-0.08-0.05-0.24-0.05-0.51V7.77h0.93V7.05h-0.93v-1.9L59.91,5.7
	v1.35h-0.68v0.72h0.68v3.13c0,0.55,0.04,0.92,0.11,1.09c0.08,0.17,0.21,0.31,0.39,0.42s0.44,0.16,0.78,0.16
	c0.21,0,0.44-0.03,0.7-0.08l-0.13-0.82C61.59,11.69,61.45,11.71,61.35,11.71L61.35,11.71L61.35,11.71z M66.4,12.5h0.96
	c-0.12-0.21-0.19-0.43-0.23-0.65c-0.04-0.23-0.06-0.77-0.06-1.63V8.98c0-0.41-0.02-0.69-0.05-0.85c-0.05-0.25-0.15-0.46-0.29-0.63
	c-0.14-0.17-0.35-0.3-0.64-0.41c-0.29-0.11-0.67-0.16-1.13-0.16c-0.47,0-0.88,0.06-1.24,0.19c-0.36,0.13-0.63,0.31-0.82,0.55
	c-0.19,0.24-0.32,0.55-0.41,0.94l0.9,0.12c0.1-0.39,0.25-0.66,0.46-0.81c0.21-0.15,0.53-0.23,0.96-0.23c0.46,0,0.82,0.1,1.05,0.31
	c0.17,0.15,0.26,0.42,0.26,0.79c0,0.03,0,0.11-0.01,0.24c-0.35,0.12-0.9,0.23-1.65,0.32c-0.37,0.04-0.64,0.09-0.82,0.14
	C63.42,9.57,63.2,9.67,63,9.8c-0.2,0.13-0.36,0.31-0.48,0.53c-0.12,0.22-0.18,0.46-0.18,0.73c0,0.45,0.16,0.83,0.48,1.12
	c0.32,0.29,0.78,0.44,1.38,0.44c0.36,0,0.7-0.06,1.02-0.18c0.32-0.12,0.65-0.32,0.99-0.62C66.24,12.08,66.3,12.3,66.4,12.5
	L66.4,12.5L66.4,12.5z M66.13,10.1c0,0.41-0.05,0.71-0.15,0.92c-0.13,0.27-0.33,0.48-0.61,0.64c-0.28,0.16-0.59,0.23-0.95,0.23
	c-0.36,0-0.63-0.08-0.82-0.25c-0.19-0.16-0.28-0.37-0.28-0.62c0-0.16,0.04-0.31,0.13-0.44c0.09-0.13,0.21-0.23,0.36-0.3
	c0.16-0.07,0.43-0.13,0.8-0.18c0.67-0.1,1.17-0.21,1.51-0.35V10.1L66.13,10.1z M69.4,12.5V4.98h-0.92v7.52H69.4L69.4,12.5z
	 M74.67,14.58v-2.65c0.16,0.2,0.36,0.36,0.6,0.49c0.24,0.13,0.52,0.19,0.83,0.19c0.42,0,0.82-0.12,1.2-0.36
	c0.38-0.24,0.67-0.58,0.87-1.03s0.3-0.95,0.3-1.5c0-0.52-0.09-1-0.27-1.43c-0.18-0.44-0.45-0.77-0.8-1.01
	c-0.36-0.24-0.77-0.36-1.23-0.36c-0.36,0-0.66,0.07-0.91,0.21c-0.25,0.14-0.47,0.35-0.67,0.62V7.05h-0.84v7.53H74.67L74.67,14.58z
	 M75.04,8.2c0.3-0.37,0.65-0.55,1.04-0.55c0.4,0,0.74,0.17,1.02,0.52c0.29,0.35,0.43,0.86,0.43,1.56c0,0.73-0.15,1.27-0.44,1.61
	c-0.29,0.35-0.64,0.52-1.05,0.52c-0.4,0-0.75-0.17-1.03-0.5c-0.28-0.33-0.43-0.85-0.43-1.55C74.58,9.1,74.73,8.57,75.04,8.2
	L75.04,8.2z M83.33,12.5h0.96c-0.12-0.21-0.19-0.43-0.23-0.65C84.02,11.62,84,11.07,84,10.21V8.98c0-0.41-0.02-0.69-0.05-0.85
	c-0.05-0.25-0.15-0.46-0.29-0.63c-0.14-0.17-0.35-0.3-0.64-0.41c-0.29-0.11-0.67-0.16-1.13-0.16c-0.47,0-0.88,0.06-1.24,0.19
	c-0.36,0.13-0.63,0.31-0.82,0.55c-0.19,0.24-0.32,0.55-0.41,0.94l0.9,0.12c0.1-0.39,0.25-0.66,0.46-0.81
	c0.21-0.15,0.53-0.23,0.96-0.23c0.46,0,0.82,0.1,1.05,0.31c0.17,0.15,0.26,0.42,0.26,0.79c0,0.03,0,0.11-0.01,0.24
	c-0.35,0.12-0.9,0.23-1.65,0.32C81.05,9.4,80.78,9.45,80.6,9.5c-0.25,0.07-0.47,0.17-0.66,0.3c-0.2,0.13-0.36,0.31-0.48,0.53
	c-0.12,0.22-0.18,0.46-0.18,0.73c0,0.45,0.16,0.83,0.48,1.12c0.32,0.29,0.78,0.44,1.38,0.44c0.36,0,0.7-0.06,1.02-0.18
	c0.32-0.12,0.65-0.32,0.99-0.62C83.17,12.08,83.23,12.3,83.33,12.5L83.33,12.5L83.33,12.5z M83.06,10.1c0,0.41-0.05,0.71-0.15,0.92
	c-0.13,0.27-0.33,0.48-0.61,0.64c-0.28,0.16-0.59,0.23-0.95,0.23c-0.36,0-0.63-0.08-0.82-0.25c-0.19-0.16-0.28-0.37-0.28-0.62
	c0-0.16,0.04-0.31,0.13-0.44c0.09-0.13,0.21-0.23,0.36-0.3c0.16-0.07,0.43-0.13,0.8-0.18c0.67-0.1,1.17-0.21,1.51-0.35V10.1
	L83.06,10.1z M87.04,11.71c-0.14,0-0.24-0.02-0.32-0.07c-0.07-0.04-0.13-0.1-0.16-0.18c-0.03-0.08-0.05-0.24-0.05-0.51V7.77h0.93
	V7.05h-0.93v-1.9L85.6,5.7v1.35h-0.68v0.72h0.68v3.13c0,0.55,0.04,0.92,0.11,1.09c0.08,0.17,0.21,0.31,0.39,0.42
	s0.44,0.16,0.78,0.16c0.21,0,0.44-0.03,0.7-0.08l-0.13-0.82C87.27,11.69,87.14,11.71,87.04,11.71L87.04,11.71L87.04,11.71z
	 M89.27,12.5V9.52c0-0.43,0.05-0.76,0.15-1c0.1-0.24,0.27-0.43,0.52-0.58c0.24-0.14,0.5-0.21,0.77-0.21c0.37,0,0.65,0.11,0.85,0.32
	s0.3,0.55,0.3,1.01v3.45h0.92V9.05c0-0.53-0.06-0.94-0.19-1.22c-0.13-0.28-0.34-0.5-0.64-0.66S91.3,6.93,90.9,6.93
	c-0.66,0-1.2,0.25-1.63,0.75v-2.7h-0.92v7.52H89.27L89.27,12.5z M98,12.5V4.98h-0.92v7.52H98L98,12.5z M102.59,11.59
	c-0.24,0.18-0.53,0.27-0.87,0.27c-0.45,0-0.83-0.16-1.14-0.48c-0.3-0.32-0.47-0.78-0.51-1.37h4.06c0-0.11,0.01-0.19,0.01-0.25
	c0-0.9-0.23-1.6-0.69-2.09c-0.46-0.5-1.06-0.74-1.78-0.74c-0.75,0-1.36,0.25-1.84,0.76c-0.47,0.51-0.71,1.22-0.71,2.13
	c0,0.89,0.23,1.57,0.7,2.06c0.47,0.49,1.1,0.74,1.89,0.74c0.63,0,1.15-0.15,1.56-0.46c0.41-0.31,0.69-0.74,0.84-1.3l-0.95-0.12
	C103.02,11.13,102.83,11.42,102.59,11.59L102.59,11.59z M100.61,8.11c0.29-0.28,0.65-0.43,1.07-0.43c0.47,0,0.85,0.18,1.14,0.53
	c0.19,0.23,0.31,0.57,0.35,1.03h-3.04C100.16,8.78,100.32,8.4,100.61,8.11L100.61,8.11z M106.2,12.5V9.52c0-0.7,0.14-1.17,0.43-1.42
	c0.29-0.25,0.62-0.37,1.02-0.37c0.25,0,0.46,0.06,0.64,0.17c0.18,0.11,0.31,0.26,0.38,0.45c0.07,0.19,0.11,0.47,0.11,0.84v3.31h0.92
	V9.15c0-0.43-0.02-0.73-0.05-0.9c-0.05-0.26-0.15-0.49-0.29-0.68c-0.14-0.19-0.34-0.35-0.62-0.46c-0.28-0.12-0.58-0.18-0.9-0.18
	c-0.76,0-1.33,0.3-1.73,0.9V7.05h-0.83v5.44H106.2L106.2,12.5z M111.52,14.27c0.4,0.29,0.92,0.44,1.57,0.44
	c0.55,0,1.01-0.1,1.38-0.31s0.65-0.48,0.82-0.84c0.17-0.35,0.26-0.95,0.26-1.8V7.05h-0.85v0.66c-0.42-0.52-0.95-0.78-1.59-0.78
	c-0.48,0-0.9,0.12-1.26,0.36c-0.36,0.24-0.63,0.58-0.82,1.02c-0.19,0.44-0.28,0.92-0.28,1.44c0,0.76,0.21,1.4,0.62,1.94
	c0.41,0.54,0.99,0.81,1.74,0.81c0.6,0,1.1-0.24,1.51-0.71c0,0.6-0.02,1-0.07,1.18c-0.08,0.31-0.24,0.55-0.47,0.72
	c-0.23,0.17-0.56,0.26-0.99,0.26c-0.4,0-0.71-0.09-0.94-0.26c-0.17-0.13-0.28-0.33-0.31-0.6l-0.9-0.13
	C110.93,13.54,111.12,13.98,111.52,14.27L111.52,14.27z M112.14,8.19c0.29-0.33,0.64-0.5,1.05-0.5c0.42,0,0.77,0.17,1.07,0.51
	c0.3,0.34,0.44,0.84,0.44,1.51c0,0.7-0.14,1.21-0.43,1.54c-0.29,0.33-0.64,0.49-1.07,0.49c-0.43,0-0.78-0.16-1.07-0.49
	c-0.28-0.33-0.43-0.85-0.43-1.56C111.71,9.02,111.85,8.53,112.14,8.19L112.14,8.19z M118.56,11.71c-0.14,0-0.24-0.02-0.32-0.07
	c-0.07-0.04-0.13-0.1-0.16-0.18c-0.03-0.08-0.05-0.24-0.05-0.51V7.77h0.93V7.05h-0.93v-1.9l-0.92,0.55v1.35h-0.68v0.72h0.68v3.13
	c0,0.55,0.04,0.92,0.11,1.09c0.08,0.17,0.21,0.31,0.39,0.42s0.44,0.16,0.78,0.16c0.21,0,0.44-0.03,0.7-0.08l-0.13-0.82
	C118.8,11.69,118.67,11.71,118.56,11.71L118.56,11.71L118.56,11.71z M120.79,12.5V9.52c0-0.43,0.05-0.76,0.15-1
	c0.1-0.24,0.27-0.43,0.52-0.58c0.24-0.14,0.5-0.21,0.77-0.21c0.37,0,0.65,0.11,0.85,0.32s0.3,0.55,0.3,1.01v3.45h0.92V9.05
	c0-0.53-0.06-0.94-0.19-1.22c-0.13-0.28-0.34-0.5-0.64-0.66s-0.65-0.24-1.05-0.24c-0.66,0-1.2,0.25-1.63,0.75v-2.7h-0.92v7.52
	H120.79L120.79,12.5z M126.05,12.18c0.37,0.29,0.91,0.44,1.62,0.44c0.43,0,0.81-0.07,1.15-0.22s0.6-0.36,0.78-0.63
	s0.27-0.56,0.27-0.87c0-0.31-0.07-0.58-0.22-0.79c-0.15-0.21-0.35-0.37-0.61-0.48c-0.26-0.11-0.71-0.25-1.37-0.43
	c-0.45-0.12-0.72-0.2-0.82-0.24c-0.16-0.06-0.28-0.15-0.35-0.25c-0.08-0.1-0.11-0.2-0.11-0.32c0-0.19,0.09-0.35,0.27-0.49
	c0.18-0.14,0.48-0.21,0.91-0.21c0.36,0,0.64,0.08,0.83,0.24c0.2,0.16,0.32,0.38,0.36,0.66l0.9-0.12c-0.06-0.35-0.16-0.63-0.32-0.84
	s-0.39-0.38-0.72-0.5s-0.7-0.18-1.13-0.18c-0.28,0-0.55,0.04-0.8,0.11c-0.25,0.07-0.44,0.16-0.59,0.27
	c-0.19,0.14-0.34,0.31-0.45,0.52c-0.11,0.21-0.17,0.43-0.17,0.67c0,0.27,0.07,0.51,0.2,0.73c0.13,0.22,0.33,0.39,0.59,0.52
	c0.26,0.12,0.73,0.27,1.41,0.44c0.5,0.13,0.82,0.23,0.94,0.31c0.18,0.12,0.27,0.28,0.27,0.49c0,0.23-0.1,0.43-0.31,0.61
	c-0.21,0.17-0.52,0.26-0.94,0.26c-0.42,0-0.75-0.1-0.98-0.29c-0.23-0.19-0.38-0.48-0.43-0.84l-0.91,0.14
	C125.44,11.45,125.68,11.88,126.05,12.18L126.05,12.18z M134.35,9.08c0.19-0.09,0.4-0.14,0.62-0.14c0.27,0,0.61,0.09,1.01,0.27
	c0.41,0.18,0.7,0.3,0.89,0.34c0.19,0.05,0.38,0.07,0.59,0.07c0.28,0,0.53-0.05,0.76-0.14c0.22-0.09,0.45-0.24,0.66-0.45V7.96
	c-0.18,0.2-0.4,0.37-0.63,0.5c-0.24,0.13-0.47,0.2-0.69,0.2c-0.12,0-0.24-0.02-0.36-0.05s-0.29-0.1-0.53-0.19
	c-0.42-0.18-0.74-0.3-0.96-0.36c-0.23-0.06-0.44-0.09-0.65-0.09c-0.59,0-1.06,0.21-1.43,0.62v1.05
	C133.92,9.36,134.16,9.18,134.35,9.08L134.35,9.08z M143.85,12.5V9.52c0-0.7,0.14-1.17,0.43-1.42c0.29-0.25,0.62-0.37,1.02-0.37
	c0.25,0,0.46,0.06,0.64,0.17c0.18,0.11,0.31,0.26,0.38,0.45c0.07,0.19,0.11,0.47,0.11,0.84v3.31h0.92V9.15
	c0-0.43-0.02-0.73-0.05-0.9c-0.05-0.26-0.15-0.49-0.29-0.68c-0.14-0.19-0.34-0.35-0.62-0.46c-0.28-0.12-0.58-0.18-0.9-0.18
	c-0.76,0-1.33,0.3-1.73,0.9V7.05h-0.83v5.44H143.85L143.85,12.5z M149.13,11.89c0.47,0.49,1.09,0.73,1.85,0.73
	c0.48,0,0.91-0.11,1.32-0.33c0.4-0.22,0.71-0.53,0.92-0.94c0.21-0.4,0.32-0.95,0.32-1.65c0-0.86-0.24-1.54-0.71-2.03
	c-0.48-0.49-1.09-0.74-1.84-0.74c-0.67,0-1.24,0.2-1.71,0.6c-0.56,0.49-0.84,1.23-0.84,2.24C148.42,10.69,148.66,11.4,149.13,11.89
	L149.13,11.89z M149.83,8.21c0.3-0.35,0.69-0.52,1.15-0.52c0.45,0,0.83,0.17,1.14,0.52c0.31,0.35,0.46,0.86,0.46,1.53
	c0,0.71-0.15,1.25-0.46,1.59c-0.3,0.35-0.69,0.52-1.14,0.52c-0.46,0-0.84-0.17-1.15-0.52c-0.3-0.35-0.46-0.87-0.46-1.57
	S149.52,8.56,149.83,8.21L149.83,8.21z M158.99,12.5V4.98h-0.92v2.7c-0.16-0.22-0.37-0.4-0.63-0.54s-0.55-0.21-0.88-0.21
	c-0.45,0-0.85,0.12-1.22,0.35c-0.36,0.24-0.63,0.58-0.82,1.02c-0.18,0.44-0.27,0.94-0.27,1.48c0,0.56,0.1,1.05,0.3,1.48
	c0.2,0.43,0.48,0.76,0.85,1s0.76,0.36,1.2,0.36c0.67,0,1.18-0.27,1.52-0.81v0.69H158.99L158.99,12.5z M155.63,8.19
	c0.28-0.33,0.62-0.5,1.03-0.5c0.42,0,0.77,0.17,1.06,0.52s0.43,0.9,0.43,1.64c0,0.68-0.14,1.18-0.42,1.51
	c-0.28,0.33-0.62,0.49-1.03,0.49c-0.4,0-0.75-0.17-1.04-0.52c-0.29-0.35-0.44-0.87-0.44-1.56C155.22,9.06,155.36,8.53,155.63,8.19
	L155.63,8.19z M163.6,11.59c-0.24,0.18-0.53,0.27-0.87,0.27c-0.45,0-0.83-0.16-1.14-0.48c-0.3-0.32-0.47-0.78-0.51-1.37h4.06
	c0-0.11,0.01-0.19,0.01-0.25c0-0.9-0.23-1.6-0.69-2.09c-0.46-0.5-1.06-0.74-1.78-0.74c-0.75,0-1.36,0.25-1.84,0.76
	c-0.47,0.51-0.71,1.22-0.71,2.13c0,0.89,0.23,1.57,0.7,2.06c0.47,0.49,1.1,0.74,1.89,0.74c0.63,0,1.15-0.15,1.56-0.46
	c0.41-0.31,0.69-0.74,0.84-1.3l-0.95-0.12C164.03,11.13,163.84,11.42,163.6,11.59L163.6,11.59z M161.62,8.11
	c0.29-0.28,0.65-0.43,1.07-0.43c0.47,0,0.85,0.18,1.14,0.53c0.19,0.23,0.31,0.57,0.35,1.03h-3.04
	C161.17,8.78,161.33,8.4,161.62,8.11L161.62,8.11z M172.29,11.53c-0.24,0.22-0.55,0.33-0.91,0.33c-0.45,0-0.82-0.17-1.1-0.5
	c-0.28-0.33-0.42-0.86-0.42-1.59c0-0.72,0.15-1.25,0.44-1.58c0.29-0.33,0.67-0.5,1.13-0.5c0.31,0,0.57,0.09,0.79,0.28
	c0.22,0.18,0.37,0.46,0.45,0.83l0.9-0.14c-0.11-0.55-0.35-0.97-0.72-1.27c-0.38-0.3-0.86-0.45-1.45-0.45c-0.47,0-0.9,0.11-1.3,0.33
	c-0.4,0.22-0.69,0.55-0.89,0.99s-0.29,0.96-0.29,1.54c0,0.91,0.23,1.61,0.68,2.09c0.45,0.49,1.05,0.73,1.8,0.73
	c0.59,0,1.1-0.18,1.5-0.53c0.41-0.35,0.66-0.84,0.76-1.47l-0.91-0.12C172.69,10.96,172.54,11.3,172.29,11.53L172.29,11.53z
	 M174.81,11.89c0.47,0.49,1.09,0.73,1.85,0.73c0.48,0,0.91-0.11,1.32-0.33c0.4-0.22,0.71-0.53,0.92-0.94
	c0.21-0.4,0.32-0.95,0.32-1.65c0-0.86-0.24-1.54-0.71-2.03c-0.48-0.49-1.09-0.74-1.84-0.74c-0.67,0-1.24,0.2-1.71,0.6
	c-0.56,0.49-0.84,1.23-0.84,2.24C174.11,10.69,174.34,11.4,174.81,11.89L174.81,11.89z M175.51,8.21c0.3-0.35,0.69-0.52,1.15-0.52
	c0.45,0,0.83,0.17,1.14,0.52c0.31,0.35,0.46,0.86,0.46,1.53c0,0.71-0.15,1.25-0.46,1.59c-0.3,0.35-0.69,0.52-1.14,0.52
	c-0.46,0-0.84-0.17-1.15-0.52c-0.3-0.35-0.46-0.87-0.46-1.57S175.21,8.56,175.51,8.21L175.51,8.21z M184.69,12.5V7.05h-0.92v2.92
	c0,0.46-0.05,0.82-0.15,1.06c-0.1,0.24-0.27,0.44-0.52,0.58c-0.24,0.14-0.5,0.21-0.78,0.21s-0.51-0.07-0.7-0.21
	c-0.19-0.14-0.31-0.33-0.37-0.57c-0.04-0.17-0.06-0.49-0.06-0.97V7.05h-0.92v3.37c0,0.39,0.02,0.68,0.06,0.86
	c0.05,0.27,0.15,0.5,0.28,0.68c0.13,0.19,0.34,0.34,0.62,0.46c0.28,0.12,0.58,0.18,0.9,0.18c0.73,0,1.3-0.31,1.73-0.92v0.8H184.69
	L184.69,12.5z M187.05,12.5V9.52c0-0.7,0.14-1.17,0.43-1.42c0.29-0.25,0.62-0.37,1.02-0.37c0.25,0,0.46,0.06,0.64,0.17
	c0.18,0.11,0.31,0.26,0.38,0.45c0.07,0.19,0.11,0.47,0.11,0.84v3.31h0.92V9.15c0-0.43-0.02-0.73-0.05-0.9
	c-0.05-0.26-0.15-0.49-0.29-0.68c-0.14-0.19-0.34-0.35-0.62-0.46c-0.28-0.12-0.58-0.18-0.9-0.18c-0.76,0-1.33,0.3-1.73,0.9V7.05
	h-0.83v5.44H187.05L187.05,12.5z M193.58,11.71c-0.14,0-0.24-0.02-0.32-0.07c-0.07-0.04-0.13-0.1-0.16-0.18
	c-0.03-0.08-0.05-0.24-0.05-0.51V7.77h0.93V7.05h-0.93v-1.9l-0.92,0.55v1.35h-0.68v0.72h0.68v3.13c0,0.55,0.04,0.92,0.11,1.09
	c0.08,0.17,0.21,0.31,0.39,0.42s0.44,0.16,0.78,0.16c0.21,0,0.44-0.03,0.7-0.08l-0.13-0.82C193.82,11.69,193.68,11.71,193.58,11.71
	L193.58,11.71L193.58,11.71z M196.78,12.45c0.35-0.86,0.53-1.75,0.53-2.68c0-0.81-0.13-1.59-0.39-2.34
	c-0.31-0.86-0.78-1.73-1.43-2.58h-0.66c0.42,0.72,0.69,1.23,0.83,1.54c0.21,0.47,0.37,0.96,0.49,1.48c0.15,0.63,0.22,1.27,0.22,1.91
	c0,1.64-0.51,3.29-1.53,4.93h0.66C196,14.06,196.43,13.31,196.78,12.45L196.78,12.45z"/>
</svg>
