<?xml version="1.0" encoding="utf-8"?>
<!-- Generator: Adobe Illustrator 24.0.2, SVG Export Plug-In . SVG Version: 6.00 Build 0)  -->
<svg version="1.1" id="Layer_1" xmlns="http://www.w3.org/2000/svg" xmlns:xlink="http://www.w3.org/1999/xlink" x="0px" y="0px"
	 viewBox="0 0 235.26 235.26" style="enable-background:new 0 0 235.26 235.26;" xml:space="preserve">
<style type="text/css">
	.st0{fill:#FFFFFF;}
	.st1{fill:none;stroke:#CCCCCC;stroke-width:0.7113;stroke-linejoin:round;stroke-miterlimit:10;stroke-dasharray:4,4;}
	.st2{fill:none;stroke:#404040;stroke-width:1.4226;stroke-linejoin:round;stroke-miterlimit:10;}
	.st3{fill:#7F7F7F;}
	.st4{fill:none;stroke:#7F7F7F;stroke-width:0.9449;stroke-linecap:round;stroke-linejoin:round;stroke-miterlimit:10;}
	.st5{fill:#BEBEBE;}
	.st6{fill:#4D4D4D;}
</style>
<rect class="st0" width="235.26" height="235.26"/>
<path class="st1" d="M47.08,40.94h174.55 M47.08,40.94h174.55 M47.08,40.94h174.55 M47.08,40.94h174.55 M47.08,40.94h174.55
	 M47.08,40.94h174.55"/>
<polyline class="st2" points="48.69,84.7 50.87,83.8 53.07,82.9 55.25,82 57.44,81.1 59.63,80.2 61.82,79.3 64.01,78.4 66.2,77.5 
	68.39,76.6 72.77,74.8 74.96,73.9 77.14,73 79.34,72.1 81.52,71.2 83.71,70.3 85.9,69.4 88.09,68.5 90.28,67.6 92.47,66.7 
	94.66,65.8 96.85,64.9 99.04,64 101.23,63.1 103.41,62.2 105.6,61.3 107.79,60.4 109.98,59.5 112.17,58.6 114.36,57.7 116.55,56.8 
	118.74,55.9 120.93,55 123.12,54.1 125.31,53.2 127.5,52.3 129.69,51.41 131.87,50.5 134.06,49.6 136.25,48.71 138.44,47.8 
	140.63,46.91 142.82,46.01 145.01,45.1 149.39,43.31 151.58,42.41 153.77,41.51 155.96,40.61 158.14,39.71 160.34,38.81 
	162.52,37.91 164.71,37.01 166.9,36.11 169.09,35.21 171.28,34.31 173.47,33.41 175.66,32.51 180.03,30.71 182.23,29.81 
	184.41,28.91 186.6,28.01 188.79,27.11 190.98,26.21 193.17,25.31 195.36,24.41 197.55,23.51 199.74,22.61 201.93,21.71 
	204.12,20.81 206.31,19.91 208.5,19.01 210.68,18.11 212.87,17.21 215.06,16.31 217.25,15.41 219.44,14.52 221.63,13.61 "/>
<path class="st3" d="M99.96,32.96c0,3.27-4.91,3.27-4.91,0C95.05,29.68,99.96,29.68,99.96,32.96"/>
<path class="st4" d="M99.96,32.96c0,3.27-4.91,3.27-4.91,0C95.05,29.68,99.96,29.68,99.96,32.96"/>
<path class="st3" d="M224.09,14.41c0,3.27-4.91,3.27-4.91,0C219.18,11.14,224.09,11.14,224.09,14.41"/>
<path class="st4" d="M224.09,14.41c0,3.27-4.91,3.27-4.91,0C219.18,11.14,224.09,11.14,224.09,14.41"/>
<path class="st3" d="M77.66,52.67c0,3.27-4.91,3.27-4.91,0C72.75,49.4,77.66,49.4,77.66,52.67"/>
<path class="st4" d="M77.66,52.67c0,3.27-4.91,3.27-4.91,0C72.75,49.4,77.66,49.4,77.66,52.67"/>
<path class="st3" d="M63.38,31.97c0,3.27-4.91,3.27-4.91,0C58.47,28.7,63.38,28.7,63.38,31.97"/>
<path class="st4" d="M63.38,31.97c0,3.27-4.91,3.27-4.91,0C58.47,28.7,63.38,28.7,63.38,31.97"/>
<path class="st3" d="M51.14,73.37c0,3.27-4.91,3.27-4.91,0C46.23,70.1,51.14,70.1,51.14,73.37"/>
<path class="st4" d="M51.14,73.37c0,3.27-4.91,3.27-4.91,0C46.23,70.1,51.14,70.1,51.14,73.37"/>
<path class="st3" d="M74.12,186.27c0,3.27-4.91,3.27-4.91,0C69.21,183,74.12,183,74.12,186.27"/>
<path class="st4" d="M74.12,186.27c0,3.27-4.91,3.27-4.91,0C69.21,183,74.12,183,74.12,186.27"/>
<path class="st5" d="M90.7,26.85l0.45-1.25h1.73l0.48,1.25h0.62l-1.69-4.13h-0.59l-1.58,4.13H90.7L90.7,26.85z M91.77,23.95
	c0.1-0.26,0.17-0.52,0.22-0.79c0.06,0.22,0.16,0.51,0.29,0.86l0.43,1.14h-1.4L91.77,23.95L91.77,23.95z M94.98,26.85v-2.59h0.58
	v-0.39h-0.58v-0.28c0-0.18,0.03-0.3,0.1-0.37c0.06-0.07,0.17-0.1,0.33-0.1c0.09,0,0.19,0.01,0.3,0.03l0.08-0.44
	c-0.17-0.03-0.33-0.05-0.47-0.05c-0.22,0-0.39,0.04-0.52,0.12c-0.12,0.08-0.21,0.19-0.26,0.32c-0.04,0.1-0.05,0.25-0.05,0.45v0.32
	h-0.45v0.39h0.45v2.59H94.98L94.98,26.85z M96.46,26.85v-1.56c0-0.21,0.03-0.41,0.08-0.59c0.04-0.12,0.1-0.21,0.19-0.28
	c0.09-0.07,0.19-0.1,0.3-0.1c0.12,0,0.25,0.04,0.37,0.11l0.17-0.47c-0.18-0.11-0.35-0.16-0.52-0.16c-0.12,0-0.23,0.03-0.33,0.1
	c-0.1,0.07-0.21,0.21-0.32,0.42v-0.45h-0.46v2.99H96.46L96.46,26.85z M98.39,23.31v-0.58h-0.51v0.58H98.39L98.39,23.31z
	 M98.39,26.85v-2.99h-0.51v2.99H98.39L98.39,26.85z M100.86,26.32c-0.13,0.12-0.3,0.18-0.5,0.18c-0.25,0-0.45-0.09-0.6-0.27
	c-0.15-0.18-0.23-0.47-0.23-0.88c0-0.4,0.08-0.69,0.24-0.87c0.16-0.18,0.37-0.27,0.62-0.27c0.17,0,0.31,0.05,0.43,0.15
	c0.12,0.1,0.2,0.25,0.25,0.45l0.49-0.08c-0.06-0.3-0.19-0.54-0.4-0.7c-0.21-0.16-0.47-0.25-0.8-0.25c-0.26,0-0.49,0.06-0.71,0.18
	c-0.22,0.12-0.38,0.3-0.49,0.54S99,25.05,99,25.37c0,0.5,0.12,0.88,0.37,1.15c0.25,0.27,0.58,0.4,0.99,0.4c0.33,0,0.6-0.1,0.83-0.29
	c0.22-0.19,0.36-0.46,0.42-0.81l-0.5-0.06C101.07,26.01,100.99,26.2,100.86,26.32L100.86,26.32z M104.09,26.85h0.53
	c-0.06-0.11-0.11-0.23-0.13-0.36c-0.02-0.12-0.03-0.42-0.03-0.89v-0.68c0-0.23-0.01-0.38-0.03-0.47c-0.03-0.14-0.08-0.25-0.16-0.34
	c-0.08-0.09-0.19-0.17-0.35-0.23c-0.16-0.06-0.37-0.09-0.62-0.09c-0.26,0-0.48,0.04-0.68,0.11c-0.2,0.07-0.34,0.17-0.45,0.3
	c-0.1,0.13-0.18,0.3-0.22,0.51l0.5,0.07c0.05-0.21,0.14-0.36,0.25-0.44c0.11-0.08,0.29-0.13,0.53-0.13c0.26,0,0.45,0.06,0.58,0.17
	c0.1,0.08,0.14,0.23,0.14,0.44c0,0.02,0,0.06,0,0.13c-0.19,0.07-0.49,0.13-0.9,0.17c-0.2,0.02-0.35,0.05-0.45,0.08
	c-0.14,0.04-0.26,0.09-0.36,0.17c-0.11,0.07-0.2,0.17-0.26,0.29c-0.07,0.12-0.1,0.25-0.1,0.4c0,0.25,0.09,0.45,0.26,0.61
	c0.18,0.16,0.43,0.24,0.76,0.24c0.2,0,0.39-0.03,0.56-0.1c0.17-0.07,0.35-0.18,0.54-0.34C104.01,26.62,104.04,26.75,104.09,26.85
	L104.09,26.85L104.09,26.85z M103.95,25.54c0,0.22-0.03,0.39-0.08,0.51c-0.07,0.15-0.18,0.27-0.33,0.35
	c-0.15,0.09-0.33,0.13-0.52,0.13c-0.2,0-0.35-0.05-0.45-0.14c-0.1-0.09-0.15-0.2-0.15-0.34c0-0.09,0.02-0.17,0.07-0.24
	c0.05-0.07,0.11-0.13,0.2-0.16c0.09-0.04,0.23-0.07,0.44-0.1c0.37-0.05,0.64-0.12,0.83-0.19V25.54L103.95,25.54z"/>
<path class="st5" d="M206.23,10.7l0.45-1.25h1.73l0.48,1.25h0.62l-1.69-4.13h-0.59l-1.58,4.13H206.23L206.23,10.7z M207.29,7.79
	c0.1-0.26,0.17-0.52,0.22-0.79c0.06,0.22,0.16,0.51,0.29,0.86L208.24,9h-1.4L207.29,7.79L207.29,7.79z M210.07,10.52
	c0.2,0.16,0.5,0.24,0.89,0.24c0.23,0,0.44-0.04,0.63-0.12c0.19-0.08,0.33-0.2,0.43-0.35c0.1-0.15,0.15-0.31,0.15-0.48
	c0-0.17-0.04-0.32-0.12-0.43c-0.08-0.12-0.19-0.2-0.33-0.27c-0.14-0.06-0.39-0.14-0.75-0.24c-0.25-0.07-0.4-0.11-0.45-0.13
	c-0.09-0.04-0.15-0.08-0.19-0.14c-0.04-0.05-0.06-0.11-0.06-0.18c0-0.1,0.05-0.19,0.15-0.27c0.1-0.08,0.27-0.12,0.5-0.12
	c0.2,0,0.35,0.04,0.46,0.13c0.11,0.09,0.17,0.21,0.2,0.36l0.5-0.07c-0.03-0.19-0.09-0.35-0.17-0.46c-0.08-0.12-0.22-0.21-0.39-0.27
	c-0.18-0.07-0.38-0.1-0.62-0.1c-0.16,0-0.3,0.02-0.44,0.06c-0.14,0.04-0.24,0.09-0.32,0.15c-0.11,0.08-0.19,0.17-0.25,0.28
	c-0.06,0.11-0.09,0.24-0.09,0.37c0,0.15,0.04,0.28,0.11,0.4c0.07,0.12,0.18,0.22,0.33,0.28c0.14,0.07,0.4,0.15,0.77,0.24
	c0.28,0.07,0.45,0.13,0.52,0.17c0.1,0.07,0.15,0.16,0.15,0.27c0,0.13-0.06,0.24-0.17,0.33c-0.11,0.09-0.29,0.14-0.52,0.14
	c-0.23,0-0.41-0.05-0.54-0.16c-0.13-0.11-0.21-0.26-0.23-0.46l-0.5,0.08C209.73,10.12,209.86,10.36,210.07,10.52L210.07,10.52z
	 M213.27,7.15V6.57h-0.51v0.58H213.27L213.27,7.15z M213.27,10.7V7.71h-0.51v2.99H213.27L213.27,10.7z M216.09,10.7h0.53
	c-0.06-0.11-0.11-0.23-0.13-0.36c-0.02-0.12-0.03-0.42-0.03-0.89V8.77c0-0.23-0.01-0.38-0.03-0.47c-0.03-0.14-0.08-0.25-0.16-0.34
	c-0.08-0.09-0.19-0.17-0.35-0.23c-0.16-0.06-0.37-0.09-0.62-0.09c-0.26,0-0.48,0.04-0.68,0.11c-0.2,0.07-0.34,0.17-0.45,0.3
	c-0.1,0.13-0.18,0.3-0.22,0.51l0.5,0.07c0.05-0.21,0.14-0.36,0.25-0.44c0.11-0.08,0.29-0.13,0.53-0.13c0.26,0,0.45,0.06,0.58,0.17
	c0.1,0.08,0.14,0.23,0.14,0.44c0,0.02,0,0.06,0,0.13c-0.19,0.07-0.49,0.13-0.9,0.17c-0.2,0.02-0.35,0.05-0.45,0.08
	c-0.14,0.04-0.26,0.09-0.36,0.17c-0.11,0.07-0.2,0.17-0.26,0.29c-0.07,0.12-0.1,0.25-0.1,0.4c0,0.25,0.09,0.45,0.26,0.61
	c0.18,0.16,0.43,0.24,0.76,0.24c0.2,0,0.39-0.03,0.56-0.1c0.17-0.07,0.35-0.18,0.54-0.34C216.01,10.47,216.04,10.59,216.09,10.7
	L216.09,10.7L216.09,10.7z M215.95,9.38c0,0.22-0.03,0.39-0.08,0.51c-0.07,0.15-0.18,0.27-0.33,0.35c-0.15,0.09-0.33,0.13-0.52,0.13
	c-0.2,0-0.35-0.05-0.45-0.14c-0.1-0.09-0.15-0.2-0.15-0.34c0-0.09,0.02-0.17,0.07-0.24c0.05-0.07,0.11-0.13,0.2-0.16
	c0.09-0.04,0.23-0.07,0.44-0.1c0.37-0.05,0.64-0.12,0.83-0.19V9.38L215.95,9.38z"/>
<path class="st5" d="M84.26,54.52v-0.49h-2.53v-1.4h2.28v-0.48h-2.28v-1.26h2.44V50.4h-2.98v4.13H84.26L84.26,54.52z M87.36,54.52
	v-2.99h-0.51v1.6c0,0.26-0.03,0.45-0.08,0.58c-0.06,0.13-0.15,0.24-0.28,0.32c-0.13,0.08-0.28,0.12-0.43,0.12s-0.28-0.04-0.38-0.11
	c-0.1-0.08-0.17-0.18-0.2-0.31c-0.02-0.09-0.03-0.27-0.03-0.53v-1.66h-0.51v1.85c0,0.22,0.01,0.37,0.03,0.47
	c0.03,0.15,0.08,0.27,0.16,0.38c0.07,0.1,0.19,0.19,0.34,0.25c0.15,0.07,0.32,0.1,0.49,0.1c0.4,0,0.72-0.17,0.95-0.51v0.44H87.36
	L87.36,54.52z M88.65,54.52v-1.56c0-0.21,0.03-0.41,0.08-0.59c0.04-0.12,0.1-0.21,0.19-0.28c0.09-0.07,0.19-0.1,0.3-0.1
	c0.12,0,0.25,0.04,0.37,0.11l0.17-0.47c-0.18-0.11-0.35-0.16-0.52-0.16c-0.12,0-0.23,0.03-0.33,0.1c-0.1,0.07-0.21,0.21-0.32,0.42
	v-0.45h-0.46v2.99H88.65L88.65,54.52z M90.27,54.19c0.26,0.27,0.6,0.4,1.01,0.4c0.26,0,0.5-0.06,0.72-0.18
	c0.22-0.12,0.39-0.29,0.5-0.51c0.12-0.22,0.17-0.52,0.17-0.91c0-0.47-0.13-0.85-0.39-1.12c-0.26-0.27-0.6-0.4-1.01-0.4
	c-0.37,0-0.68,0.11-0.94,0.33c-0.31,0.27-0.46,0.68-0.46,1.23C89.88,53.53,90.01,53.92,90.27,54.19L90.27,54.19z M90.65,52.17
	c0.17-0.19,0.38-0.28,0.63-0.28c0.25,0,0.46,0.1,0.63,0.29c0.17,0.19,0.25,0.47,0.25,0.84c0,0.39-0.08,0.68-0.25,0.88
	c-0.17,0.19-0.38,0.29-0.63,0.29c-0.25,0-0.46-0.1-0.63-0.29c-0.17-0.19-0.25-0.48-0.25-0.86S90.49,52.36,90.65,52.17L90.65,52.17z
	 M93.78,55.67v-1.46c0.09,0.11,0.2,0.2,0.33,0.27c0.13,0.07,0.29,0.11,0.45,0.11c0.23,0,0.45-0.07,0.66-0.2
	c0.21-0.13,0.37-0.32,0.48-0.56c0.11-0.24,0.16-0.52,0.16-0.83c0-0.29-0.05-0.55-0.15-0.79c-0.1-0.24-0.25-0.42-0.44-0.56
	c-0.2-0.13-0.42-0.2-0.68-0.2c-0.2,0-0.36,0.04-0.5,0.11c-0.14,0.08-0.26,0.19-0.37,0.34v-0.39h-0.46v4.13H93.78L93.78,55.67z
	 M93.99,52.17c0.17-0.2,0.36-0.3,0.57-0.3c0.22,0,0.4,0.09,0.56,0.28c0.16,0.19,0.24,0.47,0.24,0.86c0,0.4-0.08,0.69-0.24,0.89
	c-0.16,0.19-0.35,0.29-0.58,0.29c-0.22,0-0.41-0.09-0.57-0.28c-0.16-0.18-0.23-0.47-0.23-0.85C93.74,52.66,93.82,52.37,93.99,52.17
	L93.99,52.17z M98.22,54.03c-0.13,0.1-0.29,0.15-0.48,0.15c-0.25,0-0.46-0.09-0.62-0.26c-0.17-0.17-0.26-0.43-0.28-0.75h2.23
	c0-0.06,0-0.11,0-0.14c0-0.49-0.13-0.88-0.38-1.15c-0.25-0.27-0.58-0.41-0.98-0.41c-0.41,0-0.75,0.14-1.01,0.42
	c-0.26,0.28-0.39,0.67-0.39,1.17c0,0.49,0.13,0.86,0.38,1.13c0.26,0.27,0.6,0.4,1.04,0.4c0.35,0,0.63-0.08,0.86-0.25
	c0.22-0.17,0.38-0.41,0.46-0.71l-0.52-0.06C98.45,53.77,98.35,53.93,98.22,54.03L98.22,54.03z M97.13,52.12
	c0.16-0.16,0.35-0.23,0.59-0.23c0.26,0,0.47,0.1,0.63,0.29c0.11,0.13,0.17,0.31,0.19,0.57h-1.67
	C96.88,52.48,96.97,52.27,97.13,52.12L97.13,52.12z"/>
<path class="st5" d="M44.6,25.87v-3.24l2.17,3.24h0.56v-4.13H46.8v3.24l-2.17-3.24h-0.56v4.13H44.6L44.6,25.87z M48.38,25.54
	c0.26,0.27,0.6,0.4,1.01,0.4c0.26,0,0.5-0.06,0.72-0.18c0.22-0.12,0.39-0.29,0.5-0.51c0.12-0.22,0.17-0.52,0.17-0.91
	c0-0.47-0.13-0.85-0.39-1.12c-0.26-0.27-0.6-0.4-1.01-0.4c-0.37,0-0.68,0.11-0.94,0.33c-0.31,0.27-0.46,0.68-0.46,1.23
	C47.99,24.88,48.12,25.27,48.38,25.54L48.38,25.54z M48.76,23.52c0.17-0.19,0.38-0.28,0.63-0.28c0.25,0,0.46,0.1,0.63,0.29
	c0.17,0.19,0.25,0.47,0.25,0.84c0,0.39-0.08,0.68-0.25,0.88c-0.17,0.19-0.38,0.29-0.63,0.29c-0.25,0-0.46-0.1-0.63-0.29
	c-0.17-0.19-0.25-0.48-0.25-0.86S48.59,23.71,48.76,23.52L48.76,23.52z M51.89,25.87v-1.56c0-0.21,0.03-0.41,0.08-0.59
	c0.04-0.12,0.1-0.21,0.19-0.28c0.09-0.07,0.19-0.1,0.3-0.1c0.12,0,0.25,0.04,0.37,0.11L53,22.98c-0.18-0.11-0.35-0.16-0.52-0.16
	c-0.12,0-0.23,0.03-0.33,0.1c-0.1,0.07-0.21,0.21-0.32,0.42v-0.45h-0.46v2.99H51.89L51.89,25.87z M54.19,25.44
	c-0.08,0-0.13-0.01-0.17-0.04c-0.04-0.02-0.07-0.06-0.09-0.1c-0.02-0.04-0.03-0.13-0.03-0.28v-1.75h0.51v-0.39H53.9v-1.04l-0.5,0.3
	v0.74h-0.37v0.39h0.37V25c0,0.3,0.02,0.5,0.06,0.6c0.04,0.09,0.11,0.17,0.21,0.23c0.1,0.06,0.24,0.09,0.43,0.09
	c0.11,0,0.24-0.02,0.38-0.05l-0.07-0.45C54.32,25.43,54.24,25.44,54.19,25.44L54.19,25.44L54.19,25.44z M55.41,25.87v-1.64
	c0-0.23,0.03-0.42,0.08-0.55c0.06-0.13,0.15-0.24,0.28-0.32c0.13-0.08,0.27-0.12,0.42-0.12c0.2,0,0.36,0.06,0.47,0.17
	s0.16,0.3,0.16,0.55v1.89h0.51v-1.89c0-0.29-0.04-0.52-0.11-0.67c-0.07-0.15-0.19-0.27-0.35-0.36c-0.16-0.09-0.36-0.13-0.58-0.13
	c-0.36,0-0.66,0.14-0.89,0.41v-1.48h-0.51v4.13H55.41L55.41,25.87z M59.9,25.87l0.45-1.25h1.73l0.48,1.25h0.62l-1.69-4.13h-0.59
	l-1.58,4.13H59.9L59.9,25.87z M60.97,22.97c0.1-0.26,0.17-0.52,0.22-0.79c0.06,0.22,0.16,0.51,0.29,0.86l0.43,1.14h-1.4L60.97,22.97
	L60.97,22.97z M64.06,25.87v-1.55c0-0.27,0.03-0.48,0.08-0.62c0.05-0.14,0.14-0.25,0.26-0.33c0.12-0.08,0.25-0.11,0.4-0.11
	c0.19,0,0.32,0.06,0.41,0.17c0.08,0.11,0.12,0.28,0.12,0.51v1.94h0.51v-1.74c0-0.31,0.07-0.53,0.21-0.67
	c0.14-0.14,0.31-0.21,0.52-0.21c0.12,0,0.22,0.03,0.3,0.08c0.09,0.05,0.15,0.13,0.18,0.22c0.03,0.09,0.05,0.24,0.05,0.44v1.88h0.5
	v-2.05c0-0.34-0.08-0.59-0.24-0.76c-0.16-0.16-0.39-0.25-0.68-0.25c-0.38,0-0.69,0.17-0.92,0.52c-0.06-0.17-0.16-0.29-0.3-0.39
	c-0.14-0.09-0.32-0.14-0.54-0.14c-0.2,0-0.38,0.04-0.53,0.13c-0.16,0.09-0.28,0.21-0.37,0.35v-0.42h-0.45v2.99H64.06L64.06,25.87z
	 M70.09,25.38c-0.13,0.1-0.29,0.15-0.48,0.15c-0.25,0-0.46-0.09-0.62-0.26c-0.17-0.17-0.26-0.43-0.28-0.75h2.23
	c0-0.06,0-0.11,0-0.14c0-0.49-0.13-0.88-0.38-1.15c-0.25-0.27-0.58-0.41-0.98-0.41c-0.41,0-0.75,0.14-1.01,0.42
	c-0.26,0.28-0.39,0.67-0.39,1.17c0,0.49,0.13,0.86,0.38,1.13c0.26,0.27,0.6,0.4,1.04,0.4c0.35,0,0.63-0.08,0.86-0.25
	c0.22-0.17,0.38-0.41,0.46-0.71l-0.52-0.06C70.33,25.12,70.22,25.28,70.09,25.38L70.09,25.38z M69,23.46
	c0.16-0.16,0.35-0.23,0.59-0.23c0.26,0,0.47,0.1,0.63,0.29c0.11,0.13,0.17,0.31,0.19,0.57h-1.67C68.76,23.83,68.85,23.62,69,23.46
	L69,23.46z M72.06,25.87v-1.56c0-0.21,0.03-0.41,0.08-0.59c0.04-0.12,0.1-0.21,0.19-0.28c0.09-0.07,0.19-0.1,0.3-0.1
	c0.12,0,0.25,0.04,0.37,0.11l0.17-0.47c-0.18-0.11-0.35-0.16-0.52-0.16c-0.12,0-0.23,0.03-0.33,0.1c-0.1,0.07-0.21,0.21-0.32,0.42
	v-0.45h-0.46v2.99H72.06L72.06,25.87z M73.99,22.33v-0.58h-0.51v0.58H73.99L73.99,22.33z M73.99,25.87v-2.99h-0.51v2.99H73.99
	L73.99,25.87z M76.46,25.34c-0.13,0.12-0.3,0.18-0.5,0.18c-0.25,0-0.45-0.09-0.6-0.27c-0.15-0.18-0.23-0.47-0.23-0.88
	c0-0.4,0.08-0.69,0.24-0.87c0.16-0.18,0.37-0.27,0.62-0.27c0.17,0,0.31,0.05,0.43,0.15c0.12,0.1,0.2,0.25,0.25,0.45l0.49-0.08
	c-0.06-0.3-0.19-0.54-0.4-0.7c-0.21-0.16-0.47-0.25-0.8-0.25c-0.26,0-0.49,0.06-0.71,0.18c-0.22,0.12-0.38,0.3-0.49,0.54
	s-0.16,0.52-0.16,0.85c0,0.5,0.12,0.88,0.37,1.15c0.25,0.27,0.58,0.4,0.99,0.4c0.33,0,0.6-0.1,0.83-0.29
	c0.22-0.19,0.36-0.46,0.42-0.81l-0.5-0.06C76.68,25.03,76.59,25.22,76.46,25.34L76.46,25.34z M79.7,25.87h0.53
	c-0.06-0.11-0.11-0.23-0.13-0.36c-0.02-0.12-0.03-0.42-0.03-0.89v-0.68c0-0.23-0.01-0.38-0.03-0.47c-0.03-0.14-0.08-0.25-0.16-0.34
	c-0.08-0.09-0.19-0.17-0.35-0.23c-0.16-0.06-0.37-0.09-0.62-0.09c-0.26,0-0.48,0.04-0.68,0.11c-0.2,0.07-0.34,0.17-0.45,0.3
	c-0.1,0.13-0.18,0.3-0.22,0.51l0.5,0.07c0.05-0.21,0.14-0.36,0.25-0.44c0.11-0.08,0.29-0.13,0.53-0.13c0.26,0,0.45,0.06,0.58,0.17
	c0.1,0.08,0.14,0.23,0.14,0.44c0,0.02,0,0.06,0,0.13c-0.19,0.07-0.49,0.13-0.9,0.17c-0.2,0.02-0.35,0.05-0.45,0.08
	c-0.14,0.04-0.26,0.09-0.36,0.17c-0.11,0.07-0.2,0.17-0.26,0.29c-0.07,0.12-0.1,0.25-0.1,0.4c0,0.25,0.09,0.45,0.26,0.61
	c0.18,0.16,0.43,0.24,0.76,0.24c0.2,0,0.39-0.03,0.56-0.1c0.17-0.07,0.35-0.18,0.54-0.34C79.61,25.64,79.64,25.77,79.7,25.87
	L79.7,25.87L79.7,25.87z M79.55,24.56c0,0.22-0.03,0.39-0.08,0.51c-0.07,0.15-0.18,0.27-0.33,0.35c-0.15,0.09-0.33,0.13-0.52,0.13
	c-0.2,0-0.35-0.05-0.45-0.14c-0.1-0.09-0.15-0.2-0.15-0.34c0-0.09,0.02-0.17,0.07-0.24c0.05-0.07,0.11-0.13,0.2-0.16
	c0.09-0.04,0.23-0.07,0.44-0.1c0.37-0.05,0.64-0.12,0.83-0.19V24.56L79.55,24.56z"/>
<path class="st5" d="M44.15,66.29c0.16,0.32,0.39,0.58,0.7,0.77c0.31,0.19,0.65,0.28,1.04,0.28c0.36,0,0.69-0.08,1-0.25
	c0.31-0.17,0.55-0.42,0.72-0.75c0.17-0.33,0.25-0.7,0.25-1.12c0-0.41-0.08-0.78-0.24-1.11c-0.16-0.33-0.39-0.58-0.7-0.76
	c-0.31-0.18-0.65-0.27-1.03-0.27c-0.58,0-1.06,0.19-1.42,0.58c-0.37,0.39-0.55,0.92-0.55,1.61C43.92,65.62,43.99,65.96,44.15,66.29
	L44.15,66.29z M44.9,63.93c0.28-0.27,0.61-0.4,1-0.4c0.27,0,0.52,0.07,0.74,0.21c0.22,0.14,0.38,0.33,0.5,0.58
	c0.11,0.25,0.17,0.54,0.17,0.88c0,0.53-0.13,0.94-0.4,1.23c-0.27,0.29-0.6,0.43-1.01,0.43c-0.4,0-0.74-0.14-1.01-0.43
	c-0.27-0.29-0.4-0.68-0.4-1.17C44.48,64.64,44.62,64.2,44.9,63.93L44.9,63.93z M50.2,66.73c-0.13,0.12-0.3,0.18-0.5,0.18
	c-0.25,0-0.45-0.09-0.6-0.27c-0.15-0.18-0.23-0.47-0.23-0.88c0-0.4,0.08-0.69,0.24-0.87c0.16-0.18,0.37-0.27,0.62-0.27
	c0.17,0,0.31,0.05,0.43,0.15c0.12,0.1,0.2,0.25,0.25,0.45l0.49-0.08c-0.06-0.3-0.19-0.54-0.4-0.7c-0.21-0.16-0.47-0.25-0.8-0.25
	c-0.26,0-0.49,0.06-0.71,0.18c-0.22,0.12-0.38,0.3-0.49,0.54s-0.16,0.52-0.16,0.85c0,0.5,0.12,0.88,0.37,1.15
	c0.25,0.27,0.58,0.4,0.99,0.4c0.33,0,0.6-0.1,0.83-0.29c0.22-0.19,0.36-0.46,0.42-0.81l-0.5-0.06
	C50.41,66.42,50.33,66.61,50.2,66.73L50.2,66.73z M53.12,66.77c-0.13,0.1-0.29,0.15-0.48,0.15c-0.25,0-0.46-0.09-0.62-0.26
	c-0.17-0.17-0.26-0.43-0.28-0.75h2.23c0-0.06,0-0.11,0-0.14c0-0.49-0.13-0.88-0.38-1.15c-0.25-0.27-0.58-0.41-0.98-0.41
	c-0.41,0-0.75,0.14-1.01,0.42c-0.26,0.28-0.39,0.67-0.39,1.17c0,0.49,0.13,0.86,0.38,1.13c0.26,0.27,0.6,0.4,1.04,0.4
	c0.35,0,0.63-0.08,0.86-0.25c0.22-0.17,0.38-0.41,0.46-0.71l-0.52-0.06C53.35,66.52,53.25,66.67,53.12,66.77L53.12,66.77z
	 M52.03,64.86c0.16-0.16,0.35-0.23,0.59-0.23c0.26,0,0.47,0.1,0.63,0.29c0.11,0.13,0.17,0.31,0.19,0.57h-1.67
	C51.78,65.22,51.87,65.02,52.03,64.86L52.03,64.86z M56.64,67.27h0.53c-0.06-0.11-0.11-0.23-0.13-0.36
	c-0.02-0.12-0.03-0.42-0.03-0.89v-0.68c0-0.23-0.01-0.38-0.03-0.47c-0.03-0.14-0.08-0.25-0.16-0.34c-0.08-0.09-0.19-0.17-0.35-0.23
	c-0.16-0.06-0.37-0.09-0.62-0.09c-0.26,0-0.48,0.04-0.68,0.11c-0.2,0.07-0.34,0.17-0.45,0.3c-0.1,0.13-0.18,0.3-0.22,0.51L55,65.2
	c0.05-0.21,0.14-0.36,0.25-0.44c0.11-0.08,0.29-0.13,0.53-0.13c0.26,0,0.45,0.06,0.58,0.17c0.1,0.08,0.14,0.23,0.14,0.44
	c0,0.02,0,0.06,0,0.13c-0.19,0.07-0.49,0.13-0.9,0.17c-0.2,0.02-0.35,0.05-0.45,0.08c-0.14,0.04-0.26,0.09-0.36,0.17
	c-0.11,0.07-0.2,0.17-0.26,0.29c-0.07,0.12-0.1,0.25-0.1,0.4c0,0.25,0.09,0.45,0.26,0.61c0.18,0.16,0.43,0.24,0.76,0.24
	c0.2,0,0.39-0.03,0.56-0.1c0.17-0.07,0.35-0.18,0.54-0.34C56.55,67.04,56.59,67.16,56.64,67.27L56.64,67.27L56.64,67.27z
	 M56.5,65.95c0,0.22-0.03,0.39-0.08,0.51c-0.07,0.15-0.18,0.27-0.33,0.35c-0.15,0.09-0.33,0.13-0.52,0.13
	c-0.2,0-0.35-0.05-0.45-0.14c-0.1-0.09-0.15-0.2-0.15-0.34c0-0.09,0.02-0.17,0.07-0.24c0.05-0.07,0.11-0.13,0.2-0.16
	c0.09-0.04,0.23-0.07,0.44-0.1c0.37-0.05,0.64-0.12,0.83-0.19V65.95L56.5,65.95z M58.3,67.27v-1.63c0-0.38,0.08-0.64,0.24-0.78
	c0.16-0.14,0.34-0.21,0.56-0.21c0.14,0,0.25,0.03,0.35,0.09c0.1,0.06,0.17,0.14,0.21,0.24c0.04,0.1,0.06,0.26,0.06,0.46v1.82h0.51
	v-1.84c0-0.23-0.01-0.4-0.03-0.49c-0.03-0.14-0.08-0.27-0.16-0.37c-0.08-0.11-0.19-0.19-0.34-0.25c-0.15-0.06-0.32-0.1-0.5-0.1
	c-0.41,0-0.73,0.16-0.95,0.49v-0.42h-0.46v2.99H58.3L58.3,67.27z M61.51,63.72v-0.58H61v0.58H61.51L61.51,63.72z M61.51,67.27v-2.99
	H61v2.99H61.51L61.51,67.27z M64.33,67.27h0.53c-0.06-0.11-0.11-0.23-0.13-0.36c-0.02-0.12-0.03-0.42-0.03-0.89v-0.68
	c0-0.23-0.01-0.38-0.03-0.47c-0.03-0.14-0.08-0.25-0.16-0.34c-0.08-0.09-0.19-0.17-0.35-0.23c-0.16-0.06-0.37-0.09-0.62-0.09
	c-0.26,0-0.48,0.04-0.68,0.11c-0.2,0.07-0.34,0.17-0.45,0.3c-0.1,0.13-0.18,0.3-0.22,0.51l0.5,0.07c0.05-0.21,0.14-0.36,0.25-0.44
	c0.11-0.08,0.29-0.13,0.53-0.13c0.26,0,0.45,0.06,0.58,0.17c0.1,0.08,0.14,0.23,0.14,0.44c0,0.02,0,0.06,0,0.13
	c-0.19,0.07-0.49,0.13-0.9,0.17c-0.2,0.02-0.35,0.05-0.45,0.08c-0.14,0.04-0.26,0.09-0.36,0.17c-0.11,0.07-0.2,0.17-0.26,0.29
	c-0.07,0.12-0.1,0.25-0.1,0.4c0,0.25,0.09,0.45,0.26,0.61c0.18,0.16,0.43,0.24,0.76,0.24c0.2,0,0.39-0.03,0.56-0.1
	c0.17-0.07,0.35-0.18,0.54-0.34C64.24,67.04,64.28,67.16,64.33,67.27L64.33,67.27L64.33,67.27z M64.19,65.95
	c0,0.22-0.03,0.39-0.08,0.51c-0.07,0.15-0.18,0.27-0.33,0.35c-0.15,0.09-0.33,0.13-0.52,0.13c-0.2,0-0.35-0.05-0.45-0.14
	c-0.1-0.09-0.15-0.2-0.15-0.34c0-0.09,0.02-0.17,0.07-0.24c0.05-0.07,0.11-0.13,0.2-0.16c0.09-0.04,0.23-0.07,0.44-0.1
	c0.37-0.05,0.64-0.12,0.83-0.19V65.95L64.19,65.95z"/>
<path class="st5" d="M53.25,179.58c0.14,0.22,0.34,0.38,0.59,0.49c0.25,0.11,0.57,0.16,0.94,0.16c0.29,0,0.56-0.05,0.8-0.16
	c0.24-0.11,0.42-0.26,0.54-0.45c0.13-0.19,0.19-0.4,0.19-0.62c0-0.22-0.06-0.42-0.17-0.59c-0.11-0.17-0.29-0.31-0.53-0.42
	c-0.17-0.08-0.47-0.16-0.91-0.26c-0.44-0.1-0.72-0.2-0.82-0.29c-0.11-0.1-0.16-0.22-0.16-0.37c0-0.17,0.08-0.32,0.23-0.44
	c0.15-0.12,0.39-0.18,0.72-0.18c0.32,0,0.56,0.07,0.72,0.2c0.16,0.13,0.26,0.33,0.29,0.59l0.52-0.04c-0.01-0.24-0.08-0.46-0.2-0.65
	c-0.13-0.19-0.31-0.34-0.54-0.43c-0.23-0.1-0.5-0.15-0.81-0.15c-0.28,0-0.53,0.05-0.76,0.14c-0.23,0.09-0.4,0.23-0.52,0.41
	c-0.12,0.18-0.18,0.38-0.18,0.58c0,0.19,0.05,0.36,0.14,0.51c0.1,0.15,0.24,0.28,0.44,0.38c0.15,0.08,0.42,0.17,0.8,0.26
	c0.38,0.09,0.62,0.16,0.73,0.2c0.17,0.07,0.3,0.15,0.37,0.24c0.08,0.1,0.11,0.21,0.11,0.34c0,0.13-0.04,0.25-0.12,0.35
	c-0.08,0.11-0.2,0.19-0.36,0.25c-0.16,0.06-0.34,0.09-0.55,0.09c-0.23,0-0.45-0.04-0.63-0.12c-0.19-0.08-0.33-0.19-0.42-0.32
	c-0.09-0.13-0.15-0.3-0.17-0.51l-0.52,0.05C53.03,179.12,53.11,179.37,53.25,179.58L53.25,179.58z M57.19,179.83
	c0.26,0.27,0.6,0.4,1.01,0.4c0.26,0,0.5-0.06,0.72-0.18c0.22-0.12,0.39-0.29,0.5-0.51c0.12-0.22,0.17-0.52,0.17-0.91
	c0-0.47-0.13-0.85-0.39-1.12c-0.26-0.27-0.6-0.4-1.01-0.4c-0.37,0-0.68,0.11-0.94,0.33c-0.31,0.27-0.46,0.68-0.46,1.23
	C56.8,179.18,56.93,179.56,57.19,179.83L57.19,179.83z M57.57,177.82c0.17-0.19,0.38-0.28,0.63-0.28c0.25,0,0.46,0.1,0.63,0.29
	c0.17,0.19,0.25,0.47,0.25,0.84c0,0.39-0.08,0.68-0.25,0.88c-0.17,0.19-0.38,0.29-0.63,0.29c-0.25,0-0.46-0.1-0.63-0.29
	c-0.17-0.19-0.25-0.48-0.25-0.86S57.41,178,57.57,177.82L57.57,177.82z M62.61,180.17v-2.99H62.1v1.6c0,0.26-0.03,0.45-0.08,0.58
	c-0.06,0.13-0.15,0.24-0.28,0.32c-0.13,0.08-0.28,0.12-0.43,0.12s-0.28-0.04-0.38-0.11c-0.1-0.08-0.17-0.18-0.2-0.31
	c-0.02-0.09-0.03-0.27-0.03-0.53v-1.66h-0.51v1.85c0,0.22,0.01,0.37,0.03,0.47c0.03,0.15,0.08,0.27,0.16,0.38
	c0.07,0.1,0.19,0.19,0.34,0.25c0.15,0.07,0.32,0.1,0.49,0.1c0.4,0,0.72-0.17,0.95-0.51v0.44H62.61L62.61,180.17z M64.28,179.73
	c-0.08,0-0.13-0.01-0.17-0.04c-0.04-0.02-0.07-0.06-0.09-0.1c-0.02-0.04-0.03-0.13-0.03-0.28v-1.75h0.51v-0.39H64v-1.04l-0.5,0.3
	v0.74h-0.37v0.39h0.37v1.72c0,0.3,0.02,0.5,0.06,0.6c0.04,0.09,0.11,0.17,0.21,0.23c0.1,0.06,0.24,0.09,0.43,0.09
	c0.11,0,0.24-0.02,0.38-0.05l-0.07-0.45C64.42,179.73,64.34,179.73,64.28,179.73L64.28,179.73L64.28,179.73z M65.51,180.17v-1.64
	c0-0.23,0.03-0.42,0.08-0.55c0.06-0.13,0.15-0.24,0.28-0.32c0.13-0.08,0.27-0.12,0.42-0.12c0.2,0,0.36,0.06,0.47,0.17
	s0.16,0.3,0.16,0.55v1.89h0.51v-1.89c0-0.29-0.04-0.52-0.11-0.67c-0.07-0.15-0.19-0.27-0.35-0.36c-0.16-0.09-0.36-0.13-0.58-0.13
	c-0.36,0-0.66,0.14-0.89,0.41v-1.48H65v4.13H65.51L65.51,180.17z M70,180.17l0.45-1.25h1.73l0.48,1.25h0.62l-1.69-4.13h-0.59
	l-1.58,4.13H70L70,180.17z M71.06,177.26c0.1-0.26,0.17-0.52,0.22-0.79c0.06,0.22,0.16,0.51,0.29,0.86l0.43,1.14h-1.4L71.06,177.26
	L71.06,177.26z M74.16,180.17v-1.55c0-0.27,0.03-0.48,0.08-0.62c0.05-0.14,0.14-0.25,0.26-0.33c0.12-0.08,0.25-0.11,0.4-0.11
	c0.19,0,0.32,0.06,0.41,0.17c0.08,0.11,0.12,0.28,0.12,0.51v1.94h0.51v-1.74c0-0.31,0.07-0.53,0.21-0.67
	c0.14-0.14,0.31-0.21,0.52-0.21c0.12,0,0.22,0.03,0.3,0.08c0.09,0.05,0.15,0.13,0.18,0.22c0.03,0.09,0.05,0.24,0.05,0.44v1.88h0.5
	v-2.05c0-0.34-0.08-0.59-0.24-0.76c-0.16-0.16-0.39-0.25-0.68-0.25c-0.38,0-0.69,0.17-0.92,0.52c-0.06-0.17-0.16-0.29-0.3-0.39
	c-0.14-0.09-0.32-0.14-0.54-0.14c-0.2,0-0.38,0.04-0.53,0.13c-0.16,0.09-0.28,0.21-0.37,0.35v-0.42h-0.45v2.99H74.16L74.16,180.17z
	 M80.19,179.67c-0.13,0.1-0.29,0.15-0.48,0.15c-0.25,0-0.46-0.09-0.62-0.26c-0.17-0.17-0.26-0.43-0.28-0.75h2.23
	c0-0.06,0-0.11,0-0.14c0-0.49-0.13-0.88-0.38-1.15c-0.25-0.27-0.58-0.41-0.98-0.41c-0.41,0-0.75,0.14-1.01,0.42
	c-0.26,0.28-0.39,0.67-0.39,1.17c0,0.49,0.13,0.86,0.38,1.13c0.26,0.27,0.6,0.4,1.04,0.4c0.35,0,0.63-0.08,0.86-0.25
	c0.22-0.17,0.38-0.41,0.46-0.71l-0.52-0.06C80.42,179.42,80.32,179.58,80.19,179.67L80.19,179.67z M79.1,177.76
	c0.16-0.16,0.35-0.23,0.59-0.23c0.26,0,0.47,0.1,0.63,0.29c0.11,0.13,0.17,0.31,0.19,0.57h-1.67
	C78.85,178.13,78.94,177.92,79.1,177.76L79.1,177.76z M82.16,180.17v-1.56c0-0.21,0.03-0.41,0.08-0.59c0.04-0.12,0.1-0.21,0.19-0.28
	c0.09-0.07,0.19-0.1,0.3-0.1c0.12,0,0.25,0.04,0.37,0.11l0.17-0.47c-0.18-0.11-0.35-0.16-0.52-0.16c-0.12,0-0.23,0.03-0.33,0.1
	c-0.1,0.07-0.21,0.21-0.32,0.42v-0.45h-0.46v2.99H82.16L82.16,180.17z M84.09,176.62v-0.58h-0.51v0.58H84.09L84.09,176.62z
	 M84.09,180.17v-2.99h-0.51v2.99H84.09L84.09,180.17z M86.56,179.64c-0.13,0.12-0.3,0.18-0.5,0.18c-0.25,0-0.45-0.09-0.6-0.27
	c-0.15-0.18-0.23-0.47-0.23-0.88c0-0.4,0.08-0.69,0.24-0.87c0.16-0.18,0.37-0.27,0.62-0.27c0.17,0,0.31,0.05,0.43,0.15
	c0.12,0.1,0.2,0.25,0.25,0.45l0.49-0.08c-0.06-0.3-0.19-0.54-0.4-0.7c-0.21-0.16-0.47-0.25-0.8-0.25c-0.26,0-0.49,0.06-0.71,0.18
	c-0.22,0.12-0.38,0.3-0.49,0.54s-0.16,0.52-0.16,0.85c0,0.5,0.12,0.88,0.37,1.15c0.25,0.27,0.58,0.4,0.99,0.4
	c0.33,0,0.6-0.1,0.83-0.29c0.22-0.19,0.36-0.46,0.42-0.81l-0.5-0.06C86.77,179.33,86.69,179.51,86.56,179.64L86.56,179.64z
	 M89.79,180.17h0.53c-0.06-0.11-0.11-0.23-0.13-0.36c-0.02-0.12-0.03-0.42-0.03-0.89v-0.68c0-0.23-0.01-0.38-0.03-0.47
	c-0.03-0.14-0.08-0.25-0.16-0.34c-0.08-0.09-0.19-0.17-0.35-0.23c-0.16-0.06-0.37-0.09-0.62-0.09c-0.26,0-0.48,0.04-0.68,0.11
	c-0.2,0.07-0.34,0.17-0.45,0.3c-0.1,0.13-0.18,0.3-0.22,0.51l0.5,0.07c0.05-0.21,0.14-0.36,0.25-0.44c0.11-0.08,0.29-0.13,0.53-0.13
	c0.26,0,0.45,0.06,0.58,0.17c0.1,0.08,0.14,0.23,0.14,0.44c0,0.02,0,0.06,0,0.13c-0.19,0.07-0.49,0.13-0.9,0.17
	c-0.2,0.02-0.35,0.05-0.45,0.08c-0.14,0.04-0.26,0.09-0.36,0.17c-0.11,0.07-0.2,0.17-0.26,0.29c-0.07,0.12-0.1,0.25-0.1,0.4
	c0,0.25,0.09,0.45,0.26,0.61c0.18,0.16,0.43,0.24,0.76,0.24c0.2,0,0.39-0.03,0.56-0.1c0.17-0.07,0.35-0.18,0.54-0.34
	C89.71,179.94,89.74,180.06,89.79,180.17L89.79,180.17L89.79,180.17z M89.65,178.85c0,0.22-0.03,0.39-0.08,0.51
	c-0.07,0.15-0.18,0.27-0.33,0.35c-0.15,0.09-0.33,0.13-0.52,0.13c-0.2,0-0.35-0.05-0.45-0.14c-0.1-0.09-0.15-0.2-0.15-0.34
	c0-0.09,0.02-0.17,0.07-0.24c0.05-0.07,0.11-0.13,0.2-0.16c0.09-0.04,0.23-0.07,0.44-0.1c0.37-0.05,0.64-0.12,0.83-0.19V178.85
	L89.65,178.85z"/>
<path class="st6" d="M30.56,172.84v-0.75h-2.3v0.75H30.56L30.56,172.84z M34.32,174.66v-1.46h0.82v-0.68h-0.82v-3.94h-0.61
	l-2.78,3.94v0.68h2.64v1.46H34.32L34.32,174.66z M31.67,172.52l1.91-2.74v2.74H31.67L31.67,172.52z"/>
<path class="st6" d="M30.56,140.17v-0.75h-2.3v0.75H30.56L30.56,140.17z M31.79,141.62c0.35,0.32,0.8,0.48,1.33,0.48
	c0.59,0,1.08-0.18,1.47-0.55c0.39-0.37,0.58-0.82,0.58-1.35c0-0.39-0.1-0.72-0.3-0.98s-0.48-0.43-0.84-0.52
	c0.28-0.13,0.49-0.3,0.63-0.51s0.21-0.46,0.21-0.72c0-0.28-0.07-0.54-0.22-0.78c-0.15-0.25-0.36-0.44-0.64-0.58
	c-0.28-0.14-0.59-0.21-0.92-0.21c-0.48,0-0.88,0.14-1.21,0.41c-0.32,0.28-0.53,0.66-0.62,1.16l0.75,0.13
	c0.06-0.37,0.18-0.64,0.37-0.82c0.19-0.18,0.44-0.27,0.73-0.27c0.29,0,0.53,0.09,0.72,0.27c0.19,0.18,0.28,0.41,0.28,0.68
	c0,0.35-0.13,0.6-0.38,0.77c-0.25,0.17-0.54,0.25-0.86,0.25c-0.03,0-0.07,0-0.12-0.01l-0.08,0.66c0.21-0.06,0.39-0.08,0.53-0.08
	c0.35,0,0.63,0.11,0.85,0.33c0.22,0.22,0.34,0.51,0.34,0.85c0,0.36-0.12,0.66-0.36,0.9c-0.24,0.24-0.54,0.37-0.89,0.37
	c-0.3,0-0.55-0.09-0.75-0.28c-0.21-0.19-0.35-0.49-0.44-0.92l-0.75,0.1C31.23,140.89,31.43,141.3,31.79,141.62L31.79,141.62z"/>
<path class="st6" d="M30.56,107.49v-0.75h-2.3v0.75H30.56L30.56,107.49z M32.12,108.6c0.08-0.14,0.19-0.27,0.32-0.4
	c0.13-0.13,0.42-0.39,0.86-0.77c0.54-0.45,0.92-0.81,1.15-1.07c0.23-0.26,0.4-0.51,0.5-0.74c0.1-0.24,0.15-0.47,0.15-0.72
	c0-0.48-0.17-0.88-0.51-1.2s-0.8-0.49-1.39-0.49c-0.58,0-1.04,0.15-1.38,0.45c-0.34,0.3-0.54,0.74-0.59,1.31l0.77,0.08
	c0-0.38,0.11-0.68,0.33-0.9s0.5-0.32,0.86-0.32c0.34,0,0.62,0.1,0.83,0.31s0.32,0.45,0.32,0.75c0,0.28-0.12,0.58-0.35,0.9
	c-0.23,0.32-0.68,0.75-1.34,1.29c-0.43,0.35-0.75,0.66-0.98,0.92c-0.23,0.27-0.39,0.54-0.49,0.81c-0.06,0.17-0.09,0.34-0.09,0.52
	h4.02v-0.72H32.12L32.12,108.6z"/>
<path class="st6" d="M30.56,74.82v-0.75h-2.3v0.75H30.56L30.56,74.82z M33.99,70.54h-0.48c-0.13,0.26-0.35,0.53-0.66,0.81
	c-0.31,0.28-0.68,0.52-1.1,0.71v0.72c0.23-0.09,0.49-0.21,0.79-0.39c0.29-0.17,0.53-0.34,0.71-0.51v4.76h0.75V70.54L33.99,70.54z"/>
<path class="st6" d="M31.78,43.45c0.33,0.42,0.8,0.63,1.38,0.63c0.45,0,0.81-0.12,1.11-0.36c0.29-0.24,0.51-0.58,0.66-1.02
	c0.15-0.44,0.22-1.01,0.22-1.73c0-0.6-0.05-1.08-0.14-1.44c-0.09-0.36-0.22-0.66-0.38-0.9c-0.16-0.25-0.36-0.44-0.61-0.57
	c-0.25-0.13-0.53-0.2-0.86-0.2c-0.44,0-0.81,0.12-1.1,0.36c-0.29,0.24-0.51,0.58-0.66,1.01c-0.15,0.44-0.22,1.02-0.22,1.74
	C31.18,42.12,31.38,42.95,31.78,43.45L31.78,43.45L31.78,43.45z M32.33,38.93c0.2-0.29,0.48-0.44,0.82-0.44
	c0.35,0,0.64,0.16,0.87,0.49c0.23,0.33,0.35,0.99,0.35,2c0,1-0.12,1.66-0.35,1.99c-0.23,0.33-0.52,0.5-0.87,0.5
	c-0.34,0-0.63-0.17-0.87-0.5c-0.23-0.33-0.35-1-0.35-1.99C31.95,39.98,32.08,39.3,32.33,38.93L32.33,38.93L32.33,38.93z"/>
<path class="st6" d="M33.99,5.2h-0.48c-0.13,0.26-0.35,0.53-0.66,0.81c-0.31,0.28-0.68,0.52-1.1,0.71v0.72
	c0.23-0.09,0.49-0.21,0.79-0.39c0.29-0.17,0.53-0.34,0.71-0.51v4.76h0.75V5.2L33.99,5.2z"/>
<path class="st6" d="M36.1,204.95c0.33,0.42,0.8,0.63,1.38,0.63c0.45,0,0.81-0.12,1.11-0.36c0.29-0.24,0.51-0.58,0.66-1.02
	c0.15-0.44,0.22-1.01,0.22-1.73c0-0.6-0.05-1.08-0.14-1.44c-0.09-0.36-0.22-0.66-0.38-0.9c-0.16-0.25-0.36-0.44-0.61-0.57
	c-0.25-0.13-0.53-0.2-0.86-0.2c-0.44,0-0.81,0.12-1.1,0.36c-0.29,0.24-0.51,0.58-0.66,1.01c-0.15,0.44-0.22,1.02-0.22,1.74
	C35.5,203.61,35.7,204.44,36.1,204.95L36.1,204.95L36.1,204.95z M36.65,200.42c0.2-0.29,0.48-0.44,0.82-0.44
	c0.35,0,0.64,0.16,0.87,0.49c0.23,0.33,0.35,0.99,0.35,2c0,1-0.12,1.66-0.35,1.99c-0.23,0.33-0.52,0.5-0.87,0.5
	c-0.34,0-0.63-0.17-0.87-0.5c-0.23-0.33-0.35-1-0.35-1.99C36.27,201.47,36.39,200.79,36.65,200.42L36.65,200.42L36.65,200.42z
	 M42.99,204.74c-0.19,0.14-0.43,0.22-0.7,0.22c-0.37,0-0.68-0.13-0.92-0.39c-0.25-0.26-0.38-0.63-0.41-1.11h3.29
	c0-0.09,0-0.15,0-0.2c0-0.73-0.19-1.29-0.56-1.69c-0.37-0.4-0.85-0.6-1.44-0.6c-0.61,0-1.1,0.2-1.49,0.61
	c-0.38,0.41-0.57,0.99-0.57,1.73c0,0.72,0.19,1.27,0.57,1.67c0.38,0.4,0.89,0.6,1.53,0.6c0.51,0,0.93-0.12,1.26-0.37
	c0.33-0.25,0.55-0.6,0.68-1.05l-0.77-0.1C43.34,204.37,43.18,204.6,42.99,204.74L42.99,204.74z M41.38,201.92
	c0.23-0.23,0.52-0.34,0.87-0.34c0.38,0,0.69,0.14,0.93,0.43c0.15,0.19,0.25,0.46,0.28,0.83H41
	C41.02,202.46,41.15,202.15,41.38,201.92L41.38,201.92z M47.43,204.49v-1.67h1.66v-0.7h-1.66v-1.66h-0.71v1.66h-1.66v0.7h1.66v1.67
	H47.43L47.43,204.49z M50.52,204.95c0.33,0.42,0.8,0.63,1.38,0.63c0.45,0,0.81-0.12,1.11-0.36c0.29-0.24,0.51-0.58,0.66-1.02
	c0.15-0.44,0.22-1.01,0.22-1.73c0-0.6-0.05-1.08-0.14-1.44c-0.09-0.36-0.22-0.66-0.38-0.9c-0.16-0.25-0.36-0.44-0.61-0.57
	c-0.25-0.13-0.53-0.2-0.86-0.2c-0.44,0-0.81,0.12-1.1,0.36c-0.29,0.24-0.51,0.58-0.66,1.01c-0.15,0.44-0.22,1.02-0.22,1.74
	C49.92,203.61,50.12,204.44,50.52,204.95L50.52,204.95L50.52,204.95z M51.07,200.42c0.2-0.29,0.48-0.44,0.82-0.44
	c0.35,0,0.64,0.16,0.87,0.49c0.23,0.33,0.35,0.99,0.35,2c0,1-0.12,1.66-0.35,1.99c-0.23,0.33-0.52,0.5-0.87,0.5
	c-0.34,0-0.63-0.17-0.87-0.5c-0.23-0.33-0.35-1-0.35-1.99C50.68,201.47,50.81,200.79,51.07,200.42L51.07,200.42L51.07,200.42z
	 M55.24,204.95c0.33,0.42,0.8,0.63,1.38,0.63c0.45,0,0.81-0.12,1.11-0.36c0.29-0.24,0.51-0.58,0.66-1.02
	c0.15-0.44,0.22-1.01,0.22-1.73c0-0.6-0.05-1.08-0.14-1.44c-0.09-0.36-0.22-0.66-0.38-0.9c-0.16-0.25-0.36-0.44-0.61-0.57
	c-0.25-0.13-0.53-0.2-0.86-0.2c-0.44,0-0.81,0.12-1.1,0.36c-0.29,0.24-0.51,0.58-0.66,1.01c-0.15,0.44-0.22,1.02-0.22,1.74
	C54.64,203.61,54.84,204.44,55.24,204.95L55.24,204.95L55.24,204.95z M55.8,200.42c0.2-0.29,0.48-0.44,0.82-0.44
	c0.35,0,0.64,0.16,0.87,0.49c0.23,0.33,0.35,0.99,0.35,2c0,1-0.12,1.66-0.35,1.99c-0.23,0.33-0.52,0.5-0.87,0.5
	c-0.34,0-0.63-0.17-0.87-0.5c-0.23-0.33-0.35-1-0.35-1.99C55.41,201.47,55.54,200.79,55.8,200.42L55.8,200.42L55.8,200.42z"/>
<path class="st6" d="M75.92,199.36h-0.48c-0.13,0.26-0.35,0.53-0.66,0.81c-0.31,0.28-0.68,0.52-1.1,0.71v0.72
	c0.23-0.09,0.49-0.21,0.79-0.39c0.29-0.17,0.53-0.34,0.71-0.51v4.76h0.75V199.36L75.92,199.36z M80.6,204.74
	c-0.19,0.14-0.43,0.22-0.7,0.22c-0.37,0-0.68-0.13-0.92-0.39c-0.25-0.26-0.38-0.63-0.41-1.11h3.29c0-0.09,0-0.15,0-0.2
	c0-0.73-0.19-1.29-0.56-1.69c-0.37-0.4-0.85-0.6-1.44-0.6c-0.61,0-1.1,0.2-1.49,0.61c-0.38,0.41-0.57,0.99-0.57,1.73
	c0,0.72,0.19,1.27,0.57,1.67c0.38,0.4,0.89,0.6,1.53,0.6c0.51,0,0.93-0.12,1.26-0.37c0.33-0.25,0.55-0.6,0.68-1.05l-0.77-0.1
	C80.95,204.37,80.79,204.6,80.6,204.74L80.6,204.74z M78.99,201.92c0.23-0.23,0.52-0.34,0.87-0.34c0.38,0,0.69,0.14,0.93,0.43
	c0.15,0.19,0.25,0.46,0.28,0.83h-2.46C78.63,202.46,78.76,202.15,78.99,201.92L78.99,201.92z M85.04,204.49v-1.67h1.66v-0.7h-1.66
	v-1.66h-0.71v1.66h-1.66v0.7h1.66v1.67H85.04L85.04,204.49z M88.13,204.95c0.33,0.42,0.8,0.63,1.38,0.63c0.45,0,0.81-0.12,1.11-0.36
	c0.29-0.24,0.51-0.58,0.66-1.02c0.15-0.44,0.22-1.01,0.22-1.73c0-0.6-0.05-1.08-0.14-1.44c-0.09-0.36-0.22-0.66-0.38-0.9
	c-0.16-0.25-0.36-0.44-0.61-0.57c-0.25-0.13-0.53-0.2-0.86-0.2c-0.44,0-0.81,0.12-1.1,0.36c-0.29,0.24-0.51,0.58-0.66,1.01
	c-0.15,0.44-0.22,1.02-0.22,1.74C87.53,203.61,87.73,204.44,88.13,204.95L88.13,204.95L88.13,204.95z M88.68,200.42
	c0.2-0.29,0.48-0.44,0.82-0.44c0.35,0,0.64,0.16,0.87,0.49c0.23,0.33,0.35,0.99,0.35,2c0,1-0.12,1.66-0.35,1.99
	c-0.23,0.33-0.52,0.5-0.87,0.5c-0.34,0-0.63-0.17-0.87-0.5c-0.23-0.33-0.35-1-0.35-1.99C88.29,201.47,88.42,200.79,88.68,200.42
	L88.68,200.42L88.68,200.42z M92.91,205.18c0.3,0.26,0.69,0.4,1.17,0.4c0.45,0,0.84-0.12,1.17-0.36c0.33-0.24,0.58-0.59,0.75-1.05
	c0.17-0.46,0.25-1.08,0.25-1.86c0-0.75-0.09-1.32-0.26-1.71s-0.42-0.7-0.75-0.91c-0.33-0.21-0.69-0.32-1.09-0.32
	c-0.55,0-1,0.19-1.37,0.56c-0.36,0.38-0.55,0.87-0.55,1.49c0,0.6,0.17,1.08,0.52,1.44s0.77,0.55,1.28,0.55
	c0.3,0,0.58-0.07,0.84-0.22c0.26-0.15,0.46-0.34,0.61-0.58c0,0.07,0,0.12,0,0.15c0,0.31-0.04,0.61-0.11,0.91s-0.17,0.54-0.28,0.71
	c-0.11,0.18-0.25,0.32-0.43,0.42c-0.17,0.11-0.37,0.16-0.6,0.16c-0.27,0-0.49-0.08-0.66-0.23c-0.17-0.15-0.29-0.4-0.35-0.73
	l-0.72,0.07C92.43,204.54,92.61,204.92,92.91,205.18L92.91,205.18z M95.09,202.39c-0.22,0.24-0.51,0.36-0.85,0.36
	c-0.34,0-0.63-0.12-0.87-0.36c-0.23-0.24-0.35-0.56-0.35-0.94c0-0.43,0.12-0.78,0.37-1.05c0.25-0.27,0.54-0.41,0.87-0.41
	c0.32,0,0.6,0.13,0.82,0.38c0.23,0.25,0.34,0.59,0.34,1.02C95.42,201.81,95.31,202.14,95.09,202.39L95.09,202.39z"/>
<path class="st6" d="M111.66,204.75c0.08-0.14,0.19-0.27,0.32-0.4c0.13-0.13,0.42-0.39,0.86-0.77c0.54-0.45,0.92-0.81,1.15-1.07
	c0.23-0.26,0.4-0.51,0.5-0.74c0.1-0.24,0.15-0.47,0.15-0.72c0-0.48-0.17-0.88-0.51-1.2s-0.8-0.49-1.39-0.49
	c-0.58,0-1.04,0.15-1.38,0.45c-0.34,0.3-0.54,0.74-0.59,1.31l0.77,0.08c0-0.38,0.11-0.68,0.33-0.9s0.5-0.32,0.86-0.32
	c0.34,0,0.62,0.1,0.83,0.31s0.32,0.45,0.32,0.75c0,0.28-0.12,0.58-0.35,0.9c-0.23,0.32-0.68,0.75-1.34,1.29
	c-0.43,0.35-0.75,0.66-0.98,0.92c-0.23,0.27-0.39,0.54-0.49,0.81c-0.06,0.17-0.09,0.34-0.09,0.52h4.02v-0.72H111.66L111.66,204.75z
	 M118.21,204.74c-0.19,0.14-0.43,0.22-0.7,0.22c-0.37,0-0.68-0.13-0.92-0.39c-0.25-0.26-0.38-0.63-0.41-1.11h3.29
	c0-0.09,0-0.15,0-0.2c0-0.73-0.19-1.29-0.56-1.69c-0.37-0.4-0.85-0.6-1.44-0.6c-0.61,0-1.1,0.2-1.49,0.61
	c-0.38,0.41-0.57,0.99-0.57,1.73c0,0.72,0.19,1.27,0.57,1.67c0.38,0.4,0.89,0.6,1.53,0.6c0.51,0,0.93-0.12,1.26-0.37
	c0.33-0.25,0.55-0.6,0.68-1.05l-0.77-0.1C118.55,204.37,118.4,204.6,118.21,204.74L118.21,204.74z M116.6,201.92
	c0.23-0.23,0.52-0.34,0.87-0.34c0.38,0,0.69,0.14,0.93,0.43c0.15,0.19,0.25,0.46,0.28,0.83h-2.46
	C116.24,202.46,116.37,202.15,116.6,201.92L116.6,201.92z M122.65,204.49v-1.67h1.66v-0.7h-1.66v-1.66h-0.71v1.66h-1.66v0.7h1.66
	v1.67H122.65L122.65,204.49z M125.74,204.95c0.33,0.42,0.8,0.63,1.38,0.63c0.45,0,0.81-0.12,1.11-0.36
	c0.29-0.24,0.51-0.58,0.66-1.02c0.15-0.44,0.22-1.01,0.22-1.73c0-0.6-0.05-1.08-0.14-1.44c-0.09-0.36-0.22-0.66-0.38-0.9
	c-0.16-0.25-0.36-0.44-0.61-0.57c-0.25-0.13-0.53-0.2-0.86-0.2c-0.44,0-0.81,0.12-1.1,0.36c-0.29,0.24-0.51,0.58-0.66,1.01
	c-0.15,0.44-0.22,1.02-0.22,1.74C125.13,203.61,125.34,204.44,125.74,204.95L125.74,204.95L125.74,204.95z M126.29,200.42
	c0.2-0.29,0.48-0.44,0.82-0.44c0.35,0,0.64,0.16,0.87,0.49c0.23,0.33,0.35,0.99,0.35,2c0,1-0.12,1.66-0.35,1.99
	c-0.23,0.33-0.52,0.5-0.87,0.5c-0.34,0-0.63-0.17-0.87-0.5c-0.23-0.33-0.35-1-0.35-1.99C125.9,201.47,126.03,200.79,126.29,200.42
	L126.29,200.42L126.29,200.42z M130.52,205.18c0.3,0.26,0.69,0.4,1.17,0.4c0.45,0,0.84-0.12,1.17-0.36
	c0.33-0.24,0.58-0.59,0.75-1.05c0.17-0.46,0.25-1.08,0.25-1.86c0-0.75-0.09-1.32-0.26-1.71s-0.42-0.7-0.75-0.91
	c-0.33-0.21-0.69-0.32-1.09-0.32c-0.55,0-1,0.19-1.37,0.56c-0.36,0.38-0.55,0.87-0.55,1.49c0,0.6,0.17,1.08,0.52,1.44
	s0.77,0.55,1.28,0.55c0.3,0,0.58-0.07,0.84-0.22c0.26-0.15,0.46-0.34,0.61-0.58c0,0.07,0,0.12,0,0.15c0,0.31-0.04,0.61-0.11,0.91
	s-0.17,0.54-0.28,0.71c-0.11,0.18-0.25,0.32-0.43,0.42c-0.17,0.11-0.37,0.16-0.6,0.16c-0.27,0-0.49-0.08-0.66-0.23
	c-0.17-0.15-0.29-0.4-0.35-0.73l-0.72,0.07C130.03,204.54,130.22,204.92,130.52,205.18L130.52,205.18z M132.7,202.39
	c-0.22,0.24-0.51,0.36-0.85,0.36c-0.34,0-0.63-0.12-0.87-0.36c-0.23-0.24-0.35-0.56-0.35-0.94c0-0.43,0.12-0.78,0.37-1.05
	c0.25-0.27,0.54-0.41,0.87-0.41c0.32,0,0.6,0.13,0.82,0.38c0.23,0.25,0.34,0.59,0.34,1.02C133.03,201.81,132.92,202.14,132.7,202.39
	L132.7,202.39z"/>
<path class="st6" d="M148.93,205.1c0.35,0.32,0.8,0.48,1.33,0.48c0.59,0,1.08-0.18,1.47-0.55c0.39-0.37,0.58-0.82,0.58-1.35
	c0-0.39-0.1-0.72-0.3-0.98s-0.48-0.43-0.84-0.52c0.28-0.13,0.49-0.3,0.63-0.51s0.21-0.46,0.21-0.72c0-0.28-0.07-0.54-0.22-0.78
	c-0.15-0.25-0.36-0.44-0.64-0.58c-0.28-0.14-0.59-0.21-0.92-0.21c-0.48,0-0.88,0.14-1.21,0.41c-0.32,0.28-0.53,0.66-0.62,1.16
	l0.75,0.13c0.06-0.37,0.18-0.64,0.37-0.82c0.19-0.18,0.44-0.27,0.73-0.27c0.29,0,0.53,0.09,0.72,0.27c0.19,0.18,0.28,0.41,0.28,0.68
	c0,0.35-0.13,0.6-0.38,0.77c-0.25,0.17-0.54,0.25-0.86,0.25c-0.03,0-0.07,0-0.12-0.01l-0.08,0.66c0.21-0.06,0.39-0.08,0.53-0.08
	c0.35,0,0.63,0.11,0.85,0.33c0.22,0.22,0.34,0.51,0.34,0.85c0,0.36-0.12,0.66-0.36,0.9c-0.24,0.24-0.54,0.37-0.89,0.37
	c-0.3,0-0.55-0.09-0.75-0.28c-0.21-0.19-0.35-0.49-0.44-0.92l-0.75,0.1C148.38,204.37,148.58,204.79,148.93,205.1L148.93,205.1z
	 M155.82,204.74c-0.19,0.14-0.43,0.22-0.7,0.22c-0.37,0-0.68-0.13-0.92-0.39c-0.25-0.26-0.38-0.63-0.41-1.11h3.29
	c0-0.09,0-0.15,0-0.2c0-0.73-0.19-1.29-0.56-1.69c-0.37-0.4-0.85-0.6-1.44-0.6c-0.61,0-1.1,0.2-1.49,0.61
	c-0.38,0.41-0.57,0.99-0.57,1.73c0,0.72,0.19,1.27,0.57,1.67c0.38,0.4,0.89,0.6,1.53,0.6c0.51,0,0.93-0.12,1.26-0.37
	c0.33-0.25,0.55-0.6,0.68-1.05l-0.77-0.1C156.16,204.37,156.01,204.6,155.82,204.74L155.82,204.74z M154.21,201.92
	c0.23-0.23,0.52-0.34,0.87-0.34c0.38,0,0.69,0.14,0.93,0.43c0.15,0.19,0.25,0.46,0.28,0.83h-2.46
	C153.85,202.46,153.98,202.15,154.21,201.92L154.21,201.92z M160.26,204.49v-1.67h1.66v-0.7h-1.66v-1.66h-0.71v1.66h-1.66v0.7h1.66
	v1.67H160.26L160.26,204.49z M163.35,204.95c0.33,0.42,0.8,0.63,1.38,0.63c0.45,0,0.81-0.12,1.11-0.36
	c0.29-0.24,0.51-0.58,0.66-1.02c0.15-0.44,0.22-1.01,0.22-1.73c0-0.6-0.05-1.08-0.14-1.44c-0.09-0.36-0.22-0.66-0.38-0.9
	c-0.16-0.25-0.36-0.44-0.61-0.57c-0.25-0.13-0.53-0.2-0.86-0.2c-0.44,0-0.81,0.12-1.1,0.36c-0.29,0.24-0.51,0.58-0.66,1.01
	c-0.15,0.44-0.22,1.02-0.22,1.74C162.74,203.61,162.94,204.44,163.35,204.95L163.35,204.95L163.35,204.95z M163.9,200.42
	c0.2-0.29,0.48-0.44,0.82-0.44c0.35,0,0.64,0.16,0.87,0.49c0.23,0.33,0.35,0.99,0.35,2c0,1-0.12,1.66-0.35,1.99
	c-0.23,0.33-0.52,0.5-0.87,0.5c-0.34,0-0.63-0.17-0.87-0.5c-0.23-0.33-0.35-1-0.35-1.99C163.51,201.47,163.64,200.79,163.9,200.42
	L163.9,200.42L163.9,200.42z M168.13,205.18c0.3,0.26,0.69,0.4,1.17,0.4c0.45,0,0.84-0.12,1.17-0.36c0.33-0.24,0.58-0.59,0.75-1.05
	c0.17-0.46,0.25-1.08,0.25-1.86c0-0.75-0.09-1.32-0.26-1.71s-0.42-0.7-0.75-0.91c-0.33-0.21-0.69-0.32-1.09-0.32
	c-0.55,0-1,0.19-1.37,0.56c-0.36,0.38-0.55,0.87-0.55,1.49c0,0.6,0.17,1.08,0.52,1.44s0.77,0.55,1.28,0.55
	c0.3,0,0.58-0.07,0.84-0.22c0.26-0.15,0.46-0.34,0.61-0.58c0,0.07,0,0.12,0,0.15c0,0.31-0.04,0.61-0.11,0.91s-0.17,0.54-0.28,0.71
	c-0.11,0.18-0.25,0.32-0.43,0.42c-0.17,0.11-0.37,0.16-0.6,0.16c-0.27,0-0.49-0.08-0.66-0.23c-0.17-0.15-0.29-0.4-0.35-0.73
	l-0.72,0.07C167.64,204.54,167.83,204.92,168.13,205.18L168.13,205.18z M170.31,202.39c-0.22,0.24-0.51,0.36-0.85,0.36
	c-0.34,0-0.63-0.12-0.87-0.36c-0.23-0.24-0.35-0.56-0.35-0.94c0-0.43,0.12-0.78,0.37-1.05c0.25-0.27,0.54-0.41,0.87-0.41
	c0.32,0,0.6,0.13,0.82,0.38c0.23,0.25,0.34,0.59,0.34,1.02C170.64,201.81,170.53,202.14,170.31,202.39L170.31,202.39z"/>
<path class="st6" d="M189.08,205.47v-1.46h0.82v-0.68h-0.82v-3.94h-0.61l-2.78,3.94v0.68h2.64v1.46H189.08L189.08,205.47z
	 M186.42,203.33l1.91-2.74v2.74H186.42L186.42,203.33z M193.43,204.74c-0.19,0.14-0.43,0.22-0.7,0.22c-0.37,0-0.68-0.13-0.92-0.39
	c-0.25-0.26-0.38-0.63-0.41-1.11h3.29c0-0.09,0-0.15,0-0.2c0-0.73-0.19-1.29-0.56-1.69c-0.37-0.4-0.85-0.6-1.44-0.6
	c-0.61,0-1.1,0.2-1.49,0.61c-0.38,0.41-0.57,0.99-0.57,1.73c0,0.72,0.19,1.27,0.57,1.67c0.38,0.4,0.89,0.6,1.53,0.6
	c0.51,0,0.93-0.12,1.26-0.37c0.33-0.25,0.55-0.6,0.68-1.05l-0.77-0.1C193.77,204.37,193.62,204.6,193.43,204.74L193.43,204.74z
	 M191.82,201.92c0.23-0.23,0.52-0.34,0.87-0.34c0.38,0,0.69,0.14,0.93,0.43c0.15,0.19,0.25,0.46,0.28,0.83h-2.46
	C191.46,202.46,191.59,202.15,191.82,201.92L191.82,201.92z M197.87,204.49v-1.67h1.66v-0.7h-1.66v-1.66h-0.71v1.66h-1.66v0.7h1.66
	v1.67H197.87L197.87,204.49z M200.96,204.95c0.33,0.42,0.8,0.63,1.38,0.63c0.45,0,0.81-0.12,1.11-0.36
	c0.29-0.24,0.51-0.58,0.66-1.02c0.15-0.44,0.22-1.01,0.22-1.73c0-0.6-0.05-1.08-0.14-1.44c-0.09-0.36-0.22-0.66-0.38-0.9
	c-0.16-0.25-0.36-0.44-0.61-0.57c-0.25-0.13-0.53-0.2-0.86-0.2c-0.44,0-0.81,0.12-1.1,0.36c-0.29,0.24-0.51,0.58-0.66,1.01
	c-0.15,0.44-0.22,1.02-0.22,1.74C200.35,203.61,200.55,204.44,200.96,204.95L200.96,204.95L200.96,204.95z M201.51,200.42
	c0.2-0.29,0.48-0.44,0.82-0.44c0.35,0,0.64,0.16,0.87,0.49c0.23,0.33,0.35,0.99,0.35,2c0,1-0.12,1.66-0.35,1.99
	c-0.23,0.33-0.52,0.5-0.87,0.5c-0.34,0-0.63-0.17-0.87-0.5c-0.23-0.33-0.35-1-0.35-1.99C201.12,201.47,201.25,200.79,201.51,200.42
	L201.51,200.42L201.51,200.42z M205.74,205.18c0.3,0.26,0.69,0.4,1.17,0.4c0.45,0,0.84-0.12,1.17-0.36
	c0.33-0.24,0.58-0.59,0.75-1.05c0.17-0.46,0.25-1.08,0.25-1.86c0-0.75-0.09-1.32-0.26-1.71s-0.42-0.7-0.75-0.91
	c-0.33-0.21-0.69-0.32-1.09-0.32c-0.55,0-1,0.19-1.37,0.56c-0.36,0.38-0.55,0.87-0.55,1.49c0,0.6,0.17,1.08,0.52,1.44
	s0.77,0.55,1.28,0.55c0.3,0,0.58-0.07,0.84-0.22c0.26-0.15,0.46-0.34,0.61-0.58c0,0.07,0,0.12,0,0.15c0,0.31-0.04,0.61-0.11,0.91
	s-0.17,0.54-0.28,0.71c-0.11,0.18-0.25,0.32-0.43,0.42c-0.17,0.11-0.37,0.16-0.6,0.16c-0.27,0-0.49-0.08-0.66-0.23
	c-0.17-0.15-0.29-0.4-0.35-0.73l-0.72,0.07C205.25,204.54,205.43,204.92,205.74,205.18L205.74,205.18z M207.92,202.39
	c-0.22,0.24-0.51,0.36-0.85,0.36c-0.34,0-0.63-0.12-0.87-0.36c-0.23-0.24-0.35-0.56-0.35-0.94c0-0.43,0.12-0.78,0.37-1.05
	c0.25-0.27,0.54-0.41,0.87-0.41c0.32,0,0.6,0.13,0.82,0.38c0.23,0.25,0.34,0.59,0.34,1.02
	C208.25,201.81,208.14,202.14,207.92,202.39L207.92,202.39z"/>
<path d="M100.48,228.07v-3.06h1.93c1.06,0,1.8-0.22,2.2-0.66c0.41-0.44,0.61-0.98,0.61-1.62c0-0.37-0.08-0.71-0.23-1.03
	c-0.15-0.31-0.35-0.55-0.6-0.73c-0.25-0.17-0.56-0.29-0.93-0.35c-0.26-0.05-0.64-0.07-1.14-0.07h-2.84v7.52H100.48L100.48,228.07z
	 M100.48,221.44h1.92c0.45,0,0.76,0.02,0.93,0.07c0.26,0.07,0.47,0.22,0.63,0.44c0.16,0.22,0.24,0.49,0.24,0.81
	c0,0.43-0.14,0.77-0.41,1.01c-0.27,0.24-0.73,0.36-1.37,0.36h-1.94V221.44L100.48,221.44z M106.73,227.46
	c0.47,0.49,1.09,0.73,1.85,0.73c0.48,0,0.91-0.11,1.32-0.33c0.4-0.22,0.71-0.53,0.92-0.94c0.21-0.4,0.32-0.95,0.32-1.65
	c0-0.86-0.24-1.54-0.71-2.03c-0.48-0.49-1.09-0.74-1.84-0.74c-0.67,0-1.24,0.2-1.71,0.6c-0.56,0.49-0.84,1.23-0.84,2.24
	C106.03,226.27,106.26,226.97,106.73,227.46L106.73,227.46z M107.43,223.78c0.3-0.35,0.69-0.52,1.15-0.52
	c0.45,0,0.83,0.17,1.14,0.52c0.31,0.35,0.46,0.86,0.46,1.53c0,0.71-0.15,1.25-0.46,1.59c-0.3,0.35-0.69,0.52-1.14,0.52
	c-0.46,0-0.84-0.17-1.15-0.52c-0.3-0.35-0.46-0.87-0.46-1.57S107.13,224.13,107.43,223.78L107.43,223.78z M113.13,230.16v-2.65
	c0.16,0.2,0.36,0.36,0.6,0.49c0.24,0.13,0.52,0.19,0.83,0.19c0.42,0,0.82-0.12,1.2-0.36c0.38-0.24,0.67-0.58,0.87-1.03
	s0.3-0.95,0.3-1.5c0-0.52-0.09-1-0.27-1.43c-0.18-0.44-0.45-0.77-0.8-1.01c-0.36-0.24-0.77-0.36-1.23-0.36
	c-0.36,0-0.66,0.07-0.91,0.21c-0.25,0.14-0.47,0.35-0.67,0.62v-0.71h-0.84v7.53H113.13L113.13,230.16z M113.5,223.78
	c0.3-0.37,0.65-0.55,1.04-0.55c0.4,0,0.74,0.17,1.02,0.52c0.29,0.35,0.43,0.86,0.43,1.56c0,0.73-0.15,1.27-0.44,1.61
	c-0.29,0.35-0.64,0.52-1.05,0.52c-0.4,0-0.75-0.17-1.03-0.5c-0.28-0.33-0.43-0.85-0.43-1.55
	C113.05,224.68,113.2,224.14,113.5,223.78L113.5,223.78z M122.44,228.07v-5.44h-0.92v2.92c0,0.46-0.05,0.82-0.15,1.06
	c-0.1,0.24-0.27,0.44-0.52,0.58c-0.24,0.14-0.5,0.21-0.78,0.21s-0.51-0.07-0.7-0.21c-0.19-0.14-0.31-0.33-0.37-0.57
	c-0.04-0.17-0.06-0.49-0.06-0.97v-3.02h-0.92V226c0,0.39,0.02,0.68,0.06,0.86c0.05,0.27,0.15,0.5,0.28,0.68
	c0.13,0.19,0.34,0.34,0.62,0.46c0.28,0.12,0.58,0.18,0.9,0.18c0.73,0,1.3-0.31,1.73-0.92v0.8H122.44L122.44,228.07z M124.79,228.07
	v-7.52h-0.92v7.52H124.79L124.79,228.07z M129.96,228.07h0.96c-0.12-0.21-0.19-0.43-0.23-0.65c-0.04-0.23-0.06-0.77-0.06-1.63v-1.23
	c0-0.41-0.02-0.69-0.05-0.85c-0.05-0.25-0.15-0.46-0.29-0.63c-0.14-0.17-0.35-0.3-0.64-0.41c-0.29-0.11-0.67-0.16-1.13-0.16
	c-0.47,0-0.88,0.06-1.24,0.19c-0.36,0.13-0.63,0.31-0.82,0.55c-0.19,0.24-0.32,0.55-0.41,0.94l0.9,0.12
	c0.1-0.39,0.25-0.66,0.46-0.81c0.21-0.15,0.53-0.23,0.96-0.23c0.46,0,0.82,0.1,1.05,0.31c0.17,0.15,0.26,0.42,0.26,0.79
	c0,0.03,0,0.11-0.01,0.24c-0.35,0.12-0.9,0.23-1.65,0.32c-0.37,0.04-0.64,0.09-0.82,0.14c-0.25,0.07-0.47,0.17-0.66,0.3
	c-0.2,0.13-0.36,0.31-0.48,0.53c-0.12,0.22-0.18,0.46-0.18,0.73c0,0.45,0.16,0.83,0.48,1.12c0.32,0.29,0.78,0.44,1.38,0.44
	c0.36,0,0.7-0.06,1.02-0.18c0.32-0.12,0.65-0.32,0.99-0.62C129.8,227.66,129.86,227.88,129.96,228.07L129.96,228.07L129.96,228.07z
	 M129.7,225.68c0,0.41-0.05,0.71-0.15,0.92c-0.13,0.27-0.33,0.48-0.61,0.64c-0.28,0.16-0.59,0.23-0.95,0.23
	c-0.36,0-0.63-0.08-0.82-0.25c-0.19-0.16-0.28-0.37-0.28-0.62c0-0.16,0.04-0.31,0.13-0.44c0.09-0.13,0.21-0.23,0.36-0.3
	c0.16-0.07,0.43-0.13,0.8-0.18c0.67-0.1,1.17-0.21,1.51-0.35V225.68L129.7,225.68z M133.67,227.28c-0.14,0-0.24-0.02-0.32-0.07
	c-0.07-0.04-0.13-0.1-0.16-0.18c-0.03-0.08-0.05-0.24-0.05-0.51v-3.18h0.93v-0.72h-0.93v-1.9l-0.92,0.55v1.35h-0.68v0.72h0.68v3.13
	c0,0.55,0.04,0.92,0.11,1.09c0.08,0.17,0.21,0.31,0.39,0.42s0.44,0.16,0.78,0.16c0.21,0,0.44-0.03,0.7-0.08l-0.13-0.82
	C133.91,227.27,133.77,227.28,133.67,227.28L133.67,227.28L133.67,227.28z M135.91,221.62v-1.06h-0.92v1.06H135.91L135.91,221.62z
	 M135.91,228.07v-5.44h-0.92v5.44H135.91L135.91,228.07z M137.67,227.46c0.47,0.49,1.09,0.73,1.85,0.73c0.48,0,0.91-0.11,1.32-0.33
	c0.4-0.22,0.71-0.53,0.92-0.94c0.21-0.4,0.32-0.95,0.32-1.65c0-0.86-0.24-1.54-0.71-2.03c-0.48-0.49-1.09-0.74-1.84-0.74
	c-0.67,0-1.24,0.2-1.71,0.6c-0.56,0.49-0.84,1.23-0.84,2.24C136.97,226.27,137.2,226.97,137.67,227.46L137.67,227.46z
	 M138.37,223.78c0.3-0.35,0.69-0.52,1.15-0.52c0.45,0,0.83,0.17,1.14,0.52c0.31,0.35,0.46,0.86,0.46,1.53
	c0,0.71-0.15,1.25-0.46,1.59c-0.3,0.35-0.69,0.52-1.14,0.52c-0.46,0-0.84-0.17-1.15-0.52c-0.3-0.35-0.46-0.87-0.46-1.57
	S138.07,224.13,138.37,223.78L138.37,223.78z M144.07,228.07v-2.97c0-0.7,0.14-1.17,0.43-1.42c0.29-0.25,0.62-0.37,1.02-0.37
	c0.25,0,0.46,0.06,0.64,0.17c0.18,0.11,0.31,0.26,0.38,0.45c0.07,0.19,0.11,0.47,0.11,0.84v3.31h0.92v-3.35
	c0-0.43-0.02-0.73-0.05-0.9c-0.05-0.26-0.15-0.49-0.29-0.68c-0.14-0.19-0.34-0.35-0.62-0.46c-0.28-0.12-0.58-0.18-0.9-0.18
	c-0.76,0-1.33,0.3-1.73,0.9v-0.77h-0.83v5.44H144.07L144.07,228.07z M152.1,227.01c0.26,0.4,0.62,0.7,1.08,0.89
	c0.46,0.2,1.03,0.3,1.71,0.3c0.54,0,1.02-0.1,1.45-0.29c0.43-0.2,0.76-0.47,0.99-0.83c0.23-0.35,0.34-0.73,0.34-1.13
	c0-0.4-0.1-0.76-0.31-1.07c-0.21-0.31-0.53-0.56-0.97-0.77c-0.3-0.14-0.86-0.3-1.66-0.48c-0.81-0.18-1.31-0.36-1.5-0.54
	c-0.19-0.17-0.29-0.4-0.29-0.67c0-0.31,0.14-0.58,0.41-0.8c0.28-0.22,0.71-0.33,1.32-0.33c0.58,0,1.01,0.12,1.31,0.36
	c0.3,0.24,0.47,0.6,0.52,1.08l0.95-0.07c-0.02-0.44-0.14-0.84-0.37-1.18c-0.23-0.35-0.56-0.61-0.98-0.79s-0.92-0.27-1.47-0.27
	c-0.51,0-0.97,0.09-1.38,0.26c-0.41,0.17-0.73,0.42-0.94,0.75c-0.22,0.33-0.32,0.68-0.32,1.06c0,0.35,0.09,0.66,0.26,0.94
	c0.18,0.28,0.44,0.51,0.8,0.7c0.28,0.15,0.76,0.3,1.45,0.47c0.69,0.17,1.14,0.29,1.34,0.37c0.31,0.12,0.54,0.27,0.68,0.44
	c0.14,0.18,0.21,0.38,0.21,0.62c0,0.23-0.07,0.45-0.21,0.64c-0.14,0.2-0.36,0.35-0.65,0.46c-0.29,0.11-0.63,0.17-1,0.17
	c-0.43,0-0.81-0.07-1.15-0.22c-0.34-0.15-0.59-0.34-0.76-0.58c-0.16-0.24-0.27-0.55-0.31-0.93l-0.94,0.08
	C151.7,226.16,151.84,226.61,152.1,227.01L152.1,227.01z M159.84,221.62v-1.06h-0.92v1.06H159.84L159.84,221.62z M159.84,228.07
	v-5.44h-0.92v5.44H159.84L159.84,228.07z M165.58,228.07v-0.79h-2.52c-0.36,0-0.75,0.02-1.16,0.05l0.57-0.63l2.95-3.46v-0.61h-4.45
	v0.75h2.22c0.3,0,0.65-0.01,1.04-0.03l-3.47,3.98v0.75H165.58L165.58,228.07z M169.65,227.17c-0.24,0.18-0.53,0.27-0.87,0.27
	c-0.45,0-0.83-0.16-1.14-0.48c-0.3-0.32-0.47-0.78-0.51-1.37h4.06c0-0.11,0.01-0.19,0.01-0.25c0-0.9-0.23-1.6-0.69-2.09
	c-0.46-0.5-1.06-0.74-1.78-0.74c-0.75,0-1.36,0.25-1.84,0.76c-0.47,0.51-0.71,1.22-0.71,2.13c0,0.89,0.23,1.57,0.7,2.06
	c0.47,0.49,1.1,0.74,1.89,0.74c0.63,0,1.15-0.15,1.56-0.46c0.41-0.31,0.69-0.74,0.84-1.3l-0.95-0.12
	C170.08,226.71,169.89,226.99,169.65,227.17L169.65,227.17z M167.67,223.69c0.29-0.28,0.65-0.43,1.07-0.43
	c0.47,0,0.85,0.18,1.14,0.53c0.19,0.23,0.31,0.57,0.35,1.03h-3.04C167.22,224.35,167.38,223.97,167.67,223.69L167.67,223.69z"/>
<path d="M11.43,189.4c0.4-0.26,0.7-0.62,0.89-1.08c0.2-0.46,0.3-1.03,0.3-1.71c0-0.54-0.1-1.02-0.29-1.45
	c-0.2-0.43-0.47-0.76-0.83-0.99c-0.35-0.23-0.73-0.34-1.13-0.34c-0.4,0-0.76,0.1-1.07,0.31c-0.31,0.21-0.56,0.53-0.77,0.97
	c-0.14,0.3-0.3,0.86-0.48,1.66c-0.18,0.81-0.36,1.31-0.54,1.5c-0.17,0.19-0.4,0.29-0.67,0.29c-0.31,0-0.58-0.14-0.8-0.41
	c-0.22-0.28-0.33-0.71-0.33-1.32c0-0.58,0.12-1.01,0.36-1.31c0.24-0.3,0.6-0.47,1.08-0.52l-0.07-0.95
	c-0.44,0.02-0.84,0.14-1.18,0.37c-0.35,0.23-0.61,0.56-0.79,0.98s-0.27,0.92-0.27,1.47c0,0.51,0.09,0.97,0.26,1.38
	c0.17,0.41,0.42,0.73,0.75,0.94c0.33,0.22,0.68,0.32,1.06,0.32c0.35,0,0.66-0.09,0.94-0.26c0.28-0.18,0.51-0.44,0.7-0.8
	c0.15-0.28,0.3-0.76,0.47-1.45c0.17-0.69,0.29-1.14,0.37-1.34c0.12-0.31,0.27-0.54,0.44-0.68c0.18-0.14,0.38-0.21,0.62-0.21
	c0.23,0,0.45,0.07,0.64,0.21c0.2,0.14,0.35,0.36,0.46,0.65c0.11,0.29,0.17,0.63,0.17,1c0,0.43-0.07,0.81-0.22,1.15
	c-0.15,0.34-0.34,0.59-0.58,0.76c-0.24,0.16-0.55,0.27-0.93,0.31l0.08,0.94C10.58,189.8,11.03,189.66,11.43,189.4L11.43,189.4z
	 M12.5,181.68H4.98v0.92h7.52V181.68L12.5,181.68z M11.89,179.89c0.49-0.47,0.73-1.09,0.73-1.85c0-0.48-0.11-0.91-0.33-1.32
	c-0.22-0.4-0.53-0.71-0.94-0.92c-0.4-0.21-0.95-0.32-1.65-0.32c-0.86,0-1.54,0.24-2.03,0.71c-0.49,0.48-0.74,1.09-0.74,1.84
	c0,0.67,0.2,1.24,0.6,1.71c0.49,0.56,1.23,0.84,2.24,0.84C10.69,180.6,11.4,180.36,11.89,179.89L11.89,179.89z M8.21,179.19
	c-0.35-0.3-0.52-0.69-0.52-1.15c0-0.45,0.17-0.83,0.52-1.14c0.35-0.31,0.86-0.46,1.53-0.46c0.71,0,1.25,0.15,1.59,0.46
	c0.35,0.3,0.52,0.69,0.52,1.14c0,0.46-0.17,0.84-0.52,1.15c-0.35,0.3-0.87,0.46-1.57,0.46S8.56,179.5,8.21,179.19L8.21,179.19z
	 M14.58,173.49h-2.65c0.2-0.16,0.36-0.36,0.49-0.6c0.13-0.24,0.19-0.52,0.19-0.83c0-0.42-0.12-0.82-0.36-1.2
	c-0.24-0.38-0.58-0.67-1.03-0.87s-0.95-0.3-1.5-0.3c-0.52,0-1,0.09-1.43,0.27c-0.44,0.18-0.77,0.45-1.01,0.8
	c-0.24,0.36-0.36,0.77-0.36,1.23c0,0.36,0.07,0.66,0.21,0.91c0.14,0.25,0.35,0.47,0.62,0.67H7.05v0.84h7.53V173.49L14.58,173.49z
	 M8.2,173.12c-0.37-0.3-0.55-0.65-0.55-1.04c0-0.4,0.17-0.74,0.52-1.02c0.35-0.29,0.86-0.43,1.56-0.43c0.73,0,1.27,0.15,1.61,0.44
	c0.35,0.29,0.52,0.64,0.52,1.05c0,0.4-0.17,0.75-0.5,1.03c-0.33,0.28-0.85,0.43-1.55,0.43C9.1,173.58,8.57,173.43,8.2,173.12
	L8.2,173.12z M11.59,165.42c0.18,0.24,0.27,0.53,0.27,0.87c0,0.45-0.16,0.83-0.48,1.14c-0.32,0.3-0.78,0.47-1.37,0.51v-4.06
	c-0.11,0-0.19-0.01-0.25-0.01c-0.9,0-1.6,0.23-2.09,0.69c-0.5,0.46-0.74,1.06-0.74,1.78c0,0.75,0.25,1.36,0.76,1.84
	c0.51,0.47,1.22,0.71,2.13,0.71c0.89,0,1.57-0.23,2.06-0.7c0.49-0.47,0.74-1.1,0.74-1.89c0-0.63-0.15-1.15-0.46-1.56
	c-0.31-0.41-0.74-0.69-1.3-0.84l-0.12,0.95C11.13,164.99,11.42,165.18,11.59,165.42L11.59,165.42z M8.11,167.4
	c-0.28-0.29-0.43-0.65-0.43-1.07c0-0.47,0.18-0.85,0.53-1.14c0.23-0.19,0.57-0.31,1.03-0.35v3.04C8.78,167.85,8.4,167.69,8.11,167.4
	L8.11,167.4z M14.71,157.39c-1.64,1.02-3.28,1.53-4.93,1.53c-0.65,0-1.29-0.07-1.93-0.22c-0.51-0.12-1-0.28-1.48-0.49
	c-0.3-0.13-0.81-0.41-1.52-0.82v0.66c0.86,0.64,1.72,1.12,2.58,1.43c0.75,0.26,1.52,0.39,2.34,0.39c0.92,0,1.81-0.18,2.68-0.53
	c0.86-0.35,1.61-0.78,2.26-1.29V157.39L14.71,157.39z M11.71,154.71c0,0.14-0.02,0.24-0.07,0.32c-0.04,0.07-0.1,0.13-0.18,0.16
	c-0.08,0.03-0.24,0.05-0.51,0.05H7.77v-0.93H7.05v0.93h-1.9l0.55,0.92h1.35v0.68h0.72v-0.68h3.13c0.55,0,0.92-0.04,1.09-0.11
	c0.17-0.08,0.31-0.21,0.42-0.39s0.16-0.44,0.16-0.78c0-0.21-0.03-0.44-0.08-0.7l-0.82,0.13C11.69,154.47,11.71,154.61,11.71,154.71
	L11.71,154.71L11.71,154.71z M11.89,153.04c0.49-0.47,0.73-1.09,0.73-1.85c0-0.48-0.11-0.91-0.33-1.32
	c-0.22-0.4-0.53-0.71-0.94-0.92c-0.4-0.21-0.95-0.32-1.65-0.32c-0.86,0-1.54,0.24-2.03,0.71c-0.49,0.48-0.74,1.09-0.74,1.84
	c0,0.67,0.2,1.24,0.6,1.71c0.49,0.56,1.23,0.84,2.24,0.84C10.69,153.75,11.4,153.51,11.89,153.04L11.89,153.04z M8.21,152.34
	c-0.35-0.3-0.52-0.69-0.52-1.15c0-0.45,0.17-0.83,0.52-1.14c0.35-0.31,0.86-0.46,1.53-0.46c0.71,0,1.25,0.15,1.59,0.46
	c0.35,0.3,0.52,0.69,0.52,1.14c0,0.46-0.17,0.84-0.52,1.15c-0.35,0.3-0.87,0.46-1.57,0.46S8.56,152.65,8.21,152.34L8.21,152.34z
	 M11.71,145.95c0,0.14-0.02,0.24-0.07,0.32c-0.04,0.07-0.1,0.13-0.18,0.16c-0.08,0.03-0.24,0.05-0.51,0.05H7.77v-0.93H7.05v0.93
	h-1.9l0.55,0.92h1.35v0.68h0.72v-0.68h3.13c0.55,0,0.92-0.04,1.09-0.11c0.17-0.08,0.31-0.21,0.42-0.39s0.16-0.44,0.16-0.78
	c0-0.21-0.03-0.44-0.08-0.7l-0.82,0.13C11.69,145.72,11.71,145.85,11.71,145.95L11.71,145.95L11.71,145.95z M12.5,140.91v-0.96
	c-0.21,0.12-0.43,0.19-0.65,0.23c-0.23,0.04-0.77,0.06-1.63,0.06H8.98c-0.41,0-0.69,0.02-0.85,0.05c-0.25,0.05-0.46,0.15-0.63,0.29
	c-0.17,0.14-0.3,0.35-0.41,0.64c-0.11,0.29-0.16,0.67-0.16,1.13c0,0.47,0.06,0.88,0.19,1.24c0.13,0.36,0.31,0.63,0.55,0.82
	c0.24,0.19,0.55,0.32,0.94,0.41l0.12-0.9c-0.39-0.1-0.66-0.25-0.81-0.46c-0.15-0.21-0.23-0.53-0.23-0.96c0-0.46,0.1-0.82,0.31-1.05
	c0.15-0.17,0.42-0.26,0.79-0.26c0.03,0,0.11,0,0.24,0.01c0.12,0.35,0.23,0.9,0.32,1.65c0.04,0.37,0.09,0.64,0.14,0.82
	c0.07,0.25,0.17,0.47,0.3,0.66c0.13,0.2,0.31,0.36,0.53,0.48c0.22,0.12,0.46,0.18,0.73,0.18c0.45,0,0.83-0.16,1.12-0.48
	c0.29-0.32,0.44-0.78,0.44-1.38c0-0.36-0.06-0.7-0.18-1.02c-0.12-0.32-0.32-0.65-0.62-0.99C12.08,141.07,12.3,141,12.5,140.91
	L12.5,140.91L12.5,140.91z M10.1,141.17c0.41,0,0.71,0.05,0.92,0.15c0.27,0.13,0.48,0.33,0.64,0.61c0.16,0.28,0.23,0.59,0.23,0.95
	c0,0.36-0.08,0.63-0.25,0.82c-0.16,0.19-0.37,0.28-0.62,0.28c-0.16,0-0.31-0.04-0.44-0.13c-0.13-0.09-0.23-0.21-0.3-0.36
	c-0.07-0.16-0.13-0.43-0.18-0.8c-0.1-0.67-0.21-1.17-0.35-1.51H10.1L10.1,141.17z M12.5,137.9H4.98v0.92h7.52V137.9L12.5,137.9z
	 M14.58,132.63h-2.65c0.2-0.16,0.36-0.36,0.49-0.6c0.13-0.24,0.19-0.52,0.19-0.83c0-0.42-0.12-0.82-0.36-1.2
	c-0.24-0.38-0.58-0.67-1.03-0.87s-0.95-0.3-1.5-0.3c-0.52,0-1,0.09-1.43,0.27c-0.44,0.18-0.77,0.45-1.01,0.8
	c-0.24,0.36-0.36,0.77-0.36,1.23c0,0.36,0.07,0.66,0.21,0.91c0.14,0.25,0.35,0.47,0.62,0.67H7.05v0.84h7.53V132.63L14.58,132.63z
	 M8.2,132.27c-0.37-0.3-0.55-0.65-0.55-1.04c0-0.4,0.17-0.74,0.52-1.02c0.35-0.29,0.86-0.43,1.56-0.43c0.73,0,1.27,0.15,1.61,0.44
	c0.35,0.29,0.52,0.64,0.52,1.05c0,0.4-0.17,0.75-0.5,1.03c-0.33,0.28-0.85,0.43-1.55,0.43C9.1,132.72,8.57,132.57,8.2,132.27
	L8.2,132.27z M12.5,123.98v-0.96c-0.21,0.12-0.43,0.19-0.65,0.23c-0.23,0.04-0.77,0.06-1.63,0.06H8.98c-0.41,0-0.69,0.02-0.85,0.05
	c-0.25,0.05-0.46,0.15-0.63,0.29c-0.17,0.14-0.3,0.35-0.41,0.64c-0.11,0.29-0.16,0.67-0.16,1.13c0,0.47,0.06,0.88,0.19,1.24
	c0.13,0.36,0.31,0.63,0.55,0.82c0.24,0.19,0.55,0.32,0.94,0.41l0.12-0.9c-0.39-0.1-0.66-0.25-0.81-0.46
	c-0.15-0.21-0.23-0.53-0.23-0.96c0-0.46,0.1-0.82,0.31-1.05c0.15-0.17,0.42-0.26,0.79-0.26c0.03,0,0.11,0,0.24,0.01
	c0.12,0.35,0.23,0.9,0.32,1.65c0.04,0.37,0.09,0.64,0.14,0.82c0.07,0.25,0.17,0.47,0.3,0.66c0.13,0.2,0.31,0.36,0.53,0.48
	c0.22,0.12,0.46,0.18,0.73,0.18c0.45,0,0.83-0.16,1.12-0.48c0.29-0.32,0.44-0.78,0.44-1.38c0-0.36-0.06-0.7-0.18-1.02
	c-0.12-0.32-0.32-0.65-0.62-0.99C12.08,124.14,12.3,124.08,12.5,123.98L12.5,123.98L12.5,123.98z M10.1,124.24
	c0.41,0,0.71,0.05,0.92,0.15c0.27,0.13,0.48,0.33,0.64,0.61c0.16,0.28,0.23,0.59,0.23,0.95c0,0.36-0.08,0.63-0.25,0.82
	c-0.16,0.19-0.37,0.28-0.62,0.28c-0.16,0-0.31-0.04-0.44-0.13c-0.13-0.09-0.23-0.21-0.3-0.36c-0.07-0.16-0.13-0.43-0.18-0.8
	c-0.1-0.67-0.21-1.17-0.35-1.51H10.1L10.1,124.24z M11.71,120.27c0,0.14-0.02,0.24-0.07,0.32c-0.04,0.07-0.1,0.13-0.18,0.16
	c-0.08,0.03-0.24,0.05-0.51,0.05H7.77v-0.93H7.05v0.93h-1.9l0.55,0.92h1.35v0.68h0.72v-0.68h3.13c0.55,0,0.92-0.04,1.09-0.11
	c0.17-0.08,0.31-0.21,0.42-0.39s0.16-0.44,0.16-0.78c0-0.21-0.03-0.44-0.08-0.7l-0.82,0.13C11.69,120.03,11.71,120.17,11.71,120.27
	L11.71,120.27L11.71,120.27z M12.5,118.04H9.52c-0.43,0-0.76-0.05-1-0.15c-0.24-0.1-0.43-0.27-0.58-0.52
	c-0.14-0.24-0.21-0.5-0.21-0.77c0-0.37,0.11-0.65,0.32-0.85s0.55-0.3,1.01-0.3h3.45v-0.92H9.05c-0.53,0-0.94,0.06-1.22,0.19
	c-0.28,0.13-0.5,0.34-0.66,0.64s-0.24,0.65-0.24,1.05c0,0.66,0.25,1.2,0.75,1.63h-2.7v0.92h7.52V118.04L12.5,118.04z M12.5,109.3
	H4.98v0.92h7.52V109.3L12.5,109.3z M11.59,104.71c0.18,0.24,0.27,0.53,0.27,0.87c0,0.45-0.16,0.83-0.48,1.14
	c-0.32,0.3-0.78,0.47-1.37,0.51v-4.06c-0.11,0-0.19-0.01-0.25-0.01c-0.9,0-1.6,0.23-2.09,0.69c-0.5,0.46-0.74,1.06-0.74,1.78
	c0,0.75,0.25,1.36,0.76,1.84c0.51,0.47,1.22,0.71,2.13,0.71c0.89,0,1.57-0.23,2.06-0.7c0.49-0.47,0.74-1.1,0.74-1.89
	c0-0.63-0.15-1.15-0.46-1.56c-0.31-0.41-0.74-0.69-1.3-0.84l-0.12,0.95C11.13,104.28,11.42,104.47,11.59,104.71L11.59,104.71z
	 M8.11,106.69c-0.28-0.29-0.43-0.65-0.43-1.07c0-0.47,0.18-0.85,0.53-1.14c0.23-0.19,0.57-0.31,1.03-0.35v3.04
	C8.78,107.14,8.4,106.98,8.11,106.69L8.11,106.69z M12.5,101.11H9.52c-0.7,0-1.17-0.14-1.42-0.43c-0.25-0.29-0.37-0.62-0.37-1.02
	c0-0.25,0.06-0.46,0.17-0.64c0.11-0.18,0.26-0.31,0.45-0.38c0.19-0.07,0.47-0.11,0.84-0.11h3.31v-0.92H9.15
	c-0.43,0-0.73,0.02-0.9,0.05c-0.26,0.05-0.49,0.15-0.68,0.29c-0.19,0.14-0.35,0.34-0.46,0.62c-0.12,0.28-0.18,0.58-0.18,0.9
	c0,0.76,0.3,1.33,0.9,1.73H7.05v0.83h5.44V101.11L12.5,101.11z M14.27,95.78c0.29-0.4,0.44-0.92,0.44-1.57
	c0-0.55-0.1-1.01-0.31-1.38s-0.48-0.65-0.84-0.82c-0.35-0.17-0.95-0.26-1.8-0.26H7.05v0.85h0.66c-0.52,0.42-0.78,0.95-0.78,1.59
	c0,0.48,0.12,0.9,0.36,1.26c0.24,0.36,0.58,0.63,1.02,0.82c0.44,0.19,0.92,0.28,1.44,0.28c0.76,0,1.4-0.21,1.94-0.62
	c0.54-0.41,0.81-0.99,0.81-1.74c0-0.6-0.24-1.1-0.71-1.51c0.6,0,1,0.02,1.18,0.07c0.31,0.08,0.55,0.24,0.72,0.47
	c0.17,0.23,0.26,0.56,0.26,0.99c0,0.4-0.09,0.71-0.26,0.94c-0.13,0.17-0.33,0.28-0.6,0.31l-0.13,0.9
	C13.54,96.37,13.98,96.18,14.27,95.78L14.27,95.78z M8.19,95.17c-0.33-0.29-0.5-0.64-0.5-1.05c0-0.42,0.17-0.77,0.51-1.07
	c0.34-0.3,0.84-0.44,1.51-0.44c0.7,0,1.21,0.14,1.54,0.43c0.33,0.29,0.49,0.64,0.49,1.07c0,0.43-0.16,0.78-0.49,1.07
	c-0.33,0.28-0.85,0.43-1.56,0.43C9.02,95.6,8.53,95.45,8.19,95.17L8.19,95.17z M11.71,88.74c0,0.14-0.02,0.24-0.07,0.32
	c-0.04,0.07-0.1,0.13-0.18,0.16c-0.08,0.03-0.24,0.05-0.51,0.05H7.77v-0.93H7.05v0.93h-1.9l0.55,0.92h1.35v0.68h0.72v-0.68h3.13
	c0.55,0,0.92-0.04,1.09-0.11c0.17-0.08,0.31-0.21,0.42-0.39s0.16-0.44,0.16-0.78c0-0.21-0.03-0.44-0.08-0.7l-0.82,0.13
	C11.69,88.5,11.71,88.64,11.71,88.74L11.71,88.74L11.71,88.74z M12.5,86.51H9.52c-0.43,0-0.76-0.05-1-0.15
	c-0.24-0.1-0.43-0.27-0.58-0.52c-0.14-0.24-0.21-0.5-0.21-0.77c0-0.37,0.11-0.65,0.32-0.85s0.55-0.3,1.01-0.3h3.45V83H9.05
	c-0.53,0-0.94,0.06-1.22,0.19c-0.28,0.13-0.5,0.34-0.66,0.64s-0.24,0.65-0.24,1.05c0,0.66,0.25,1.2,0.75,1.63h-2.7v0.92h7.52V86.51
	L12.5,86.51z M12.18,81.25c0.29-0.37,0.44-0.91,0.44-1.62c0-0.43-0.07-0.81-0.22-1.15s-0.36-0.6-0.63-0.78s-0.56-0.27-0.87-0.27
	c-0.31,0-0.58,0.07-0.79,0.22c-0.21,0.15-0.37,0.35-0.48,0.61c-0.11,0.26-0.25,0.71-0.43,1.37c-0.12,0.45-0.2,0.72-0.24,0.82
	c-0.06,0.16-0.15,0.28-0.25,0.35c-0.1,0.08-0.2,0.11-0.32,0.11c-0.19,0-0.35-0.09-0.49-0.27c-0.14-0.18-0.21-0.48-0.21-0.91
	c0-0.36,0.08-0.64,0.24-0.83c0.16-0.2,0.38-0.32,0.66-0.36l-0.12-0.9c-0.35,0.06-0.63,0.16-0.84,0.32s-0.38,0.39-0.5,0.72
	s-0.18,0.7-0.18,1.13c0,0.28,0.04,0.55,0.11,0.8c0.07,0.25,0.16,0.44,0.27,0.59c0.14,0.19,0.31,0.34,0.52,0.45
	c0.21,0.11,0.43,0.17,0.67,0.17c0.27,0,0.51-0.07,0.73-0.2c0.22-0.13,0.39-0.33,0.52-0.59c0.12-0.26,0.27-0.73,0.44-1.41
	c0.13-0.5,0.23-0.82,0.31-0.94c0.12-0.18,0.28-0.27,0.49-0.27c0.23,0,0.43,0.1,0.61,0.31c0.17,0.21,0.26,0.52,0.26,0.94
	c0,0.42-0.1,0.75-0.29,0.98c-0.19,0.23-0.48,0.38-0.84,0.43l0.14,0.91C11.45,81.86,11.88,81.62,12.18,81.25L12.18,81.25z
	 M9.08,72.95c-0.09-0.19-0.14-0.4-0.14-0.62c0-0.27,0.09-0.61,0.27-1.01c0.18-0.41,0.3-0.7,0.34-0.89c0.05-0.19,0.07-0.38,0.07-0.59
	c0-0.28-0.05-0.53-0.14-0.76c-0.09-0.22-0.24-0.45-0.45-0.66H7.96c0.2,0.18,0.37,0.4,0.5,0.63c0.13,0.24,0.2,0.47,0.2,0.69
	c0,0.12-0.02,0.24-0.05,0.36s-0.1,0.29-0.19,0.53c-0.18,0.42-0.3,0.74-0.36,0.96C8,71.83,7.97,72.04,7.97,72.25
	c0,0.59,0.21,1.06,0.62,1.43h1.05C9.36,73.39,9.18,73.15,9.08,72.95L9.08,72.95z M12.5,63.46H9.52c-0.7,0-1.17-0.14-1.42-0.43
	c-0.25-0.29-0.37-0.62-0.37-1.02c0-0.25,0.06-0.46,0.17-0.64c0.11-0.18,0.26-0.31,0.45-0.38c0.19-0.07,0.47-0.11,0.84-0.11h3.31
	v-0.92H9.15c-0.43,0-0.73,0.02-0.9,0.05c-0.26,0.05-0.49,0.15-0.68,0.29c-0.19,0.14-0.35,0.34-0.46,0.62
	c-0.12,0.28-0.18,0.58-0.18,0.9c0,0.76,0.3,1.33,0.9,1.73H7.05v0.83h5.44V63.46L12.5,63.46z M11.89,58.18
	c0.49-0.47,0.73-1.09,0.73-1.85c0-0.48-0.11-0.91-0.33-1.32c-0.22-0.4-0.53-0.71-0.94-0.92c-0.4-0.21-0.95-0.32-1.65-0.32
	c-0.86,0-1.54,0.24-2.03,0.71c-0.49,0.48-0.74,1.09-0.74,1.84c0,0.67,0.2,1.24,0.6,1.71c0.49,0.56,1.23,0.84,2.24,0.84
	C10.69,58.88,11.4,58.65,11.89,58.18L11.89,58.18z M8.21,57.48c-0.35-0.3-0.52-0.69-0.52-1.15c0-0.45,0.17-0.83,0.52-1.14
	c0.35-0.31,0.86-0.46,1.53-0.46c0.71,0,1.25,0.15,1.59,0.46c0.35,0.3,0.52,0.69,0.52,1.14c0,0.46-0.17,0.84-0.52,1.15
	c-0.35,0.3-0.87,0.46-1.57,0.46S8.56,57.78,8.21,57.48L8.21,57.48z M12.5,48.31H4.98v0.92h2.7c-0.22,0.16-0.4,0.37-0.54,0.63
	s-0.21,0.55-0.21,0.88c0,0.45,0.12,0.85,0.35,1.22c0.24,0.36,0.58,0.63,1.02,0.82c0.44,0.18,0.94,0.27,1.48,0.27
	c0.56,0,1.05-0.1,1.48-0.3c0.43-0.2,0.76-0.48,1-0.85s0.36-0.76,0.36-1.2c0-0.67-0.27-1.18-0.81-1.52h0.69V48.31L12.5,48.31z
	 M8.19,51.67c-0.33-0.28-0.5-0.62-0.5-1.03c0-0.42,0.17-0.77,0.52-1.06s0.9-0.43,1.64-0.43c0.68,0,1.18,0.14,1.51,0.42
	c0.33,0.28,0.49,0.62,0.49,1.03c0,0.4-0.17,0.75-0.52,1.04c-0.35,0.29-0.87,0.44-1.56,0.44C9.06,52.08,8.53,51.95,8.19,51.67
	L8.19,51.67z M11.59,43.7c0.18,0.24,0.27,0.53,0.27,0.87c0,0.45-0.16,0.83-0.48,1.14c-0.32,0.3-0.78,0.47-1.37,0.51v-4.06
	c-0.11,0-0.19-0.01-0.25-0.01c-0.9,0-1.6,0.23-2.09,0.69c-0.5,0.46-0.74,1.06-0.74,1.78c0,0.75,0.25,1.36,0.76,1.84
	c0.51,0.47,1.22,0.71,2.13,0.71c0.89,0,1.57-0.23,2.06-0.7c0.49-0.47,0.74-1.1,0.74-1.89c0-0.63-0.15-1.15-0.46-1.56
	c-0.31-0.41-0.74-0.69-1.3-0.84l-0.12,0.95C11.13,43.27,11.42,43.46,11.59,43.7L11.59,43.7z M8.11,45.68
	c-0.28-0.29-0.43-0.65-0.43-1.07c0-0.47,0.18-0.85,0.53-1.14c0.23-0.19,0.57-0.31,1.03-0.35v3.04C8.78,46.13,8.4,45.97,8.11,45.68
	L8.11,45.68z M11.53,35.01c0.22,0.24,0.33,0.55,0.33,0.91c0,0.45-0.17,0.82-0.5,1.1c-0.33,0.28-0.86,0.42-1.59,0.42
	c-0.72,0-1.25-0.15-1.58-0.44c-0.33-0.29-0.5-0.67-0.5-1.13c0-0.31,0.09-0.57,0.28-0.79c0.18-0.22,0.46-0.37,0.83-0.45l-0.14-0.9
	c-0.55,0.11-0.97,0.35-1.27,0.72c-0.3,0.38-0.45,0.86-0.45,1.45c0,0.47,0.11,0.9,0.33,1.3c0.22,0.4,0.55,0.69,0.99,0.89
	s0.96,0.29,1.54,0.29c0.91,0,1.61-0.23,2.09-0.68c0.49-0.45,0.73-1.05,0.73-1.8c0-0.59-0.18-1.1-0.53-1.5
	c-0.35-0.41-0.84-0.66-1.47-0.76l-0.12,0.91C10.96,34.62,11.3,34.77,11.53,35.01L11.53,35.01z M11.89,32.49
	c0.49-0.47,0.73-1.09,0.73-1.85c0-0.48-0.11-0.91-0.33-1.32c-0.22-0.4-0.53-0.71-0.94-0.92c-0.4-0.21-0.95-0.32-1.65-0.32
	c-0.86,0-1.54,0.24-2.03,0.71c-0.49,0.48-0.74,1.09-0.74,1.84c0,0.67,0.2,1.24,0.6,1.71c0.49,0.56,1.23,0.84,2.24,0.84
	C10.69,33.2,11.4,32.96,11.89,32.49L11.89,32.49z M8.21,31.79c-0.35-0.3-0.52-0.69-0.52-1.15c0-0.45,0.17-0.83,0.52-1.14
	c0.35-0.31,0.86-0.46,1.53-0.46c0.71,0,1.25,0.15,1.59,0.46c0.35,0.3,0.52,0.69,0.52,1.14c0,0.46-0.17,0.84-0.52,1.15
	c-0.35,0.3-0.87,0.46-1.57,0.46S8.56,32.1,8.21,31.79L8.21,31.79z M12.5,22.62H7.05v0.92h2.92c0.46,0,0.82,0.05,1.06,0.15
	c0.24,0.1,0.44,0.27,0.58,0.52c0.14,0.24,0.21,0.5,0.21,0.78s-0.07,0.51-0.21,0.7c-0.14,0.19-0.33,0.31-0.57,0.37
	c-0.17,0.04-0.49,0.06-0.97,0.06H7.05v0.92h3.37c0.39,0,0.68-0.02,0.86-0.06c0.27-0.05,0.5-0.15,0.68-0.28
	c0.19-0.13,0.34-0.34,0.46-0.62c0.12-0.28,0.18-0.58,0.18-0.9c0-0.73-0.31-1.3-0.92-1.73h0.8V22.62L12.5,22.62z M12.5,20.25H9.52
	c-0.7,0-1.17-0.14-1.42-0.43c-0.25-0.29-0.37-0.62-0.37-1.02c0-0.25,0.06-0.46,0.17-0.64c0.11-0.18,0.26-0.31,0.45-0.38
	c0.19-0.07,0.47-0.11,0.84-0.11h3.31v-0.92H9.15c-0.43,0-0.73,0.02-0.9,0.05c-0.26,0.05-0.49,0.15-0.68,0.29
	c-0.19,0.14-0.35,0.34-0.46,0.62c-0.12,0.28-0.18,0.58-0.18,0.9c0,0.76,0.3,1.33,0.9,1.73H7.05v0.83h5.44V20.25L12.5,20.25z
	 M11.71,13.72c0,0.14-0.02,0.24-0.07,0.32c-0.04,0.07-0.1,0.13-0.18,0.16c-0.08,0.03-0.24,0.05-0.51,0.05H7.77v-0.93H7.05v0.93h-1.9
	l0.55,0.92h1.35v0.68h0.72v-0.68h3.13c0.55,0,0.92-0.04,1.09-0.11c0.17-0.08,0.31-0.21,0.42-0.39s0.16-0.44,0.16-0.78
	c0-0.21-0.03-0.44-0.08-0.7l-0.82,0.13C11.69,13.49,11.71,13.62,11.71,13.72L11.71,13.72L11.71,13.72z M12.45,10.52
	c-0.86-0.35-1.75-0.53-2.68-0.53c-0.81,0-1.59,0.13-2.34,0.39c-0.86,0.31-1.73,0.78-2.58,1.43v0.66c0.72-0.42,1.23-0.69,1.54-0.83
	c0.47-0.21,0.96-0.37,1.48-0.49c0.63-0.15,1.27-0.22,1.91-0.22c1.64,0,3.29,0.51,4.93,1.53v-0.66
	C14.06,11.31,13.31,10.88,12.45,10.52L12.45,10.52z"/>
</svg>
