<?xml version="1.0" encoding="UTF-8"?>
<svg xmlns="http://www.w3.org/2000/svg" xmlns:xlink="http://www.w3.org/1999/xlink" width="147.204pt" height="156.8376pt" viewBox="0 0 147.204 156.8376" version="1.1">
<defs>
<clipPath id="clip1">
  <path d="M 8.21875 5.480469 L 142.722656 5.480469 L 142.722656 149.621094 L 8.21875 149.621094 Z M 8.21875 5.480469 "/>
</clipPath>
</defs>
<g id="surface81">
<path style="fill-rule:nonzero;fill:rgb(100%,100%,100%);fill-opacity:1;stroke-width:1.422638;stroke-linecap:round;stroke-linejoin:round;stroke:rgb(100%,100%,100%);stroke-opacity:1;stroke-miterlimit:10;" d="M 0 0 L 147.203125 0 L 147.203125 156.835938 L 0 156.835938 Z M 0 0 "/>
<g clip-path="url(#clip1)" clip-rule="nonzero">
<path style="fill-rule:nonzero;fill:rgb(100%,100%,100%);fill-opacity:1;stroke-width:1.422638;stroke-linecap:round;stroke-linejoin:round;stroke:rgb(100%,100%,100%);stroke-opacity:1;stroke-miterlimit:10;" d="M 8.21875 5.480469 L 141.722656 5.480469 L 141.722656 148.621094 L 8.21875 148.621094 Z M 8.21875 5.480469 "/>
<path style="fill:none;stroke-width:1.422638;stroke-linecap:round;stroke-linejoin:round;stroke:rgb(0%,0%,0%);stroke-opacity:1;stroke-miterlimit:10;" d="M 14.289063 142.113281 L 135.65625 142.113281 "/>
<path style="fill:none;stroke-width:1.422638;stroke-linecap:round;stroke-linejoin:round;stroke:rgb(0%,0%,0%);stroke-opacity:1;stroke-miterlimit:10;" d="M 54.742188 98.738281 L 95.199219 98.738281 "/>
<path style="fill:none;stroke-width:1.422638;stroke-linecap:round;stroke-linejoin:round;stroke:rgb(0%,0%,0%);stroke-opacity:1;stroke-miterlimit:10;" d="M 54.742188 55.359375 L 54.742188 55.359375 "/>
<path style="fill:none;stroke-width:1.422638;stroke-linecap:round;stroke-linejoin:round;stroke:rgb(0%,0%,0%);stroke-opacity:1;stroke-miterlimit:10;" d="M 54.742188 11.984375 L 54.742188 11.984375 "/>
<path style="fill:none;stroke-width:1.422638;stroke-linecap:round;stroke-linejoin:round;stroke:rgb(0%,0%,0%);stroke-opacity:1;stroke-miterlimit:10;" d="M 14.289063 104.160156 L 14.289063 104.160156 "/>
<path style="fill:none;stroke-width:1.422638;stroke-linecap:round;stroke-linejoin:round;stroke:rgb(0%,0%,0%);stroke-opacity:1;stroke-miterlimit:10;" d="M 14.289063 66.203125 L 54.742188 66.203125 "/>
<path style="fill:none;stroke-width:1.422638;stroke-linecap:round;stroke-linejoin:round;stroke:rgb(0%,0%,0%);stroke-opacity:1;stroke-miterlimit:10;" d="M 54.742188 33.671875 L 54.742188 33.671875 "/>
<path style="fill:none;stroke-width:1.422638;stroke-linecap:round;stroke-linejoin:round;stroke:rgb(0%,0%,0%);stroke-opacity:1;stroke-miterlimit:10;" d="M 14.289063 104.160156 L 14.289063 142.113281 "/>
<path style="fill:none;stroke-width:1.422638;stroke-linecap:round;stroke-linejoin:round;stroke:rgb(0%,0%,0%);stroke-opacity:1;stroke-miterlimit:10;" d="M 54.742188 66.203125 L 54.742188 98.738281 "/>
<path style="fill:none;stroke-width:1.422638;stroke-linecap:round;stroke-linejoin:round;stroke:rgb(0%,0%,0%);stroke-opacity:1;stroke-miterlimit:10;" d="M 54.742188 33.671875 L 54.742188 55.359375 "/>
<path style="fill:none;stroke-width:1.422638;stroke-linecap:round;stroke-linejoin:round;stroke:rgb(0%,0%,0%);stroke-opacity:1;stroke-miterlimit:10;" d="M 54.742188 33.671875 L 54.742188 11.984375 "/>
<path style="fill:none;stroke-width:1.422638;stroke-linecap:round;stroke-linejoin:round;stroke:rgb(0%,0%,0%);stroke-opacity:1;stroke-miterlimit:10;" d="M 14.289063 104.160156 L 14.289063 104.160156 "/>
<path style="fill:none;stroke-width:1.422638;stroke-linecap:round;stroke-linejoin:round;stroke:rgb(0%,0%,0%);stroke-opacity:1;stroke-miterlimit:10;" d="M 14.289063 104.160156 L 14.289063 66.203125 "/>
<path style="fill:none;stroke-width:1.422638;stroke-linecap:round;stroke-linejoin:round;stroke:rgb(0%,0%,0%);stroke-opacity:1;stroke-miterlimit:10;" d="M 54.742188 66.203125 L 54.742188 33.671875 "/>
<path style="fill-rule:nonzero;fill:rgb(38.039216%,61.176471%,100%);fill-opacity:1;stroke-width:0.944882;stroke-linecap:round;stroke-linejoin:round;stroke:rgb(38.039216%,61.176471%,100%);stroke-opacity:1;stroke-miterlimit:10;" d="M 138.109375 142.113281 C 138.109375 145.386719 133.203125 145.386719 133.203125 142.113281 C 133.203125 138.839844 138.109375 138.839844 138.109375 142.113281 "/>
<path style="fill-rule:nonzero;fill:rgb(38.039216%,61.176471%,100%);fill-opacity:1;stroke-width:0.944882;stroke-linecap:round;stroke-linejoin:round;stroke:rgb(38.039216%,61.176471%,100%);stroke-opacity:1;stroke-miterlimit:10;" d="M 97.65625 98.738281 C 97.65625 102.007813 92.746094 102.007813 92.746094 98.738281 C 92.746094 95.464844 97.65625 95.464844 97.65625 98.738281 "/>
<path style="fill-rule:nonzero;fill:rgb(38.039216%,61.176471%,100%);fill-opacity:1;stroke-width:0.944882;stroke-linecap:round;stroke-linejoin:round;stroke:rgb(38.039216%,61.176471%,100%);stroke-opacity:1;stroke-miterlimit:10;" d="M 57.199219 55.359375 C 57.199219 58.632813 52.289063 58.632813 52.289063 55.359375 C 52.289063 52.089844 57.199219 52.089844 57.199219 55.359375 "/>
<path style="fill-rule:nonzero;fill:rgb(38.039216%,61.176471%,100%);fill-opacity:1;stroke-width:0.944882;stroke-linecap:round;stroke-linejoin:round;stroke:rgb(38.039216%,61.176471%,100%);stroke-opacity:1;stroke-miterlimit:10;" d="M 57.199219 11.984375 C 57.199219 15.257813 52.289063 15.257813 52.289063 11.984375 C 52.289063 8.710938 57.199219 8.710938 57.199219 11.984375 "/>
</g>
</g>
</svg>
