<?xml version="1.0" encoding="UTF-8"?>
<svg xmlns="http://www.w3.org/2000/svg" xmlns:xlink="http://www.w3.org/1999/xlink" width="147.204pt" height="156.8376pt" viewBox="0 0 147.204 156.8376" version="1.1">
<defs>
<clipPath id="clip1">
  <path d="M 8.21875 5.480469 L 142.722656 5.480469 L 142.722656 149.621094 L 8.21875 149.621094 Z M 8.21875 5.480469 "/>
</clipPath>
</defs>
<g id="surface71">
<path style="fill-rule:nonzero;fill:rgb(100%,100%,100%);fill-opacity:1;stroke-width:1.422638;stroke-linecap:round;stroke-linejoin:round;stroke:rgb(100%,100%,100%);stroke-opacity:1;stroke-miterlimit:10;" d="M 0 0 L 147.203125 0 L 147.203125 156.835938 L 0 156.835938 Z M 0 0 "/>
<g clip-path="url(#clip1)" clip-rule="nonzero">
<path style="fill-rule:nonzero;fill:rgb(100%,100%,100%);fill-opacity:1;stroke-width:1.422638;stroke-linecap:round;stroke-linejoin:round;stroke:rgb(100%,100%,100%);stroke-opacity:1;stroke-miterlimit:10;" d="M 8.21875 5.480469 L 141.722656 5.480469 L 141.722656 148.621094 L 8.21875 148.621094 Z M 8.21875 5.480469 "/>
<path style="fill:none;stroke-width:1.422638;stroke-linecap:round;stroke-linejoin:round;stroke:rgb(0%,0%,0%);stroke-opacity:1;stroke-miterlimit:10;" d="M 14.289063 142.113281 L 135.65625 142.113281 "/>
<path style="fill:none;stroke-width:1.422638;stroke-linecap:round;stroke-linejoin:round;stroke:rgb(0%,0%,0%);stroke-opacity:1;stroke-miterlimit:10;" d="M 54.742188 98.738281 L 135.65625 98.738281 "/>
<path style="fill:none;stroke-width:1.422638;stroke-linecap:round;stroke-linejoin:round;stroke:rgb(0%,0%,0%);stroke-opacity:1;stroke-miterlimit:10;" d="M 95.199219 55.359375 L 135.65625 55.359375 "/>
<path style="fill:none;stroke-width:1.422638;stroke-linecap:round;stroke-linejoin:round;stroke:rgb(0%,0%,0%);stroke-opacity:1;stroke-miterlimit:10;" d="M 95.199219 11.984375 L 135.65625 11.984375 "/>
<path style="fill:none;stroke-width:1.422638;stroke-linecap:round;stroke-linejoin:round;stroke:rgb(0%,0%,0%);stroke-opacity:1;stroke-miterlimit:10;" d="M 14.289063 104.160156 L 14.289063 104.160156 "/>
<path style="fill:none;stroke-width:1.422638;stroke-linecap:round;stroke-linejoin:round;stroke:rgb(0%,0%,0%);stroke-opacity:1;stroke-miterlimit:10;" d="M 14.289063 66.203125 L 54.742188 66.203125 "/>
<path style="fill:none;stroke-width:1.422638;stroke-linecap:round;stroke-linejoin:round;stroke:rgb(0%,0%,0%);stroke-opacity:1;stroke-miterlimit:10;" d="M 54.742188 33.671875 L 95.199219 33.671875 "/>
<path style="fill:none;stroke-width:1.422638;stroke-linecap:round;stroke-linejoin:round;stroke:rgb(0%,0%,0%);stroke-opacity:1;stroke-miterlimit:10;" d="M 14.289063 104.160156 L 14.289063 142.113281 "/>
<path style="fill:none;stroke-width:1.422638;stroke-linecap:round;stroke-linejoin:round;stroke:rgb(0%,0%,0%);stroke-opacity:1;stroke-miterlimit:10;" d="M 54.742188 66.203125 L 54.742188 98.738281 "/>
<path style="fill:none;stroke-width:1.422638;stroke-linecap:round;stroke-linejoin:round;stroke:rgb(0%,0%,0%);stroke-opacity:1;stroke-miterlimit:10;" d="M 95.199219 33.671875 L 95.199219 55.359375 "/>
<path style="fill:none;stroke-width:1.422638;stroke-linecap:round;stroke-linejoin:round;stroke:rgb(0%,0%,0%);stroke-opacity:1;stroke-miterlimit:10;" d="M 95.199219 33.671875 L 95.199219 11.984375 "/>
<path style="fill:none;stroke-width:1.422638;stroke-linecap:round;stroke-linejoin:round;stroke:rgb(0%,0%,0%);stroke-opacity:1;stroke-miterlimit:10;" d="M 14.289063 104.160156 L 14.289063 104.160156 "/>
<path style="fill:none;stroke-width:1.422638;stroke-linecap:round;stroke-linejoin:round;stroke:rgb(0%,0%,0%);stroke-opacity:1;stroke-miterlimit:10;" d="M 14.289063 104.160156 L 14.289063 66.203125 "/>
<path style="fill:none;stroke-width:1.422638;stroke-linecap:round;stroke-linejoin:round;stroke:rgb(0%,0%,0%);stroke-opacity:1;stroke-miterlimit:10;" d="M 54.742188 66.203125 L 54.742188 33.671875 "/>
<path style="fill-rule:nonzero;fill:rgb(0%,72.941176%,21.960784%);fill-opacity:1;stroke-width:0.944882;stroke-linecap:round;stroke-linejoin:round;stroke:rgb(0%,72.941176%,21.960784%);stroke-opacity:1;stroke-miterlimit:10;" d="M 138.109375 142.113281 C 138.109375 145.386719 133.203125 145.386719 133.203125 142.113281 C 133.203125 138.839844 138.109375 138.839844 138.109375 142.113281 "/>
<path style="fill-rule:nonzero;fill:rgb(0%,72.941176%,21.960784%);fill-opacity:1;stroke-width:0.944882;stroke-linecap:round;stroke-linejoin:round;stroke:rgb(0%,72.941176%,21.960784%);stroke-opacity:1;stroke-miterlimit:10;" d="M 138.109375 98.738281 C 138.109375 102.007813 133.203125 102.007813 133.203125 98.738281 C 133.203125 95.464844 138.109375 95.464844 138.109375 98.738281 "/>
<path style="fill-rule:nonzero;fill:rgb(0%,72.941176%,21.960784%);fill-opacity:1;stroke-width:0.944882;stroke-linecap:round;stroke-linejoin:round;stroke:rgb(0%,72.941176%,21.960784%);stroke-opacity:1;stroke-miterlimit:10;" d="M 138.109375 55.359375 C 138.109375 58.632813 133.203125 58.632813 133.203125 55.359375 C 133.203125 52.089844 138.109375 52.089844 138.109375 55.359375 "/>
<path style="fill-rule:nonzero;fill:rgb(0%,72.941176%,21.960784%);fill-opacity:1;stroke-width:0.944882;stroke-linecap:round;stroke-linejoin:round;stroke:rgb(0%,72.941176%,21.960784%);stroke-opacity:1;stroke-miterlimit:10;" d="M 138.109375 11.984375 C 138.109375 15.257813 133.203125 15.257813 133.203125 11.984375 C 133.203125 8.710938 138.109375 8.710938 138.109375 11.984375 "/>
</g>
</g>
</svg>
